{"glyphs":{"0":{"ha":500,"x_min":0,"x_max":429,"o":"m 289 442 l 215 356 l 142 442 l 215 526 l 289 442 m 215 890 q 301 855 263 890 q 369 758 340 819 q 413 615 397 697 q 429 440 429 533 q 413 265 429 347 q 369 123 397 183 q 301 27 340 63 q 215 -8 263 -8 q 130 27 169 -8 q 61 124 90 63 q 16 267 32 185 q 0 442 0 349 q 16 616 0 535 q 61 758 32 697 q 130 855 90 819 q 215 890 169 890 m 215 25 q 264 58 244 25 q 295 147 283 90 q 313 279 307 203 q 318 442 318 356 q 313 603 318 528 q 295 735 307 679 q 264 824 283 792 q 215 857 244 857 q 167 824 186 857 q 135 735 147 792 q 118 603 124 679 q 113 442 113 528 q 118 279 113 356 q 135 147 124 203 q 167 58 147 90 q 215 25 186 25 z "},"1":{"ha":311,"x_min":-4,"x_max":271,"o":"m 206 133 q 224 48 206 85 q 271 3 243 11 l 271 0 l 206 0 l 94 0 l 29 0 l 29 3 q 76 49 57 13 q 94 133 94 85 l 94 742 q 85 742 92 749 q 63 728 75 731 q 39 726 50 725 q 19 731 28 726 q 7 742 10 736 q -2 757 0 747 q -2 776 -4 767 q 7 794 0 786 q 25 806 14 803 q 18 780 13 793 q 33 765 24 767 q 80 781 60 763 q 119 826 100 800 q 158 876 138 851 q 207 911 179 901 q 206 882 206 906 q 206 828 206 858 q 206 765 206 797 q 206 710 206 732 l 206 133 l 206 133 z "},"2":{"ha":631,"x_min":0,"x_max":589,"o":"m 0 0 q 165 335 89 182 q 230 465 197 400 q 290 588 263 531 q 339 688 318 644 q 371 751 360 731 q 374 793 381 772 q 349 831 367 814 q 308 858 332 847 q 263 868 285 868 q 226 861 243 868 q 196 844 210 854 q 174 819 182 833 q 165 793 165 806 q 172 750 164 767 q 190 726 179 733 q 210 723 200 719 q 222 739 219 726 q 238 697 238 717 q 226 663 238 676 q 197 648 215 650 q 158 658 179 646 q 185 596 174 639 q 196 510 197 553 q 174 434 194 467 q 103 401 153 401 q 71 411 85 401 q 51 433 57 421 q 46 460 44 446 q 60 482 47 474 q 74 467 64 474 q 97 457 85 460 q 138 470 125 453 q 155 516 151 488 q 153 578 158 544 q 138 643 147 613 q 119 694 129 674 q 100 715 108 714 l 40 793 q 69 790 51 782 q 107 811 88 797 q 154 851 129 826 q 203 880 174 869 q 268 890 232 890 q 353 876 311 890 q 425 834 396 861 q 464 769 454 807 q 451 685 474 732 q 385 551 424 629 q 306 392 347 474 q 224 231 264 310 q 156 94 185 153 q 169 59 150 76 q 238 39 188 42 q 284 39 267 39 q 311 39 301 39 q 324 39 321 39 q 329 39 328 39 q 385 47 364 39 q 419 68 407 56 q 438 95 432 81 q 443 124 443 110 q 434 173 443 151 q 414 221 425 194 q 386 344 390 283 q 414 451 382 404 q 450 484 429 474 q 492 495 471 494 q 531 488 513 496 q 560 465 550 479 q 574 422 575 444 q 564 383 574 400 q 541 358 554 367 q 518 356 528 350 q 539 384 538 365 q 530 417 540 403 q 499 436 519 432 q 457 422 479 440 q 424 354 428 399 q 438 253 419 310 q 494 131 456 196 q 589 0 533 65 l 0 0 z "},"3":{"ha":639,"x_min":-1,"x_max":590,"o":"m 586 335 q 578 237 590 294 q 529 126 565 179 q 431 37 493 74 q 272 0 368 0 q 142 29 194 0 q 58 101 90 58 q 12 192 25 143 q 0 283 -1 242 q 18 369 1 335 q 58 421 35 403 q 106 442 81 439 q 148 434 131 444 q 171 401 165 424 q 161 344 176 378 q 152 365 163 357 q 126 374 142 374 q 93 364 110 374 q 65 329 76 354 q 49 238 46 288 q 79 145 53 188 q 154 74 106 103 q 272 46 203 46 q 365 71 324 46 q 434 137 407 96 q 472 228 461 178 q 472 332 482 279 q 447 408 464 374 q 407 469 429 443 q 358 513 385 496 q 307 535 332 529 q 214 507 251 546 q 205 484 203 496 q 226 467 207 472 q 210 463 221 464 q 190 468 200 463 q 172 487 179 474 q 165 525 164 500 q 180 561 167 543 q 215 592 193 579 q 264 611 236 604 q 324 615 292 618 q 381 694 360 650 q 403 776 401 738 q 383 842 404 815 q 311 868 361 868 q 272 862 292 868 q 235 844 251 856 q 206 817 218 832 q 193 786 194 803 q 198 744 190 760 q 217 724 206 729 q 239 722 228 718 q 254 739 250 726 q 267 694 271 714 q 247 663 263 674 q 209 655 232 653 q 164 679 186 657 q 160 683 163 681 q 149 697 158 686 q 122 731 140 708 q 72 793 104 753 q 91 788 79 786 q 116 798 103 790 q 143 816 129 806 q 168 836 157 826 q 243 881 201 867 q 326 894 285 896 q 405 875 368 893 q 465 822 442 857 q 490 733 490 786 q 469 654 490 689 q 421 588 447 619 q 529 495 483 556 q 586 335 575 435 z "},"4":{"ha":574,"x_min":0,"x_max":529,"o":"m 0 386 q 131 444 78 403 q 217 535 185 485 q 260 639 249 585 q 263 738 271 693 q 228 812 254 783 q 161 840 203 840 q 127 828 138 840 q 117 801 117 815 q 126 774 117 786 q 150 765 135 763 q 129 754 140 758 q 108 751 119 751 q 86 757 97 750 q 60 791 67 768 q 60 837 53 814 q 90 876 68 860 q 151 893 113 893 q 229 872 197 893 q 277 813 261 850 q 294 728 293 776 q 281 624 294 679 q 241 519 264 561 q 202 452 218 478 q 184 415 186 426 q 210 404 182 404 l 322 404 l 322 713 q 321 768 322 736 q 318 830 319 800 q 315 883 317 860 q 313 911 314 906 q 363 876 340 901 q 406 825 385 851 q 449 781 428 799 q 497 767 471 763 q 513 783 508 769 q 503 806 518 797 q 520 795 514 803 q 528 778 526 788 q 526 760 529 769 q 517 746 522 751 q 484 727 506 733 q 443 742 463 721 q 433 740 436 749 l 433 133 q 452 49 433 85 q 499 3 471 13 l 499 0 l 433 0 l 322 0 l 257 0 l 257 3 q 303 48 285 11 q 322 133 322 85 l 322 360 q 215 360 260 360 q 135 360 169 360 q 73 361 101 361 q 14 361 44 361 l 0 386 z "},"5":{"ha":492,"x_min":-6,"x_max":460,"o":"m 460 335 q 456 276 460 310 q 441 204 451 242 q 412 131 431 167 q 363 65 393 94 q 292 18 333 36 q 194 0 250 0 q 109 28 147 0 q 44 99 71 56 q 6 194 18 142 q 1 299 -6 247 q 40 410 11 375 q 97 448 69 446 q 140 422 125 450 q 138 344 156 394 q 130 365 139 357 q 108 374 121 374 q 83 364 96 374 q 61 329 69 354 q 48 228 43 279 q 74 138 53 178 q 127 72 94 97 q 196 46 160 46 q 269 71 238 46 q 322 137 301 96 q 349 228 342 178 q 349 332 356 279 q 322 428 340 388 q 281 497 304 469 q 230 537 257 524 q 176 550 203 550 q 130 542 149 550 q 101 523 111 535 q 93 499 92 511 q 108 479 94 488 q 78 485 89 479 q 64 500 68 490 q 60 522 60 510 q 64 544 61 533 l 64 863 l 261 863 q 290 865 275 863 q 317 869 304 867 q 338 878 329 872 q 346 893 346 885 l 346 863 l 346 751 l 124 751 l 124 607 q 242 621 182 628 q 350 579 301 614 q 429 483 399 544 q 460 335 460 422 z "},"6":{"ha":489,"x_min":0,"x_max":476,"o":"m 144 335 q 150 424 131 386 q 206 482 169 463 q 290 501 243 501 q 378 472 336 500 q 448 387 419 444 q 476 238 476 329 q 455 139 476 183 q 401 64 433 94 q 328 17 368 33 q 253 0 289 0 q 174 17 213 0 q 104 63 136 33 q 48 133 72 92 q 14 224 24 174 q 6 270 11 238 q 0 352 0 303 q 11 465 0 401 q 53 601 22 528 q 103 694 69 643 q 177 788 136 744 q 263 861 218 832 q 347 890 307 890 q 291 823 319 863 q 237 739 263 783 q 188 649 211 694 q 151 564 165 603 q 113 393 115 464 q 111 282 110 322 q 124 189 113 233 q 153 111 135 144 q 194 58 171 78 q 246 39 218 39 q 288 54 267 39 q 327 97 310 69 q 356 159 344 124 q 365 236 367 194 q 349 338 364 296 q 310 404 333 379 q 284 422 300 414 q 250 428 268 429 q 224 418 236 426 q 203 397 211 410 q 191 369 194 385 q 192 340 188 354 q 220 309 199 318 q 258 308 242 300 q 231 285 247 290 q 197 283 214 279 q 165 301 179 288 q 144 335 150 314 z "},"7":{"ha":539,"x_min":-4,"x_max":485,"o":"m 454 513 q 482 456 479 483 q 469 413 485 429 q 419 395 453 396 q 335 419 385 394 l 276 100 q 278 75 276 90 q 288 44 281 60 q 309 16 296 28 q 344 0 322 4 l 63 0 q 106 17 88 0 q 138 53 125 33 q 157 91 150 74 q 164 110 164 108 l 233 475 q 197 497 213 488 q 176 508 181 506 q 143 512 158 517 q 118 497 128 507 q 108 472 108 486 q 118 449 107 458 q 98 446 108 443 q 80 456 88 449 q 67 474 72 463 q 64 499 63 486 q 76 532 65 518 q 104 553 88 546 q 140 558 121 560 q 179 544 160 557 q 240 504 208 526 l 308 860 l 181 860 q 105 833 131 860 q 74 776 79 807 q 79 718 68 744 q 114 692 90 692 q 135 699 126 692 q 144 722 144 707 q 153 701 151 714 q 149 676 154 688 q 130 656 143 664 q 94 647 117 647 q 34 670 57 647 q 3 727 11 693 q 5 799 -4 761 q 40 869 14 838 q 47 882 47 876 q 44 893 47 888 q 38 907 42 899 q 33 929 35 915 q 72 900 46 908 q 121 890 97 892 l 429 890 l 340 447 q 394 440 369 438 q 435 453 419 443 q 456 478 450 463 q 454 513 463 494 z "},"8":{"ha":639,"x_min":-3,"x_max":596,"o":"m 388 582 q 480 528 440 563 q 546 452 519 494 q 584 363 572 410 q 592 271 596 317 q 573 192 589 239 q 524 103 557 146 q 440 30 492 60 q 311 0 388 0 q 153 35 215 0 q 56 122 92 71 q 9 227 21 172 q 1 321 -3 282 q 63 480 13 419 q 181 568 114 540 q 113 635 135 590 q 92 715 92 679 q 110 789 92 757 q 157 844 128 821 q 224 878 186 867 q 299 890 261 890 q 377 878 340 890 q 440 845 414 867 q 482 792 467 824 q 497 724 497 761 q 484 661 497 688 q 453 617 471 635 q 416 591 435 600 q 388 582 397 582 m 294 861 q 261 854 279 861 q 226 834 243 847 q 199 800 210 821 q 188 750 188 779 q 190 717 188 735 q 202 680 193 699 q 230 644 211 661 q 282 614 249 626 l 328 600 q 309 624 317 608 q 299 658 301 640 q 302 691 297 675 q 322 715 307 707 q 323 674 313 688 q 351 659 333 660 q 385 672 368 658 q 407 713 403 685 q 408 758 411 732 q 392 806 406 783 q 356 845 379 829 q 294 861 332 861 m 503 111 q 533 161 519 135 q 555 215 544 185 q 565 279 565 246 q 539 403 565 354 q 474 481 513 451 q 394 522 436 510 q 322 532 353 533 q 249 517 285 531 q 185 476 214 503 q 136 410 156 450 q 111 317 117 371 q 117 217 107 267 q 153 130 128 168 q 219 67 179 92 q 311 43 258 43 q 411 68 371 43 q 474 132 451 93 q 501 217 496 171 q 494 308 506 264 q 474 352 489 332 q 440 385 460 372 q 398 403 421 397 q 354 403 375 408 q 301 370 314 394 q 293 323 288 346 q 317 288 299 300 q 361 293 336 276 q 358 281 361 286 q 351 269 354 275 q 313 246 336 250 q 265 251 289 242 q 224 281 242 260 q 204 332 207 301 q 212 383 201 358 q 244 426 222 407 q 297 456 265 444 q 367 467 328 467 q 449 441 408 467 q 514 369 489 415 q 540 256 539 322 q 503 111 540 190 z "},"9":{"ha":493,"x_min":-6,"x_max":451,"o":"m 439 667 q 447 613 442 651 q 449 519 451 574 q 431 397 446 464 q 382 258 417 329 q 329 175 363 218 q 254 94 296 132 q 165 31 213 57 q 69 0 117 6 q 140 55 106 18 q 205 134 175 92 q 257 219 235 176 q 290 289 279 261 q 323 394 313 346 q 336 484 333 443 q 338 556 339 525 q 336 608 336 588 q 324 701 333 657 q 299 779 315 746 q 260 832 282 813 q 210 851 238 851 q 167 839 189 851 q 126 802 144 826 q 94 741 107 778 q 82 654 82 704 q 88 604 82 632 q 106 552 94 576 q 135 512 118 528 q 172 497 151 496 q 213 519 200 499 q 228 560 226 539 q 219 599 229 582 q 189 615 208 617 q 215 623 199 624 q 249 615 232 622 q 281 592 267 607 q 303 556 296 576 q 307 502 311 531 q 289 449 303 474 q 253 408 275 425 q 204 386 231 390 q 126 391 165 379 q 58 435 88 403 q 11 522 28 468 q 1 653 -6 575 q 26 746 6 704 q 76 817 46 788 q 142 864 106 847 q 214 881 178 881 q 290 866 253 881 q 356 824 326 851 q 406 756 385 796 q 439 667 428 717 z "},"\r":{"ha":272,"x_min":0,"x_max":0,"o":""}," ":{"ha":272,"x_min":0,"x_max":0,"o":""},"N":{"ha":713,"x_min":0,"x_max":806,"o":"m 638 769 q 638 613 638 692 q 638 444 638 535 q 638 247 638 353 q 638 7 638 140 q 642 -82 638 -46 q 655 -143 646 -118 q 678 -184 664 -168 q 710 -212 692 -200 q 739 -219 724 -221 q 764 -206 754 -217 q 772 -162 778 -189 q 796 -178 789 -169 q 804 -195 803 -186 q 803 -212 806 -204 q 797 -226 801 -221 q 759 -247 786 -243 q 701 -239 732 -250 q 658 -212 675 -229 q 626 -173 640 -194 q 599 -124 613 -151 q 569 -67 586 -97 q 516 -12 546 -25 q 471 1 486 0 l 461 1 l 461 4 q 492 47 486 13 q 488 121 499 81 l 313 742 l 313 133 q 331 49 313 85 q 378 4 350 13 l 378 1 l 136 1 l 136 4 q 183 49 164 13 q 201 135 201 86 l 201 450 q 193 474 200 463 q 176 494 186 486 q 153 503 165 501 q 129 497 142 504 q 146 526 133 514 q 173 541 158 538 q 202 539 188 544 q 226 517 217 533 q 201 563 229 553 l 201 799 q 198 820 201 808 q 187 842 194 832 q 167 860 179 853 q 138 868 156 868 q 63 837 93 868 q 38 761 33 806 q 60 713 42 728 q 100 699 79 699 q 133 714 121 700 q 129 744 144 728 q 149 733 142 742 q 158 715 156 725 q 158 694 160 704 q 153 676 157 683 q 93 646 135 646 q 68 651 83 646 q 38 669 53 656 q 11 704 22 682 q 0 760 0 726 q 13 815 0 790 q 47 856 26 839 q 90 881 67 872 q 136 890 114 890 l 378 890 l 378 885 q 339 867 350 876 q 332 839 328 858 l 526 154 l 526 813 q 517 813 524 819 q 475 793 496 792 q 442 807 454 794 q 433 822 436 813 q 431 840 431 831 q 438 856 432 849 q 456 867 444 864 q 445 844 440 858 q 463 828 450 831 q 517 844 490 824 q 573 894 544 865 q 630 947 601 922 q 689 976 658 972 q 730 972 715 979 q 751 951 744 964 q 756 926 757 939 q 747 904 754 913 q 729 892 739 894 q 711 892 719 890 q 697 900 703 894 q 693 913 692 906 q 715 910 700 904 q 726 936 729 917 q 713 953 725 947 q 681 946 700 958 q 645 879 653 926 q 638 769 638 832 z "},"B":{"ha":769,"x_min":-6,"x_max":701,"o":"m 199 808 q 174 847 193 833 q 134 860 156 860 q 93 847 113 860 q 67 808 74 833 q 72 781 63 793 q 99 779 82 769 q 81 751 99 758 q 47 757 63 744 q 60 713 49 733 q 99 693 72 693 q 135 709 115 693 q 156 744 156 725 q 167 706 168 725 q 157 670 167 686 q 131 644 147 654 q 94 635 114 635 q 22 665 43 635 q -3 736 0 696 q 33 842 -6 800 q 138 885 71 885 l 421 885 q 496 875 460 885 q 560 844 532 865 q 604 790 588 824 q 621 708 621 756 q 609 637 621 668 q 578 583 597 606 q 538 546 560 560 q 496 526 517 532 q 570 503 533 524 q 636 449 607 483 q 683 365 665 414 q 701 256 701 315 q 688 144 701 189 q 653 69 674 99 q 610 23 633 40 q 566 -7 586 6 q 532 -30 546 -19 q 518 -57 518 -40 q 520 -72 518 -64 q 526 -87 522 -81 q 538 -96 531 -93 q 554 -96 544 -99 q 494 -110 518 -115 q 459 -87 469 -106 q 453 -41 449 -68 q 481 11 457 -14 q 449 1 458 1 q 421 0 439 0 l 136 0 l 136 3 q 183 48 164 11 q 201 133 201 85 l 201 406 q 176 445 199 431 q 131 446 154 460 q 155 484 138 474 q 192 490 172 494 q 210 481 201 488 q 221 463 218 475 q 201 503 225 492 l 201 786 q 201 796 201 790 q 199 808 200 801 m 343 444 q 356 483 343 471 q 386 506 368 496 q 426 525 404 515 q 465 556 447 535 q 496 611 483 576 q 508 706 508 646 q 499 760 508 736 q 477 802 490 785 q 449 829 464 819 q 421 839 433 839 l 313 839 l 313 142 q 331 65 313 96 q 401 33 350 33 q 468 39 435 33 q 528 67 501 44 q 573 134 556 89 q 590 258 590 179 q 586 331 590 290 q 568 409 582 372 q 528 471 554 446 q 456 496 501 496 q 418 486 433 496 q 395 462 403 476 q 389 432 388 447 q 403 407 390 417 q 375 403 386 400 q 357 413 364 406 q 347 430 350 421 q 343 444 343 439 z "},"V":{"ha":657,"x_min":-121,"x_max":797,"o":"m 743 800 q 741 841 751 826 q 713 860 731 856 q 676 863 696 865 q 643 853 656 861 q 612 820 624 842 q 596 775 600 799 l 467 65 q 466 56 467 63 q 466 42 465 49 q 469 33 467 36 q 476 35 471 31 q 518 51 497 53 q 551 36 539 49 q 561 6 563 24 q 538 -25 560 -11 q 535 0 544 -7 q 518 7 526 7 q 447 -19 483 7 q 374 -76 411 -44 q 300 -133 338 -107 q 228 -161 263 -160 q 187 -153 201 -162 q 166 -129 172 -143 q 161 -101 160 -115 q 168 -81 163 -87 q 193 -63 181 -65 q 215 -65 206 -61 q 231 -75 225 -68 q 238 -85 238 -82 q 210 -80 219 -76 q 197 -92 200 -83 q 197 -112 194 -101 q 207 -128 200 -122 q 241 -129 224 -139 q 270 -93 258 -119 q 285 -24 282 -67 q 278 75 289 19 l 206 457 q 169 492 194 481 q 124 490 143 504 q 158 530 131 519 q 214 517 186 540 q 203 537 211 531 q 189 546 196 543 q 155 735 172 642 q 107 921 138 828 q 63 978 88 961 q 14 996 38 994 q -17 988 -4 996 q -35 964 -31 981 q -31 934 -39 949 q -6 929 -22 919 q -24 901 -6 908 q -57 907 -42 894 q -40 868 -54 883 q -6 853 -26 853 q 30 863 15 853 q 39 900 44 874 q 55 869 56 888 q 44 833 54 851 q 15 803 33 815 q -22 790 -3 790 q -95 821 -74 790 q -119 892 -117 851 q -115 937 -121 914 q -94 978 -108 960 q -60 1010 -81 997 q -12 1025 -40 1022 q 51 1015 19 1028 q 126 972 82 1003 q 140 963 131 969 q 162 949 150 957 q 185 935 174 942 q 204 926 197 929 q 274 902 236 913 q 344 890 311 892 q 294 875 313 888 q 267 845 276 863 q 257 808 258 828 q 258 774 256 789 q 275 683 264 739 q 301 560 286 628 q 331 419 315 493 q 363 274 347 344 q 391 140 378 203 q 413 31 404 76 l 540 772 q 542 807 543 788 q 531 844 540 826 q 502 874 521 861 q 453 889 483 886 q 589 892 540 892 q 664 893 638 893 q 721 885 694 893 q 765 864 747 878 q 790 830 783 850 q 789 785 797 810 q 764 750 781 760 q 730 743 747 740 q 700 759 713 746 q 688 796 688 772 q 695 785 689 789 q 710 779 701 781 q 728 783 719 778 q 743 800 738 788 z "},"Y":{"ha":642,"x_min":-112,"x_max":793,"o":"m 432 357 l 432 -1 q 437 -62 432 -29 q 456 -126 442 -96 q 497 -178 471 -156 q 564 -206 522 -201 q 593 -203 578 -207 q 622 -190 608 -200 q 644 -166 635 -181 q 653 -131 653 -151 q 635 -94 653 -107 q 603 -81 618 -81 q 581 -87 590 -81 q 567 -103 571 -93 q 565 -123 563 -112 q 579 -142 568 -133 q 544 -124 556 -143 q 533 -83 532 -106 q 551 -41 535 -60 q 603 -22 568 -22 q 644 -31 625 -22 q 675 -55 663 -40 q 693 -88 688 -69 q 696 -128 699 -107 q 687 -156 693 -139 q 666 -187 681 -172 q 628 -213 651 -203 q 571 -224 606 -224 q 491 -198 535 -224 q 410 -106 447 -172 q 361 -54 386 -78 q 311 -18 339 -35 q 254 -1 283 -1 l 254 1 q 301 47 282 11 q 319 132 319 83 l 319 271 q 310 295 319 285 q 289 310 301 306 q 263 313 276 314 q 242 303 250 311 q 254 332 243 319 q 281 349 265 344 q 313 347 296 353 q 346 321 331 340 q 335 351 344 338 q 313 374 326 365 q 226 602 269 489 q 143 833 182 715 q 126 876 135 856 q 110 921 117 897 q 68 978 90 961 q 22 996 46 994 q -9 988 4 996 q -26 964 -22 981 q -22 934 -31 949 q 3 929 -14 919 q -15 901 3 908 q -49 907 -33 894 q -32 868 -46 883 q 3 853 -18 853 q 38 863 24 853 q 47 900 53 874 q 63 869 64 888 q 52 833 63 851 q 24 803 42 815 q -14 790 6 790 q -87 821 -65 790 q -111 892 -108 851 q -106 937 -112 914 q -86 978 -100 960 q -52 1010 -72 997 q -4 1025 -32 1022 q 59 1015 28 1028 q 135 972 90 1003 q 149 963 139 969 q 171 949 160 957 q 194 935 182 942 q 213 926 206 929 q 282 902 244 913 q 353 890 319 892 q 278 856 296 886 q 271 793 260 826 l 272 789 l 407 426 l 528 753 q 534 851 551 815 q 465 889 517 886 q 601 892 553 892 q 676 893 650 893 q 765 866 738 893 q 786 801 793 839 q 763 765 781 775 q 728 758 746 756 q 697 775 710 761 q 688 813 683 789 q 708 796 689 800 q 743 817 728 792 q 736 852 753 839 q 692 864 719 865 q 651 853 668 864 q 620 824 633 842 q 597 785 607 806 q 576 743 586 764 l 432 357 z "},"R":{"ha":738,"x_min":0,"x_max":1278,"o":"m 1219 -97 q 1263 -120 1249 -97 q 1269 -171 1278 -143 q 1226 -222 1261 -199 q 1119 -244 1190 -244 q 1019 -236 1074 -244 q 905 -201 965 -228 q 781 -126 844 -175 q 651 4 717 -78 q 521 206 586 86 q 394 492 456 325 q 381 516 390 503 q 360 526 372 529 q 347 517 353 524 q 353 496 342 510 q 334 503 340 496 q 326 520 328 511 q 330 538 325 529 q 344 550 335 546 q 313 576 325 563 l 313 135 q 331 50 313 86 q 378 4 350 14 l 378 1 l 136 1 l 136 4 q 183 50 164 14 q 201 135 201 86 l 201 450 q 178 491 201 478 q 131 490 154 504 q 165 532 138 521 q 224 513 193 543 q 217 535 224 524 q 201 550 211 546 l 201 793 q 199 816 201 803 q 189 841 196 829 q 169 861 182 853 q 138 869 157 869 q 63 838 93 869 q 38 761 33 806 q 60 714 42 729 q 100 700 79 699 q 133 715 121 701 q 129 744 144 729 q 149 734 142 742 q 158 716 156 726 q 158 694 160 706 q 153 676 157 683 q 93 647 135 647 q 68 652 83 647 q 38 669 53 657 q 11 704 22 682 q 0 761 0 726 q 13 815 0 790 q 44 856 25 839 q 88 881 64 872 q 133 892 111 890 l 475 892 q 544 878 511 892 q 603 840 578 864 q 644 785 629 817 q 660 714 660 753 q 640 638 660 672 q 588 579 621 603 q 515 544 556 556 q 431 535 474 532 q 468 515 446 521 q 515 511 490 508 q 540 413 521 479 q 594 264 560 346 q 676 97 628 182 q 790 -60 725 11 q 938 -176 856 -131 q 1119 -221 1019 -221 q 1197 -199 1168 -221 q 1225 -158 1226 -178 q 1218 -139 1225 -144 q 1203 -134 1211 -133 q 1189 -142 1194 -135 q 1186 -161 1183 -150 q 1177 -151 1181 -161 q 1176 -130 1174 -142 q 1188 -108 1178 -118 q 1219 -97 1197 -97 m 374 739 q 421 723 406 739 q 438 688 436 707 q 429 654 440 669 q 399 640 418 639 q 406 650 404 642 q 406 668 408 658 q 397 685 404 678 q 374 693 389 693 q 336 676 346 693 q 326 643 326 658 q 337 604 326 619 q 364 581 347 589 q 401 570 381 572 q 443 572 422 568 q 485 584 464 575 q 522 610 506 593 q 547 652 538 626 q 557 714 557 678 q 545 769 557 744 q 516 812 533 794 q 477 838 499 829 q 436 847 456 847 l 313 847 l 313 710 q 338 731 322 722 q 374 739 353 739 z "},"K":{"ha":718,"x_min":-1,"x_max":1135,"o":"m 321 132 q 340 47 321 83 q 386 3 358 11 l 386 0 l 129 0 q 96 3 110 0 q 71 13 82 7 q 20 58 39 28 q 0 121 1 88 q 33 210 -1 172 q 110 242 65 242 q 147 235 132 242 q 170 218 161 228 q 183 198 179 208 q 186 179 186 188 q 163 135 188 149 q 140 135 150 128 q 132 142 135 136 q 154 146 149 135 q 153 165 158 154 q 138 181 149 175 q 110 187 126 188 q 76 172 94 186 q 46 126 51 153 q 49 76 40 100 q 76 36 57 53 q 118 19 94 19 q 162 29 140 19 q 201 72 183 39 q 210 132 210 99 l 210 450 q 185 490 207 475 q 139 490 163 504 q 150 517 140 506 q 174 532 160 528 q 203 533 188 536 q 232 515 218 529 q 210 551 232 543 l 210 769 q 201 813 208 796 q 185 841 194 831 q 164 856 175 851 q 143 864 153 861 q 119 862 131 867 q 101 849 108 857 q 91 829 93 840 q 96 807 89 818 q 108 796 100 800 q 119 793 117 792 l 103 789 q 74 797 83 786 q 58 830 60 810 q 65 864 56 850 q 92 885 76 879 q 122 890 107 890 l 386 890 l 386 885 q 339 859 357 876 q 321 821 321 842 l 321 674 l 485 804 q 511 835 507 819 q 508 862 515 850 q 488 881 501 874 q 465 890 475 889 l 693 890 q 757 865 735 890 q 783 810 779 840 q 771 751 786 779 q 722 718 756 724 q 691 718 703 714 q 672 729 679 722 q 661 749 665 736 q 706 740 688 733 q 734 762 725 746 q 740 799 743 778 q 717 835 736 819 q 635 851 689 857 q 526 803 582 846 l 407 707 l 556 707 q 558 647 556 693 q 566 533 560 600 q 585 383 572 465 q 618 218 597 301 q 670 57 639 135 q 744 -82 701 -21 q 845 -180 788 -143 q 976 -217 903 -217 q 1054 -195 1025 -217 q 1082 -154 1083 -174 q 1075 -135 1082 -140 q 1060 -130 1068 -129 q 1046 -137 1051 -131 q 1043 -157 1040 -144 q 1034 -147 1038 -157 q 1033 -125 1031 -137 q 1044 -103 1035 -112 q 1076 -93 1054 -93 q 1119 -116 1104 -93 q 1127 -166 1135 -139 q 1084 -216 1119 -193 q 978 -239 1049 -239 q 797 -193 883 -239 q 640 -42 710 -147 q 519 235 569 64 q 444 660 468 407 q 435 676 443 671 q 418 681 428 682 q 399 664 407 678 q 404 632 392 650 q 381 639 394 629 q 374 675 368 649 l 378 685 l 321 639 l 321 132 z "},"X":{"ha":738,"x_min":-1,"x_max":1224,"o":"m 635 93 q 715 -28 667 29 q 822 -128 764 -85 q 943 -196 881 -171 q 1065 -221 1006 -221 q 1142 -199 1114 -221 q 1171 -158 1171 -178 q 1164 -138 1171 -144 q 1149 -133 1157 -132 q 1134 -142 1140 -135 q 1131 -161 1128 -149 q 1122 -151 1126 -161 q 1120 -130 1118 -142 q 1133 -108 1122 -118 q 1165 -97 1143 -97 q 1209 -120 1194 -97 q 1215 -170 1224 -143 q 1172 -220 1207 -197 q 1065 -243 1136 -243 q 906 -210 992 -243 q 707 -108 819 -178 q 663 -80 688 -97 q 612 -46 639 -62 q 557 -16 585 -29 q 503 0 529 -3 q 539 24 531 0 l 390 375 l 299 124 q 297 43 283 79 q 342 1 310 7 l 340 0 l 121 0 l 101 3 q 71 11 83 6 q 20 57 39 26 q 0 121 1 88 q 8 169 -1 146 q 33 208 17 192 q 110 240 65 240 q 147 233 132 240 q 170 217 161 226 q 183 198 179 208 q 186 179 186 188 q 163 135 189 149 q 150 131 156 131 q 140 135 144 132 q 132 142 135 138 q 145 138 139 138 q 154 146 151 138 q 153 165 158 154 q 138 181 149 175 q 110 185 126 186 q 76 171 94 185 q 46 127 51 153 q 49 77 40 101 q 76 36 57 53 q 118 19 94 19 q 197 47 165 19 q 235 92 217 64 q 271 169 253 121 l 368 428 l 201 826 q 171 858 185 854 q 146 863 157 863 q 103 845 121 863 q 100 806 86 828 q 111 794 103 799 q 122 792 119 790 q 106 788 114 789 q 76 796 88 785 q 60 828 63 808 q 68 863 58 849 q 94 883 79 878 q 125 889 110 889 l 367 889 l 369 883 q 335 861 346 875 q 326 828 324 847 l 428 588 l 506 793 q 486 883 529 883 l 486 889 l 660 889 q 692 883 676 889 q 717 863 707 878 q 725 828 726 849 q 708 796 724 808 q 679 788 696 785 q 663 792 671 789 q 674 794 665 790 q 686 806 682 799 q 681 845 699 828 q 639 863 664 863 q 621 861 632 863 q 596 852 610 860 q 567 828 582 844 q 539 781 553 811 l 450 536 l 596 193 q 594 136 582 172 q 606 170 594 158 q 631 184 617 182 q 660 180 646 186 q 679 161 674 174 q 640 138 653 161 q 635 93 626 114 z "},"U":{"ha":724,"x_min":0,"x_max":819,"o":"m 322 242 q 344 126 322 171 q 419 82 365 82 q 463 94 446 82 q 486 122 479 106 q 490 156 493 139 q 474 182 488 172 q 488 181 478 183 q 507 172 497 179 q 525 153 517 165 q 535 121 533 140 l 535 819 q 517 857 535 840 q 469 883 499 874 l 469 889 l 749 889 q 779 883 764 889 q 806 863 794 878 q 813 828 815 849 q 797 796 811 808 q 767 788 785 785 q 750 792 758 789 q 762 794 753 790 q 774 806 771 799 q 770 845 788 828 q 728 863 753 863 q 706 862 719 863 q 681 852 693 861 q 658 823 668 843 q 646 765 647 803 l 646 -3 q 649 -28 646 -14 q 662 -56 653 -43 q 687 -78 671 -69 q 728 -89 703 -87 q 759 -78 749 -89 q 773 -55 769 -68 q 774 -28 776 -42 q 768 -11 772 -15 q 805 -26 790 -11 q 819 -62 819 -42 q 799 -99 818 -82 q 738 -118 781 -117 q 665 -108 697 -121 q 605 -78 632 -94 q 556 -48 578 -62 q 513 -31 533 -33 q 531 31 528 -3 q 535 106 535 64 q 498 28 532 57 q 411 0 464 0 q 321 17 358 0 q 259 66 283 35 q 223 141 235 97 q 211 238 211 185 l 211 450 q 202 474 210 463 q 184 491 194 485 q 162 498 174 497 q 140 490 150 499 q 151 516 140 506 q 176 531 161 526 q 206 531 190 535 q 231 517 221 528 q 225 540 231 528 q 211 551 219 551 l 211 792 q 208 813 211 800 q 199 838 206 826 q 179 858 192 850 q 147 867 167 867 q 104 858 125 867 q 68 835 83 850 q 44 801 53 821 q 38 760 35 782 q 60 711 42 726 q 100 697 79 696 q 133 713 121 699 q 129 743 144 726 q 149 732 142 740 q 158 713 156 724 q 158 692 160 703 q 153 675 157 682 q 93 644 135 644 q 68 649 83 644 q 38 667 53 654 q 11 701 22 679 q 0 758 0 724 q 15 813 0 789 q 51 854 29 838 q 99 880 74 871 q 147 889 125 889 l 388 889 l 388 883 q 340 858 358 875 q 322 819 322 840 l 322 242 z "},"H":{"ha":763,"x_min":-36,"x_max":829,"o":"m 483 561 q 479 608 471 588 q 506 640 488 629 q 550 652 525 651 q 596 639 575 653 l 596 767 q 591 792 596 776 q 577 822 586 807 q 556 849 568 838 q 531 865 544 861 l 531 871 l 774 836 l 774 831 q 726 805 744 822 q 708 767 708 788 l 708 610 q 692 594 700 607 q 683 571 685 582 q 708 589 693 585 q 735 590 722 593 q 758 577 749 588 q 767 553 767 567 q 748 560 758 561 q 729 551 738 558 q 715 530 721 543 q 708 500 708 517 l 708 31 q 717 -78 708 -32 q 753 -143 725 -124 q 784 -151 771 -157 q 799 -135 797 -146 q 787 -109 801 -115 q 765 -111 772 -103 q 769 -100 764 -106 q 782 -92 774 -94 q 801 -91 790 -89 q 819 -103 811 -93 q 828 -124 826 -111 q 823 -150 829 -137 q 802 -170 817 -162 q 761 -175 788 -178 q 701 -145 731 -171 q 644 -91 672 -119 q 588 -42 615 -62 q 533 -26 560 -21 q 516 -42 521 -29 q 526 -64 511 -56 q 502 -37 503 -58 q 513 -4 501 -17 q 546 8 525 7 q 588 -11 567 10 q 596 -10 596 -19 l 596 378 q 629 442 628 407 q 583 400 614 418 q 513 369 553 382 q 427 351 472 357 q 340 347 382 344 l 340 119 q 354 47 342 82 q 406 3 367 13 l 406 0 l 86 0 q 37 14 51 0 q 22 44 22 28 q 33 73 22 61 q 61 81 44 85 q 52 63 53 75 q 60 40 51 51 q 88 21 69 29 q 139 15 107 13 q 180 26 164 17 q 206 49 196 36 q 219 73 215 61 q 225 90 224 85 q 227 128 226 96 q 228 201 228 160 q 229 286 229 243 q 229 356 229 329 q 133 353 167 371 q 100 290 100 335 q 108 258 100 268 q 127 249 117 249 q 147 260 138 250 q 160 286 157 269 q 154 233 172 253 q 110 213 136 214 q 59 231 83 211 q 35 294 35 250 q 50 353 35 329 q 92 390 65 376 q 153 407 118 404 q 228 403 188 410 l 229 676 l 229 818 q 220 881 229 844 q 194 950 211 918 q 151 1005 176 982 q 92 1028 125 1028 q 36 1010 64 1028 q 8 960 8 993 q 26 923 8 936 q 58 910 43 910 q 94 931 85 910 q 82 969 104 953 q 121 951 108 969 q 131 910 133 932 q 111 869 129 888 q 60 850 93 850 q 17 859 36 850 q -13 883 -1 868 q -31 916 -25 897 q -33 956 -36 935 q -25 984 -32 967 q -4 1017 -18 1001 q 33 1044 10 1033 q 90 1056 56 1056 q 152 1043 126 1056 q 197 1012 178 1031 q 235 972 217 993 q 274 931 253 950 q 322 898 294 911 q 392 883 350 885 l 392 881 q 352 835 364 872 q 340 749 340 797 l 340 403 q 460 419 403 406 q 553 464 518 432 q 577 499 568 478 q 585 541 586 521 q 572 576 585 561 q 529 594 558 592 q 502 588 518 596 q 483 561 486 581 z "},"P":{"ha":750,"x_min":-1,"x_max":708,"o":"m 513 892 q 585 876 550 892 q 647 832 619 861 q 692 761 675 803 q 708 668 708 719 q 685 525 708 579 q 626 442 661 471 q 553 404 592 413 q 485 399 514 396 q 420 425 440 403 q 398 472 400 447 q 410 516 396 496 q 449 536 424 536 q 435 512 440 528 q 433 481 431 496 q 444 456 435 467 q 472 444 454 444 q 517 460 494 444 q 557 506 539 476 q 586 576 575 535 q 597 668 597 617 q 587 740 597 707 q 560 796 576 772 q 521 833 543 819 q 475 847 499 847 l 375 847 l 375 135 q 394 50 375 86 q 440 4 413 14 l 440 1 q 383 -15 411 1 q 333 -51 356 -32 q 286 -103 308 -75 q 205 -195 249 -169 q 125 -221 161 -221 q 67 -210 90 -221 q 31 -185 44 -200 q 10 -153 17 -169 q 1 -125 3 -136 q 3 -85 -1 -104 q 21 -52 8 -67 q 52 -28 33 -37 q 94 -19 71 -19 q 144 -38 128 -19 q 163 -80 161 -57 q 152 -122 164 -103 q 117 -139 140 -140 q 131 -120 128 -131 q 129 -100 133 -110 q 115 -84 125 -90 q 93 -78 106 -78 q 60 -91 78 -78 q 43 -128 43 -104 q 52 -163 43 -149 q 74 -187 61 -178 q 103 -201 88 -197 q 132 -203 118 -204 q 199 -176 174 -199 q 240 -123 225 -153 q 259 -60 254 -93 q 264 1 264 -26 l 264 450 q 241 490 261 475 q 197 490 221 504 q 208 515 199 503 q 230 532 217 526 q 258 535 243 538 q 283 519 272 533 q 279 540 283 529 q 264 556 275 550 l 264 793 q 261 816 264 803 q 251 841 258 829 q 231 861 243 853 q 199 869 218 869 q 158 861 176 869 q 125 838 139 853 q 104 803 111 824 q 100 761 97 783 q 122 714 103 729 q 161 700 142 699 q 195 715 183 701 q 192 744 207 729 q 210 734 204 742 q 219 716 217 726 q 219 694 221 706 q 214 676 218 683 q 156 647 199 647 q 131 652 146 647 q 100 669 115 657 q 74 704 85 682 q 63 761 63 726 q 75 815 63 790 q 107 856 88 839 q 150 881 126 872 q 196 892 174 890 l 513 892 l 513 892 z "},"E":{"ha":740,"x_min":-1,"x_max":767,"o":"m 731 354 q 757 345 747 354 q 767 325 767 336 q 753 304 767 308 q 750 319 760 314 q 725 315 740 324 q 699 287 714 310 q 672 232 685 264 q 650 164 658 200 q 642 94 642 128 q 656 35 643 61 q 700 0 669 10 l 129 0 q 71 11 96 0 q 20 56 39 26 q 0 119 1 86 q 8 168 -1 144 q 33 208 17 192 q 70 230 47 222 q 114 235 93 238 q 150 219 135 232 q 165 181 165 206 q 159 156 165 167 q 144 140 153 146 q 124 134 135 135 q 106 140 114 133 q 126 147 122 138 q 124 165 129 156 q 105 180 118 175 q 74 174 92 185 q 42 132 47 158 q 46 81 38 106 q 74 37 54 56 q 118 18 94 18 q 162 30 140 18 q 197 72 183 42 q 206 131 206 99 l 206 451 q 181 491 203 476 q 135 492 158 506 q 163 532 142 522 q 207 533 185 542 q 231 510 224 526 q 226 535 231 524 q 206 551 222 546 l 206 756 q 201 808 206 788 q 188 839 196 828 q 169 856 179 850 q 149 864 158 861 q 125 863 136 867 q 106 850 114 858 q 97 831 99 842 q 101 808 94 819 q 114 797 106 801 q 125 793 122 792 q 108 789 117 789 q 79 799 92 786 q 63 830 64 810 q 71 865 61 850 q 105 887 83 883 q 146 890 126 890 l 549 890 q 599 898 572 890 q 640 929 626 906 q 640 897 643 908 q 621 868 636 885 q 660 818 646 851 q 672 752 674 785 q 650 694 669 719 q 590 669 631 669 q 561 678 572 669 q 545 698 550 686 q 542 722 540 710 q 551 740 543 733 q 561 727 551 729 q 576 726 571 725 q 607 744 594 731 q 619 789 619 757 q 613 812 619 801 q 598 830 607 822 q 579 841 589 838 q 561 844 569 844 l 388 846 q 338 828 358 846 q 317 763 317 811 l 317 546 q 357 608 329 583 q 418 641 385 632 q 485 643 451 650 q 539 613 518 636 q 561 568 557 593 q 556 521 565 543 q 526 484 547 499 q 475 472 506 469 q 436 490 447 475 q 428 521 425 506 q 438 508 431 514 q 458 503 444 503 q 484 513 475 503 q 493 535 493 522 q 476 583 493 569 q 434 593 458 596 q 386 573 410 590 q 350 529 363 556 q 340 489 342 513 q 340 442 338 465 q 349 402 342 419 q 367 382 356 385 q 342 394 357 382 q 317 433 326 406 l 317 126 q 340 61 317 78 q 431 44 363 44 q 469 47 442 44 q 529 67 497 50 q 590 123 561 85 q 632 231 619 161 q 630 313 642 289 q 592 336 618 336 q 565 326 575 336 q 556 307 556 315 q 571 290 556 288 q 535 293 553 282 q 519 335 517 304 q 538 376 521 353 q 594 399 554 399 q 645 376 625 400 q 671 322 665 353 q 696 344 681 335 q 731 354 711 354 z "},"T":{"ha":642,"x_min":0,"x_max":686,"o":"m 288 801 q 282 826 288 817 q 269 840 276 835 q 256 846 263 844 q 246 847 249 847 l 179 847 q 155 835 158 847 q 160 803 151 822 q 197 722 176 763 q 229 644 218 681 q 244 538 244 589 q 229 447 244 486 q 183 383 214 407 q 106 358 151 358 q 44 375 67 358 q 15 415 22 392 q 14 460 7 438 q 40 494 21 483 q 63 501 51 501 q 83 497 74 500 q 94 492 89 494 q 104 486 99 489 q 80 477 89 489 q 71 451 71 465 q 81 424 71 436 q 115 411 92 411 q 181 442 157 411 q 213 517 206 472 q 210 614 219 563 q 174 708 200 665 q 107 777 149 751 q 8 796 65 803 q 4 804 6 797 q 1 813 3 808 q 0 824 0 817 l 0 826 q 31 875 0 854 q 132 892 61 896 l 553 892 q 655 875 624 896 q 686 826 686 854 l 686 824 q 684 813 685 817 q 682 804 683 808 q 678 796 679 797 q 579 777 621 803 q 512 708 538 751 q 476 614 486 665 q 472 517 465 563 q 503 442 479 472 q 569 411 528 411 q 603 424 593 411 q 614 451 614 436 q 606 477 614 465 q 582 486 597 489 q 601 497 592 493 q 622 501 611 500 q 646 494 633 501 q 672 460 665 483 q 672 415 679 438 q 642 375 664 392 q 581 358 619 358 q 503 383 535 358 q 457 447 472 407 q 442 538 442 486 q 457 644 442 589 q 488 722 467 681 q 526 803 508 763 q 531 835 535 822 q 507 847 528 847 l 440 847 q 415 840 432 847 q 399 801 399 832 l 399 135 q 410 65 399 96 q 440 17 421 33 q 463 6 450 8 l 463 4 l 464 4 l 464 1 l 444 1 q 394 -20 418 -4 q 351 -54 371 -36 q 310 -101 328 -76 q 228 -194 272 -168 q 149 -219 185 -219 q 91 -209 114 -219 q 54 -183 68 -199 q 33 -151 40 -168 q 25 -124 26 -135 q 28 -83 22 -103 q 45 -49 33 -64 q 76 -24 57 -33 q 118 -14 94 -14 q 168 -32 151 -14 q 186 -72 185 -50 q 176 -110 188 -93 q 140 -126 164 -128 q 152 -91 163 -110 q 117 -72 142 -72 q 84 -85 101 -72 q 67 -122 67 -99 q 76 -158 67 -143 q 98 -182 85 -172 q 126 -195 111 -192 q 156 -197 142 -199 q 219 -168 194 -193 q 259 -110 244 -143 q 280 -40 274 -76 q 288 25 286 -3 q 304 42 293 28 q 315 93 315 56 q 297 61 307 72 q 276 45 286 50 q 258 40 267 40 q 243 39 249 39 q 210 52 224 39 q 191 83 196 65 q 192 117 186 100 q 217 143 197 135 q 220 103 208 117 q 249 96 232 90 q 274 119 260 100 q 288 164 288 138 l 288 801 z "},"F":{"ha":754,"x_min":-1,"x_max":867,"o":"m 151 849 q 106 824 115 849 q 108 794 99 811 q 132 778 117 778 q 101 774 115 769 q 78 788 88 778 q 65 813 69 799 q 63 839 61 826 q 78 870 64 853 q 117 895 93 888 q 173 896 140 903 q 243 856 206 889 q 261 876 244 861 q 307 890 278 890 l 561 890 q 678 878 638 890 q 717 839 719 867 q 743 882 742 853 q 797 897 763 893 q 867 883 831 900 q 801 856 835 883 q 737 785 767 828 q 684 691 707 743 q 651 590 661 639 q 649 502 642 542 q 685 444 656 463 q 633 431 658 431 q 590 444 608 431 q 563 484 571 457 q 563 551 554 511 q 570 581 564 564 q 585 616 576 599 q 603 649 593 633 q 621 674 613 665 q 581 676 599 669 q 561 689 564 683 q 551 715 551 703 q 557 735 551 726 q 570 747 563 743 q 585 751 578 751 q 590 722 581 731 q 613 717 600 713 q 638 736 626 721 q 650 779 650 751 q 628 824 650 801 q 544 846 607 846 l 343 846 l 324 846 l 324 825 l 324 465 q 359 527 336 503 q 408 560 382 551 q 460 563 433 569 q 508 532 488 556 q 531 488 526 513 q 526 440 535 463 q 496 403 517 418 q 444 392 475 389 q 406 410 417 394 q 397 440 394 425 q 407 428 400 433 q 428 422 414 422 q 458 432 444 422 q 472 454 472 442 q 459 502 472 489 q 427 513 446 515 q 389 492 408 510 q 357 449 369 475 q 347 408 349 432 q 347 362 344 385 q 356 322 349 339 q 374 301 363 304 q 349 313 364 301 q 324 353 333 325 l 324 133 q 342 48 324 85 q 389 3 361 11 l 389 0 l 147 0 q 129 -1 143 -1 q 96 2 110 -1 q 71 11 82 6 q 20 56 39 26 q 0 119 1 86 q 8 168 -1 144 q 33 208 17 192 q 110 240 65 240 q 147 233 132 240 q 170 217 161 226 q 183 197 179 208 q 186 178 186 186 q 181 152 188 164 q 163 135 174 140 q 140 133 150 128 q 132 140 135 135 q 154 144 149 133 q 153 165 158 154 q 138 181 149 175 q 110 185 126 186 q 76 171 94 185 q 46 126 51 153 q 49 76 40 100 q 76 35 57 53 q 118 18 94 18 q 166 30 140 18 q 206 71 192 42 q 214 133 214 97 q 214 259 214 207 q 213 348 214 311 q 213 408 213 385 q 213 449 213 432 q 188 489 210 474 q 143 490 167 504 q 162 524 149 513 q 190 536 175 535 q 217 532 204 536 q 239 510 229 528 q 214 550 239 539 l 214 756 q 213 778 214 763 q 206 809 211 793 q 187 837 200 825 q 151 849 174 849 z "},"G":{"ha":646,"x_min":-24,"x_max":703,"o":"m 703 -110 q 688 -152 703 -142 q 646 -162 672 -162 q 565 -133 596 -162 q 515 -68 533 -104 q 483 28 493 -24 q 463 8 475 17 q 444 0 451 0 l 144 0 l 144 1 q 174 20 165 4 q 157 76 183 36 q 126 129 142 100 q 95 199 110 158 q 67 292 81 239 q 44 414 54 344 q 21 453 42 439 q -24 453 0 468 q -13 480 -24 468 q 12 496 -3 492 q 42 495 26 500 q 67 474 57 490 q 63 493 68 482 q 47 511 58 504 q 69 602 51 554 q 112 695 86 650 q 170 780 138 740 q 236 847 203 819 q 146 890 196 886 q 86 878 110 893 q 57 850 63 863 q 55 811 47 828 q 79 793 63 794 q 94 802 90 792 q 89 818 97 813 q 110 799 107 815 q 104 768 114 782 q 68 751 93 751 q 28 765 43 750 q 2 807 8 781 q 6 860 -4 833 q 59 916 19 896 q 151 929 99 936 q 211 907 185 925 q 261 863 238 889 q 396 897 326 899 q 508 859 471 894 q 549 781 544 824 q 530 703 554 738 q 457 668 506 668 q 403 681 428 668 q 356 713 378 693 q 314 756 333 732 q 276 804 294 781 q 225 740 247 781 q 188 648 203 699 q 164 542 172 597 q 156 435 156 486 q 163 346 156 393 q 182 253 169 299 q 212 165 194 207 q 249 93 229 124 q 288 52 261 74 q 353 31 314 31 q 449 51 419 31 q 479 96 479 71 l 479 532 q 461 559 475 546 q 428 582 447 572 q 389 597 410 592 q 350 603 368 603 q 296 580 314 603 q 276 530 278 557 q 289 480 275 503 q 331 457 303 457 q 355 463 344 457 q 372 477 365 469 q 382 492 379 485 q 383 503 385 500 q 388 487 386 501 q 383 454 389 472 q 364 419 378 436 q 322 399 350 403 q 264 407 289 393 q 225 445 239 421 q 208 500 211 469 q 216 559 206 531 q 251 610 226 588 q 318 639 276 632 q 384 638 351 644 q 445 620 417 632 q 497 595 474 608 q 535 574 519 582 q 583 547 557 560 q 632 554 610 535 q 638 569 638 560 q 635 586 639 578 q 625 599 632 594 q 610 603 618 604 q 638 605 624 610 q 660 589 651 600 q 671 561 669 578 q 661 528 672 544 q 617 503 647 508 q 556 518 586 497 q 567 493 561 506 q 590 474 574 481 l 590 4 q 593 -29 590 -10 q 602 -67 596 -49 q 619 -101 608 -86 q 647 -119 631 -115 q 683 -108 675 -125 q 681 -81 692 -92 q 697 -88 690 -82 q 703 -110 703 -94 m 390 867 q 336 853 357 867 q 294 821 315 840 q 341 758 314 792 q 397 700 368 724 q 385 739 386 718 q 400 775 383 760 q 413 748 399 756 q 447 742 428 740 q 481 753 465 743 q 497 782 497 764 q 492 811 497 796 q 476 839 488 826 q 443 859 464 851 q 390 867 422 867 z "},"O":{"ha":725,"x_min":7,"x_max":689,"o":"m 640 876 q 605 838 607 861 q 615 781 603 814 q 636 726 624 757 q 660 658 649 696 q 681 571 672 619 q 689 463 689 522 q 664 265 689 351 q 597 121 639 179 q 500 32 556 63 q 383 1 444 1 q 267 35 322 1 q 169 128 211 69 q 103 268 128 188 q 78 440 78 349 q 53 490 75 475 q 7 490 31 504 q 26 522 13 510 q 53 537 39 533 q 83 534 68 540 q 107 511 97 528 q 102 538 108 525 q 85 556 96 550 q 128 686 99 625 q 198 793 158 747 q 285 865 238 839 q 383 892 333 892 q 433 886 408 892 q 481 871 458 881 q 523 846 504 861 q 551 813 542 831 q 582 869 554 853 q 640 876 610 885 m 439 181 q 490 222 457 217 q 546 211 524 226 q 565 281 556 240 q 576 370 574 321 q 576 476 579 419 q 557 594 572 533 q 540 489 554 532 q 505 419 526 446 q 456 380 483 392 q 401 368 429 368 q 340 393 363 368 q 315 449 318 418 q 330 507 313 481 q 386 536 347 533 q 365 514 371 528 q 363 486 360 500 q 378 463 367 472 q 410 453 390 453 q 463 472 442 453 q 498 518 485 490 q 517 577 511 546 q 522 635 522 608 q 517 681 522 644 q 498 757 513 718 q 456 827 483 796 q 383 858 429 858 q 301 823 336 858 q 242 730 265 788 q 206 598 218 672 q 195 447 194 524 q 208 295 196 369 q 243 163 219 221 q 301 70 267 106 q 383 35 336 35 q 449 60 415 35 q 498 114 482 85 q 503 165 514 143 q 439 181 493 186 z "},"@":{"ha":636,"x_min":0,"x_max":586,"o":"m 578 293 q 583 286 586 293 q 581 267 583 285 q 568 224 578 250 q 539 165 558 197 q 488 104 519 133 q 307 40 418 40 q 184 65 242 40 q 83 140 126 90 q 0 393 0 240 q 10 474 0 428 q 42 567 21 521 q 94 656 63 614 q 167 726 125 699 q 247 763 204 751 q 333 775 289 775 q 465 739 411 775 q 549 639 521 703 q 578 503 578 574 q 547 350 578 422 q 471 249 515 279 q 371 214 425 214 q 338 223 350 214 q 317 244 325 232 q 308 270 310 257 q 306 290 306 283 q 308 310 306 301 q 315 338 311 319 q 274 271 294 294 q 235 236 253 247 q 203 223 217 225 q 186 221 190 221 q 147 244 164 221 q 132 310 132 267 q 142 396 132 357 q 171 485 157 450 q 196 540 185 519 q 217 569 207 560 q 235 583 226 578 q 268 593 249 593 l 308 593 q 345 575 332 593 q 361 539 358 557 l 374 586 q 384 579 372 586 q 410 575 396 572 q 442 589 425 578 q 457 601 450 594 l 393 343 q 383 281 383 304 q 390 260 383 265 q 424 261 400 251 q 464 286 447 271 q 521 374 499 318 q 544 494 544 432 q 488 669 544 600 q 340 736 431 736 q 265 726 301 736 q 197 692 229 715 q 119 613 149 657 q 75 524 90 568 q 54 442 60 481 q 49 379 49 404 q 119 161 49 244 q 204 97 156 118 q 307 76 253 76 q 468 135 397 76 q 571 289 539 192 q 576 293 571 293 l 578 293 m 339 381 q 346 393 343 386 q 349 408 349 400 q 344 424 349 415 q 339 433 342 429 q 336 446 335 440 q 347 521 347 488 q 339 553 347 535 q 310 572 331 572 q 285 557 297 572 q 250 482 269 536 q 217 331 217 386 q 222 303 217 313 q 236 293 229 293 q 274 315 256 293 q 303 357 293 338 q 312 400 318 385 q 290 415 306 415 q 277 413 283 415 q 269 408 271 411 q 275 419 271 414 q 284 428 278 424 q 300 433 290 432 q 322 429 315 435 q 335 417 329 424 q 340 393 340 406 q 339 381 340 388 z "},"Q":{"ha":686,"x_min":3,"x_max":811,"o":"m 367 1 q 235 47 290 1 q 143 159 179 92 q 90 304 107 226 q 72 447 72 382 l 72 450 q 48 490 69 475 q 3 490 26 504 q 22 522 8 511 q 51 533 36 532 q 79 528 65 535 q 99 510 93 522 q 94 537 101 526 q 79 550 86 547 q 119 682 92 619 q 185 791 147 744 q 270 865 224 838 q 367 892 317 892 q 448 866 415 892 q 500 803 481 840 l 500 808 q 531 870 501 854 q 597 875 560 886 q 571 858 575 875 q 572 820 567 842 q 586 779 578 799 q 597 754 594 760 q 624 676 611 718 q 644 594 638 633 q 661 447 661 525 q 638 274 661 356 q 575 133 615 193 q 481 37 535 72 q 367 1 428 1 m 367 858 q 297 826 329 858 q 239 738 264 793 q 200 607 214 682 q 186 447 186 532 q 200 286 186 361 q 239 156 214 211 q 297 67 264 100 q 367 35 329 35 q 440 71 406 35 q 499 167 475 107 q 537 306 524 228 q 547 471 550 385 q 558 528 556 492 q 546 624 561 565 q 547 599 547 608 q 547 589 547 590 q 543 539 547 564 q 529 489 538 513 q 507 443 521 465 q 456 382 485 407 q 399 350 428 357 q 350 346 371 343 q 314 357 329 349 q 289 377 299 365 q 275 401 279 389 q 267 446 267 421 q 279 492 268 471 q 313 527 290 514 q 369 536 335 540 q 344 518 350 532 q 343 490 339 504 q 360 464 347 475 q 393 453 374 453 q 439 467 419 453 q 472 501 458 479 q 492 546 485 522 q 503 593 500 569 q 506 635 506 617 q 501 681 506 644 q 481 757 496 718 q 440 827 467 796 q 367 858 413 858 m 713 15 q 763 -2 743 13 q 793 -36 782 -17 q 808 -78 804 -56 q 810 -119 811 -100 q 790 -178 807 -149 q 739 -229 772 -208 q 656 -259 706 -250 q 538 -256 606 -268 q 470 -233 501 -250 q 410 -194 439 -217 q 353 -149 381 -172 q 299 -110 325 -126 q 220 -87 258 -85 q 174 -121 182 -89 q 172 -156 168 -142 q 184 -181 176 -171 q 199 -194 192 -190 q 208 -200 207 -199 q 162 -173 182 -200 q 142 -108 142 -146 q 167 -42 142 -69 q 232 -7 192 -15 q 322 -11 272 1 q 421 -64 371 -24 q 474 -114 447 -86 q 527 -167 500 -142 q 583 -209 554 -192 q 643 -228 611 -226 q 697 -220 671 -229 q 742 -196 722 -211 q 775 -160 763 -181 q 789 -119 788 -140 q 772 -53 792 -81 q 713 -25 751 -25 q 676 -33 690 -25 q 656 -53 663 -42 q 646 -75 649 -64 q 643 -90 643 -86 q 647 -112 643 -100 q 656 -133 650 -124 q 672 -147 663 -142 q 694 -151 682 -153 q 657 -169 676 -168 q 622 -160 638 -171 q 597 -131 607 -150 q 586 -89 586 -112 q 599 -37 586 -58 q 630 -4 611 -17 q 671 13 649 8 q 713 15 693 17 z "},"&":{"ha":821,"x_min":-6,"x_max":769,"o":"m 526 128 q 562 79 546 101 q 590 38 578 57 q 649 6 618 17 q 707 -11 679 -6 q 769 -19 739 -17 l 632 -19 l 600 -19 l 426 -19 q 467 -7 454 -15 q 485 11 481 1 q 485 33 490 21 q 478 44 482 39 q 469 56 474 49 q 386 1 433 22 q 276 -19 339 -19 q 160 5 210 -19 q 78 66 111 29 q 26 144 44 103 q 3 221 7 186 q 6 325 -6 275 q 40 416 17 375 q 92 488 63 457 q 153 532 122 518 q 128 572 140 553 q 106 607 117 590 q 88 685 83 644 q 115 761 92 726 q 175 818 138 796 q 256 840 213 840 q 379 793 324 840 q 403 774 389 785 q 431 754 417 763 q 458 742 444 746 q 478 747 471 739 l 401 651 q 393 639 397 643 q 345 558 369 604 q 300 460 321 511 q 404 303 349 383 q 508 154 460 222 q 535 261 533 215 q 524 338 536 307 q 493 383 513 368 q 457 400 474 399 q 439 396 447 401 q 428 383 431 390 q 428 367 425 375 q 442 354 431 358 q 409 366 419 353 q 400 397 399 379 q 415 430 401 414 q 456 450 429 446 q 499 444 476 451 q 540 416 521 436 q 572 363 560 396 q 585 281 585 329 q 569 207 585 249 q 526 128 554 165 m 263 819 q 194 788 219 819 q 164 715 169 757 q 171 684 163 706 q 195 633 179 663 q 233 568 211 604 q 279 492 254 532 q 311 557 296 526 q 340 611 326 588 q 297 635 311 610 q 303 696 283 661 q 318 680 308 683 q 338 683 328 676 q 353 706 347 689 q 354 747 358 722 q 326 796 350 772 q 263 819 301 819 m 276 10 q 379 17 333 -1 q 458 72 425 36 q 368 203 419 128 q 263 361 317 279 q 244 296 251 326 q 236 242 238 265 q 240 183 233 211 q 261 138 246 156 q 278 126 267 131 q 302 120 289 121 q 328 125 315 119 q 350 143 342 131 q 351 115 357 132 q 330 86 344 99 q 293 69 315 74 q 246 78 271 65 q 212 110 225 89 q 192 155 199 131 q 184 204 185 179 q 188 249 183 229 q 208 319 194 281 q 238 400 221 358 q 214 436 226 418 q 190 472 201 454 q 117 349 136 413 q 103 224 99 285 q 113 158 104 192 q 140 94 121 124 q 192 42 160 64 q 276 10 225 19 z "},"!":{"ha":242,"x_min":0,"x_max":207,"o":"m 104 176 l 176 89 l 104 0 l 31 89 l 104 176 m 207 817 l 207 815 q 165 788 182 810 q 149 735 149 765 l 149 328 q 140 303 146 318 q 127 271 133 288 q 115 238 121 254 q 104 214 108 222 q 93 238 100 222 q 80 271 86 254 q 67 303 74 288 q 58 328 61 318 l 58 735 q 42 788 58 765 q 0 815 25 810 l 0 817 l 58 817 l 104 817 l 149 817 l 207 817 z "},"?":{"ha":403,"x_min":-3,"x_max":346,"o":"m 138 186 l 218 93 l 138 0 l 57 93 l 138 186 m 344 682 q 343 638 346 658 q 331 597 340 618 q 302 553 321 576 q 254 503 283 531 q 223 471 246 494 q 178 426 200 447 l 178 250 q 188 219 178 231 q 200 208 192 214 l 200 207 l 165 207 l 104 207 l 69 207 l 69 208 q 78 217 74 211 q 86 228 83 222 q 92 246 92 235 l 92 467 q 154 519 122 492 q 213 575 186 546 q 256 635 239 604 q 274 700 274 667 q 244 763 274 740 q 167 785 214 785 q 94 765 126 785 q 58 722 61 746 q 61 699 56 710 q 75 684 67 689 q 93 681 83 679 q 108 696 103 683 q 115 652 124 672 q 88 622 107 632 q 46 618 69 613 q 7 653 22 624 q 1 699 -3 671 q 26 752 6 726 q 84 796 47 778 q 175 814 121 814 q 229 806 200 814 q 283 781 258 797 q 325 740 308 764 q 344 682 342 715 z "},"$":{"ha":472,"x_min":-3,"x_max":426,"o":"m 282 447 q 350 376 322 407 q 395 316 378 344 q 419 258 413 288 q 425 190 426 228 q 410 136 424 165 q 370 81 396 107 q 308 38 344 56 q 224 17 271 19 l 224 -46 q 238 -87 224 -78 q 272 -104 251 -97 l 272 -106 l 224 -106 l 186 -106 l 138 -106 l 138 -104 q 172 -87 158 -97 q 186 -46 186 -78 l 186 17 q 100 44 136 21 q 41 99 64 67 q 8 169 18 131 q 0 244 -3 207 q 18 311 3 281 q 61 360 33 342 q 18 279 26 329 q 26 180 10 229 q 83 93 43 131 q 186 50 124 56 l 186 86 l 186 388 q 157 415 171 403 q 132 438 143 428 q 82 486 101 465 q 52 525 63 507 q 40 562 42 543 q 40 606 38 581 q 58 660 44 636 q 92 701 72 685 q 137 728 113 718 q 186 740 161 738 l 186 782 q 172 824 186 814 q 138 840 158 833 l 138 842 l 186 842 l 224 842 l 272 842 l 272 840 q 238 824 251 833 q 224 782 224 814 l 224 740 q 303 722 272 738 q 349 686 333 707 q 365 643 364 665 q 356 603 365 621 q 321 572 342 578 q 282 573 300 567 q 254 595 264 579 q 253 628 244 611 q 267 613 258 615 q 285 616 276 611 q 299 631 293 621 q 303 656 304 642 q 280 693 300 679 q 224 710 260 707 l 224 650 l 224 503 q 253 476 239 489 q 282 447 267 463 m 119 643 q 138 590 119 615 q 186 536 157 564 l 186 650 l 186 708 q 142 692 164 706 q 119 643 119 678 m 224 50 q 308 94 275 57 q 340 176 340 131 q 331 216 340 194 q 304 260 321 238 q 267 307 288 283 q 224 351 246 331 l 224 86 l 224 50 z "},"=":{"ha":469,"x_min":0,"x_max":414,"o":"m 414 536 l 414 474 l 414 440 l 413 440 q 378 465 406 456 q 314 474 350 474 l 100 474 q 36 465 64 474 q 1 440 8 456 l 0 440 l 0 474 l 0 536 l 0 571 l 1 571 q 36 546 8 556 q 100 536 64 536 l 314 536 q 378 546 350 536 q 413 571 406 556 l 414 571 l 414 536 m 314 331 q 378 340 350 331 q 413 365 406 350 l 414 365 l 414 331 l 414 269 l 414 235 l 413 235 q 378 260 406 250 q 314 269 350 269 l 100 269 q 36 260 64 269 q 1 235 8 250 l 0 235 l 0 269 l 0 331 l 0 365 l 1 365 q 36 340 8 350 q 100 331 64 331 l 314 331 z "},"#":{"ha":667,"x_min":0,"x_max":617,"o":"m 600 721 q 614 693 611 710 q 606 665 617 676 q 594 659 600 660 q 581 658 588 658 q 565 661 574 658 q 574 663 568 660 q 583 674 581 667 q 572 706 590 692 q 531 719 554 719 q 514 718 524 719 q 494 710 504 717 q 473 691 483 704 q 457 653 463 678 l 435 517 l 551 517 l 501 467 l 426 467 l 403 317 l 529 317 l 479 267 l 394 267 l 368 107 q 383 40 364 69 q 431 7 401 11 l 431 4 l 351 4 l 349 4 l 319 4 l 311 4 l 229 4 l 229 7 q 258 18 242 11 q 288 40 274 25 q 315 77 303 54 q 333 136 328 100 l 356 267 l 165 267 l 140 107 q 154 40 136 69 q 203 7 172 11 l 201 4 l 124 4 l 119 4 l 92 4 l 82 4 l 0 4 l 0 7 q 30 18 14 11 q 60 40 46 25 q 87 77 75 54 q 104 136 99 100 l 126 267 l 6 267 l 56 317 l 135 317 l 161 467 l 28 467 l 78 517 l 169 517 l 194 663 q 160 738 199 738 l 158 743 l 208 743 l 224 743 l 238 743 l 242 743 l 315 743 q 345 738 331 743 q 372 721 360 732 q 386 693 383 710 q 378 665 389 676 q 365 659 372 660 q 351 658 358 658 q 336 661 344 658 q 346 663 339 660 q 356 674 353 667 q 355 690 358 682 q 343 705 351 699 q 324 715 335 711 q 301 719 313 719 q 285 718 294 719 q 265 710 275 717 q 244 691 254 704 q 228 653 233 678 l 206 517 l 399 517 l 424 663 q 389 738 428 738 l 388 743 l 436 743 l 453 743 l 467 743 l 471 743 l 543 743 q 600 721 578 743 m 389 467 l 197 467 l 174 317 l 364 317 l 389 467 z "},"J":{"ha":556,"x_min":0,"x_max":554,"o":"m 478 136 q 498 60 478 88 q 554 38 518 33 q 545 19 554 26 q 524 7 536 11 q 500 3 513 3 q 481 10 488 3 q 455 -53 474 -18 q 406 -122 436 -87 q 333 -183 375 -156 q 238 -221 292 -210 q 151 -220 193 -229 q 75 -186 108 -211 q 21 -122 42 -161 q 0 -32 0 -83 q 7 15 0 -11 q 29 63 14 40 q 69 104 44 86 q 132 128 94 122 q 200 118 168 133 q 251 71 232 103 q 265 26 263 51 q 258 -24 267 0 q 231 -65 250 -47 q 178 -83 211 -82 q 129 -71 147 -85 q 106 -37 111 -57 q 108 1 100 -18 q 136 29 115 21 q 131 2 122 14 q 153 -12 139 -10 q 191 -3 174 -17 q 206 39 208 11 q 189 81 204 63 q 142 99 174 99 q 90 85 111 99 q 55 51 68 71 q 35 9 42 32 q 29 -32 29 -14 q 44 -97 29 -68 q 81 -147 58 -126 q 133 -176 104 -167 q 189 -182 161 -186 q 270 -151 238 -176 q 324 -89 303 -125 q 354 -10 344 -53 q 367 74 364 33 l 367 821 q 347 854 364 840 q 308 868 331 868 q 267 860 288 868 q 232 837 247 851 q 208 803 217 822 q 203 761 200 783 q 225 713 206 728 q 264 699 244 699 q 298 714 286 700 q 294 744 310 728 q 322 715 318 739 q 317 676 325 690 q 258 646 303 646 q 239 650 249 646 q 270 604 253 628 q 302 553 288 581 q 327 492 317 525 q 338 417 338 458 q 310 321 338 350 q 246 285 283 292 q 180 293 206 276 q 147 328 154 310 q 142 359 140 344 q 149 385 143 374 q 163 404 154 397 q 181 411 172 411 q 167 385 168 400 q 173 357 165 369 q 195 337 181 344 q 229 333 210 329 q 285 379 272 343 q 290 465 299 415 q 256 570 282 514 q 192 679 229 626 l 192 681 q 173 713 181 693 q 165 760 165 732 q 171 799 165 776 q 192 841 176 821 q 238 876 208 861 q 313 890 267 890 l 351 890 l 478 892 l 543 892 l 543 886 q 496 860 514 878 q 478 822 478 843 l 478 550 q 453 507 453 535 q 481 529 465 524 q 510 531 496 535 q 534 517 524 528 q 549 490 544 506 q 503 490 525 504 q 478 450 481 475 l 478 136 m 424 949 l 368 1056 l 424 1161 l 479 1056 l 424 949 z "},"I":{"ha":279,"x_min":-1,"x_max":383,"o":"m 375 -215 q 381 -242 383 -228 q 369 -270 378 -257 q 346 -293 360 -283 q 315 -304 332 -303 q 244 -279 274 -304 q 194 -217 215 -254 q 157 -137 172 -179 q 129 -61 142 -94 q 108 -26 121 -39 q 83 -8 96 -14 q 59 0 71 -1 q 40 1 47 1 l 29 1 l 29 4 q 76 49 57 13 q 94 135 94 86 l 94 450 q 69 490 92 475 q 24 490 47 504 q 38 516 28 504 q 62 533 49 528 q 90 535 75 538 q 115 518 104 532 q 110 539 115 529 q 94 551 106 549 l 94 681 q 108 730 94 699 q 147 778 122 761 q 128 772 138 778 q 111 758 119 765 q 97 744 103 751 q 89 735 90 736 q 46 717 69 714 q 11 732 22 719 q 1 747 4 738 q 0 765 -1 756 q 8 781 1 774 q 25 792 14 789 q 15 770 10 783 q 31 754 19 757 q 88 769 57 749 q 151 818 119 790 q 216 872 183 846 q 279 901 249 897 q 320 897 306 906 q 341 876 335 889 q 345 850 347 864 q 338 829 343 836 q 317 817 329 819 q 294 817 306 815 q 276 825 283 819 q 271 838 269 831 q 292 835 278 829 q 304 863 307 842 q 290 878 303 874 q 260 871 278 883 q 219 805 232 851 q 206 696 206 758 l 206 7 q 208 -61 206 -17 q 222 -150 211 -106 q 254 -228 232 -194 q 314 -261 276 -261 q 360 -249 339 -261 q 375 -215 381 -236 m 167 949 l 111 1056 l 167 1161 l 222 1056 l 167 949 z "},"L":{"ha":629,"x_min":-1,"x_max":647,"o":"m 642 157 q 617 176 632 174 q 587 172 603 179 q 557 152 571 165 q 535 122 543 139 q 522 89 526 107 q 519 54 518 71 q 527 24 519 38 q 551 1 535 10 l 38 1 l 38 4 q 82 49 65 13 q 99 133 99 85 l 99 449 q 74 489 96 474 q 29 490 53 504 q 44 516 33 506 q 70 530 56 526 q 99 531 85 533 q 124 515 114 528 q 119 534 124 522 q 99 553 115 546 l 99 811 q 89 813 96 819 q 46 793 69 792 q 11 807 22 794 q 1 822 4 813 q 0 840 -1 831 q 8 856 1 849 q 25 867 14 864 q 15 844 10 858 q 31 828 19 831 q 86 844 58 824 q 142 894 114 865 q 201 947 171 922 q 261 976 231 972 q 302 972 288 979 q 323 951 317 964 q 328 926 329 939 q 319 904 326 913 q 301 892 311 894 q 282 892 290 890 q 268 900 274 894 q 264 913 263 906 q 281 909 271 904 q 292 936 292 914 q 281 953 292 947 q 253 946 271 958 q 227 913 236 933 q 214 869 218 893 q 210 821 210 846 q 210 774 210 796 l 210 133 q 231 78 210 101 q 283 45 253 54 q 343 45 313 36 q 393 88 374 54 q 404 69 401 81 q 399 42 407 57 q 471 81 438 44 q 526 167 504 117 q 553 272 547 217 q 540 367 558 326 q 511 396 531 389 q 474 399 492 403 q 445 385 456 396 q 443 361 435 375 q 410 383 419 365 q 407 420 401 400 q 431 456 413 440 q 482 471 450 471 q 547 449 519 471 q 588 388 575 426 q 598 299 601 349 q 568 193 594 249 q 607 209 590 208 q 633 201 624 210 q 645 181 643 193 q 642 157 647 168 z "},"S":{"ha":613,"x_min":0,"x_max":564,"o":"m 189 775 q 226 683 189 728 q 317 592 264 639 q 401 516 357 556 q 481 433 444 476 q 540 340 517 389 q 564 233 564 290 q 544 147 564 189 q 492 74 525 106 q 418 22 460 42 q 331 1 376 1 l 0 1 q 97 135 56 67 q 158 261 138 203 q 174 363 178 319 q 139 425 171 407 q 97 433 115 438 q 68 417 79 429 q 56 388 57 404 q 65 358 54 371 q 38 365 51 356 q 16 390 24 374 q 10 428 8 407 q 29 468 11 449 q 91 499 56 496 q 158 488 126 503 q 211 441 190 472 q 231 368 232 410 q 206 281 228 326 q 156 176 185 235 q 147 144 150 165 q 151 99 143 122 q 185 59 160 76 q 264 40 211 42 q 334 51 301 40 q 391 85 367 63 q 429 140 415 107 q 443 218 443 174 q 424 296 443 257 q 375 371 404 335 q 312 440 346 407 q 247 501 278 474 q 213 531 232 514 q 174 567 194 547 q 133 608 153 586 q 99 653 114 629 q 46 710 75 696 q 4 707 17 725 q 12 740 3 728 q 35 758 21 753 q 67 759 50 763 q 99 744 85 756 q 92 763 100 751 q 71 778 83 775 q 102 831 82 807 q 149 872 122 854 q 206 900 175 890 q 268 911 236 910 q 342 902 317 913 q 376 892 367 892 q 423 918 404 893 q 444 974 442 943 q 446 961 446 968 q 446 947 446 954 q 447 929 446 939 q 440 893 446 914 q 418 867 435 872 q 431 849 421 864 q 448 813 440 833 q 456 769 456 792 q 440 725 456 746 q 397 696 421 701 q 352 698 372 690 q 322 725 332 706 q 319 769 311 744 q 335 751 325 754 q 356 753 346 747 q 372 774 365 760 q 379 804 379 788 q 352 862 379 842 q 281 879 325 882 q 251 871 267 878 q 221 851 235 864 q 198 819 207 838 q 189 775 189 800 z "},"Z":{"ha":558,"x_min":19,"x_max":810,"o":"m 799 -76 q 798 -168 810 -131 q 762 -229 786 -206 q 706 -263 738 -253 q 649 -274 675 -274 q 524 -246 582 -274 q 413 -179 467 -218 q 310 -99 360 -140 q 210 -33 260 -58 q 140 -24 169 -14 q 90 -51 110 -33 q 72 -76 79 -62 q 65 -103 65 -90 q 70 -124 64 -115 q 93 -135 76 -133 q 67 -137 78 -142 q 49 -122 56 -132 q 41 -101 43 -112 q 42 -81 39 -89 q 54 -46 43 -62 l 251 378 q 201 404 231 403 q 145 391 171 406 q 106 352 119 376 q 106 303 92 328 q 84 301 94 297 q 65 315 74 306 q 53 338 57 325 q 50 365 49 351 q 83 427 53 406 q 151 451 113 449 q 228 439 190 454 q 283 390 265 424 q 284 407 285 393 q 274 433 283 421 l 406 744 q 424 822 425 796 q 393 847 424 847 l 183 847 q 126 829 147 847 q 94 785 104 811 q 88 753 89 769 q 89 724 86 738 q 101 702 92 711 q 129 693 111 693 q 151 701 142 693 q 160 724 160 708 q 168 702 167 715 q 164 677 169 689 q 145 657 158 665 q 110 649 132 649 q 51 670 72 649 q 24 724 29 692 q 30 792 19 756 q 67 861 40 829 q 56 876 60 869 q 51 891 53 883 q 50 908 50 899 q 49 931 50 917 q 87 902 61 910 q 136 892 113 894 l 593 892 l 360 349 q 488 335 439 322 q 543 393 538 349 q 536 320 556 343 q 483 293 517 297 q 410 298 449 289 q 349 321 372 307 l 210 18 q 317 -12 263 15 q 428 -73 372 -40 q 538 -132 483 -106 q 647 -158 593 -158 q 751 -136 719 -158 q 799 -76 782 -114 z "},"C":{"ha":731,"x_min":0,"x_max":779,"o":"m 581 -61 q 630 -65 603 -60 q 681 -84 657 -71 q 719 -118 704 -97 q 735 -167 735 -139 q 722 -203 735 -190 q 694 -220 710 -217 q 663 -217 678 -224 q 642 -193 647 -211 q 658 -202 649 -200 q 676 -202 668 -204 q 691 -192 685 -200 q 697 -171 697 -185 q 666 -117 697 -136 q 592 -87 635 -97 q 503 -73 549 -78 q 429 -62 458 -68 q 278 1 344 -46 q 165 117 211 49 q 95 271 119 186 q 71 450 71 356 q 65 470 72 460 q 48 488 58 481 q 25 496 38 494 q 0 490 13 497 q 32 530 7 521 q 79 531 57 539 q 92 523 86 528 q 101 504 97 518 q 101 523 101 507 q 82 550 100 539 q 138 703 100 631 q 233 825 175 775 q 367 896 290 875 q 539 894 443 917 q 599 878 569 888 q 657 863 628 868 q 716 861 686 857 q 779 885 746 865 l 753 863 q 698 806 732 843 q 626 719 664 768 q 553 612 589 669 q 495 496 518 554 q 467 382 472 438 q 486 279 463 326 q 518 249 499 254 q 550 251 538 243 q 560 269 561 258 q 549 286 560 279 q 574 278 564 288 q 588 256 585 269 q 584 228 590 243 q 561 203 578 213 q 516 194 542 192 q 468 216 490 197 q 432 269 446 235 q 421 357 418 304 q 437 444 422 400 q 472 531 451 489 q 515 609 492 572 q 561 675 539 646 q 533 666 544 667 q 512 668 521 665 q 497 676 503 671 q 490 685 492 682 q 481 710 481 699 q 486 731 481 722 q 499 743 492 739 q 514 747 507 747 q 504 738 507 744 q 503 726 501 732 q 511 715 504 719 q 531 711 518 711 q 579 735 563 714 q 597 782 596 757 q 583 830 597 807 q 539 857 568 853 q 419 851 472 868 q 327 799 367 833 q 260 718 288 765 q 215 622 232 671 q 190 525 197 572 q 182 444 182 478 q 204 240 182 325 q 263 99 226 156 q 347 11 299 43 q 446 -35 394 -21 q 503 -43 472 -42 q 559 -38 533 -44 q 602 -19 585 -32 q 619 13 619 -7 q 608 40 619 31 q 582 47 597 49 q 607 60 593 58 q 633 58 621 63 q 654 41 646 53 q 663 13 663 29 q 635 -38 663 -19 q 581 -61 608 -57 z "},":":{"ha":233,"x_min":0,"x_max":147,"o":"m 147 601 l 74 517 l 0 601 l 74 686 l 147 601 m 0 221 l 74 306 l 147 221 l 74 136 l 0 221 z "},"w":{"ha":764,"x_min":-7,"x_max":783,"o":"m 701 714 q 783 715 738 714 l 782 710 q 735 690 754 703 q 713 663 717 678 l 579 157 q 588 94 572 121 q 626 60 604 67 l 626 58 l 456 58 q 418 72 435 58 q 413 110 401 85 q 424 124 417 121 q 440 127 432 128 q 456 122 449 126 q 463 111 463 117 q 444 110 450 117 q 438 94 439 104 q 447 78 436 85 q 469 81 457 72 q 484 99 483 88 q 482 125 485 110 q 451 221 471 160 q 413 354 432 282 q 374 251 393 301 q 339 153 354 200 q 334 113 331 129 q 346 85 338 96 q 365 70 354 75 q 385 65 376 65 l 385 58 l 200 58 q 164 72 181 58 q 157 110 147 85 q 169 124 161 121 q 186 127 178 128 q 201 122 194 126 q 208 111 207 117 q 189 110 194 117 q 182 94 183 104 q 192 78 181 85 q 215 81 203 72 q 231 110 231 89 q 228 147 231 132 l 111 643 q 93 673 106 663 q 68 687 81 683 q 45 687 56 690 q 33 675 35 683 q 35 662 31 667 q 58 657 40 657 q 51 647 58 651 q 35 643 44 643 q 17 647 26 643 q 3 661 8 650 q 6 695 -7 682 q 39 711 19 708 l 254 714 l 256 708 q 215 661 208 696 l 317 222 q 354 316 332 265 q 392 413 376 367 q 365 499 379 460 q 342 564 350 538 q 337 644 326 611 q 371 696 347 678 q 425 717 394 714 q 480 708 456 721 q 515 667 504 696 q 510 596 525 639 q 501 573 506 583 q 492 551 497 563 q 483 527 488 540 q 471 496 478 514 q 491 433 479 469 q 516 359 503 397 q 540 287 529 321 q 558 231 551 253 l 664 632 q 656 672 665 658 q 635 691 647 686 q 613 691 624 696 q 603 675 603 686 q 607 662 603 667 q 628 657 611 657 q 619 647 626 651 q 603 642 613 643 q 586 646 594 642 q 574 661 578 650 q 581 699 565 685 q 617 714 596 714 l 701 714 m 438 601 q 440 590 439 593 q 443 583 442 586 q 447 574 444 579 q 453 556 449 568 q 463 583 461 578 q 471 603 465 589 q 476 657 483 636 q 456 681 468 678 q 435 665 444 683 q 438 601 426 646 z "},"%":{"ha":651,"x_min":0,"x_max":617,"o":"m 610 721 q 614 693 617 710 q 597 665 611 676 q 583 659 590 660 q 569 658 576 658 q 554 661 563 658 q 565 663 557 660 q 578 674 574 667 q 576 706 590 692 q 539 719 563 719 q 519 718 532 719 q 492 708 507 717 q 462 681 478 700 q 431 628 446 663 l 431 629 l 175 100 q 170 37 161 64 q 207 7 179 10 l 207 4 l 124 4 l 90 4 l 0 4 l 0 7 q 33 18 14 11 q 71 40 51 25 q 110 77 90 54 q 146 136 129 100 l 406 663 q 394 738 436 738 l 396 743 l 444 743 l 468 743 l 475 743 l 485 743 l 560 743 q 588 738 575 743 q 610 721 601 732 m 161 458 q 119 469 139 458 q 85 500 100 481 q 63 545 71 519 q 54 600 54 571 q 63 656 54 629 q 85 701 71 682 q 119 732 100 721 q 161 743 139 743 q 236 701 206 743 q 267 600 267 660 q 258 545 267 571 q 235 500 250 519 q 202 469 221 481 q 161 458 183 458 m 161 732 q 123 694 133 732 q 113 600 113 656 q 123 508 113 546 q 161 469 133 469 q 199 508 189 469 q 210 600 210 546 q 199 694 210 656 q 161 732 189 732 m 431 285 q 472 274 453 285 q 505 243 490 263 q 528 198 519 224 q 536 143 536 172 q 506 42 536 83 q 431 0 475 0 q 389 11 408 0 q 355 42 369 22 q 332 88 340 61 q 324 143 324 114 q 332 198 324 172 q 355 243 340 224 q 389 274 369 263 q 431 285 408 285 m 431 11 q 469 49 458 11 q 479 143 479 88 q 469 236 479 197 q 431 275 458 275 q 392 236 403 275 q 382 143 382 197 q 392 49 382 88 q 431 11 403 11 z "},"d":{"ha":556,"x_min":-3,"x_max":531,"o":"m 531 385 q 519 284 531 333 q 487 194 508 235 q 435 124 465 154 q 368 81 406 94 q 390 67 379 72 q 413 60 401 63 l 413 58 l 340 58 l 275 58 l 268 58 q 235 80 249 60 q 228 119 221 100 q 252 140 236 140 q 268 125 268 139 q 256 128 261 131 q 249 121 251 126 q 247 108 247 115 q 251 97 247 101 q 272 92 256 92 q 307 101 288 92 q 355 142 333 114 q 390 208 376 169 q 412 291 404 246 q 419 385 419 336 q 406 500 419 446 q 369 594 393 554 q 315 658 346 635 q 249 681 283 681 l 214 681 l 214 58 l 49 58 q 27 62 38 58 q 10 72 17 65 q 0 88 3 79 q 3 110 -3 97 q 17 124 8 119 q 35 128 26 128 q 51 124 44 128 q 58 115 58 121 q 35 109 40 114 q 33 94 31 104 q 43 84 35 88 q 63 84 51 81 q 86 99 75 88 q 103 131 97 110 l 103 642 q 86 672 97 661 q 63 687 75 683 q 43 687 51 690 q 33 675 35 683 q 35 662 31 667 q 58 657 40 657 q 51 647 58 651 q 35 643 44 643 q 17 647 26 643 q 3 661 8 650 q 0 682 -3 672 q 10 699 3 692 q 27 710 17 706 q 49 714 38 714 l 382 714 l 382 707 q 358 697 368 707 q 426 652 394 682 q 481 581 458 622 q 517 490 504 540 q 531 385 531 440 z "},"m":{"ha":664,"x_min":-7,"x_max":618,"o":"m 618 708 q 577 685 593 701 q 561 653 561 668 l 561 149 q 576 90 561 113 q 614 60 590 67 l 614 58 l 390 58 q 357 68 372 58 q 342 94 342 78 q 348 112 342 104 q 363 124 354 119 q 381 126 371 128 q 400 115 392 125 q 375 99 378 114 q 379 88 374 93 q 397 83 385 83 q 438 107 426 86 q 450 157 450 128 l 450 647 l 336 433 l 381 332 q 390 237 400 274 q 356 182 381 200 q 300 163 332 164 q 244 178 268 163 q 210 222 219 193 q 221 293 201 251 l 256 365 l 147 633 l 147 157 q 164 94 147 121 q 206 60 181 67 l 206 58 l 49 58 q 27 62 38 58 q 10 72 17 65 q 0 88 3 79 q 3 110 -3 97 q 17 125 8 121 q 35 129 26 129 q 51 125 44 129 q 58 115 58 121 q 35 109 40 114 q 33 94 31 104 q 43 85 35 88 q 63 84 51 82 q 85 94 74 86 q 106 117 97 101 l 106 656 q 85 677 97 669 q 63 687 74 685 q 43 686 51 689 q 33 676 35 683 q 35 663 31 668 q 58 657 40 657 q 51 647 58 651 q 35 643 44 643 q 17 647 26 643 q 3 661 8 650 q 5 698 -7 682 q 40 714 17 714 l 221 714 l 319 471 l 451 714 l 618 714 l 618 708 m 274 329 l 249 275 q 244 226 233 243 q 270 207 254 208 q 298 221 286 206 q 297 271 310 236 l 274 329 z "},"x":{"ha":664,"x_min":-6,"x_max":626,"o":"m 626 58 l 369 58 q 333 72 349 58 q 326 110 317 85 q 338 124 331 121 q 354 127 346 128 q 369 122 363 126 q 376 111 376 117 q 358 110 364 117 q 351 94 353 104 q 361 78 350 85 q 383 81 372 72 q 402 109 401 90 q 394 143 403 128 l 292 350 l 200 150 q 199 90 188 117 q 239 60 210 64 l 236 58 l 160 58 l 157 58 l 119 58 l 40 58 q 8 74 21 61 q 3 110 -6 88 q 15 124 7 121 q 32 127 24 128 q 47 122 40 126 q 53 111 53 117 q 28 94 25 122 q 49 76 31 82 q 92 81 67 69 q 172 175 139 100 l 269 392 l 142 657 q 117 678 131 671 q 92 688 104 686 q 70 685 79 689 q 60 675 61 682 q 85 657 57 657 q 78 647 85 651 q 63 643 71 643 q 45 647 54 643 q 32 661 36 650 q 37 699 19 685 q 75 714 54 714 l 278 714 l 279 708 q 250 694 260 701 q 243 675 240 688 l 325 508 l 386 642 q 390 654 389 649 q 393 665 392 660 q 385 688 393 681 q 368 694 378 694 q 350 689 358 694 q 342 675 342 683 q 345 662 342 667 q 367 657 349 657 q 360 647 367 651 q 344 643 353 643 q 326 647 335 643 q 311 661 317 650 q 308 682 306 672 q 318 699 311 692 q 335 710 325 706 q 357 714 346 714 l 553 714 l 553 703 q 524 701 540 703 q 489 693 507 700 q 453 671 471 686 q 419 628 435 656 l 347 469 l 504 144 q 527 113 513 126 q 558 88 542 99 q 592 69 575 76 q 624 60 610 63 l 626 58 z "},"+":{"ha":444,"x_min":0,"x_max":399,"o":"m 399 367 l 399 332 l 397 332 q 377 357 393 347 q 339 367 361 367 l 231 367 l 231 233 q 240 188 231 207 q 264 164 249 169 l 231 164 l 231 163 l 168 163 l 168 164 l 133 164 q 158 188 149 169 q 168 233 168 207 l 168 367 l 60 367 q 22 357 38 367 q 1 332 6 347 l 0 332 l 0 367 l 0 428 l 0 463 l 1 463 q 22 438 6 447 q 60 428 38 428 l 168 428 l 168 561 q 158 606 168 588 q 133 631 149 625 l 133 632 l 168 632 l 231 632 l 264 632 l 264 631 q 240 606 249 625 q 231 561 231 588 l 231 428 l 339 428 q 377 438 361 428 q 397 463 393 447 l 399 463 l 399 428 l 399 367 z "},"/":{"ha":367,"x_min":0,"x_max":392,"o":"m 392 744 q 344 716 371 739 q 303 632 317 693 l 163 103 q 172 40 157 67 q 215 8 188 13 l 215 7 l 125 7 l 90 7 l 0 7 l 0 8 q 30 19 14 13 q 63 41 46 26 q 94 78 79 56 q 118 138 108 101 l 263 665 q 262 698 265 683 q 251 724 258 713 q 235 744 244 736 l 293 744 l 317 744 l 322 744 l 333 744 l 392 744 z "},"a":{"ha":546,"x_min":-7,"x_max":519,"o":"m 296 58 l 288 58 q 267 62 278 58 q 250 72 257 65 q 241 88 243 79 q 244 110 239 97 q 258 124 250 119 q 276 128 267 128 q 292 124 285 128 q 300 115 299 121 q 276 109 282 114 q 272 94 271 104 q 283 84 274 88 q 303 84 292 81 q 326 97 315 88 q 343 125 336 107 q 344 167 349 144 q 338 213 340 190 q 306 180 325 186 q 272 180 288 174 q 250 199 257 186 q 256 226 243 213 q 258 208 251 214 q 272 201 264 201 q 289 206 281 200 q 297 225 297 213 q 288 246 297 238 q 267 258 279 254 q 242 263 254 263 q 221 260 229 264 q 177 222 193 246 q 155 174 161 199 q 150 124 149 149 q 158 86 151 100 q 174 69 165 76 q 194 58 183 61 l 40 58 q 7 75 21 61 q 3 110 -7 89 q 17 124 8 119 q 35 128 26 128 q 51 124 44 128 q 58 115 58 121 q 40 108 46 114 q 33 96 33 103 q 38 84 33 89 q 51 81 43 79 q 86 101 67 83 q 106 142 106 118 q 115 258 110 189 q 127 400 121 326 q 140 543 133 474 q 150 661 146 613 q 144 677 151 671 q 128 685 138 683 q 113 679 119 686 q 108 658 107 672 q 99 692 90 674 q 142 714 108 711 l 418 714 q 459 692 451 711 q 451 658 467 674 q 447 679 453 672 q 431 685 440 686 q 408 661 408 682 q 419 543 413 613 q 431 400 425 474 q 443 258 438 326 q 453 142 449 189 q 474 92 456 118 q 519 58 493 65 l 296 58 m 153 229 q 182 272 160 254 q 233 295 204 289 q 289 294 261 301 q 333 265 317 288 q 324 378 329 318 q 313 496 318 439 q 304 601 308 553 q 297 678 300 649 l 297 681 l 190 681 l 190 678 q 183 589 188 643 q 174 472 179 535 q 163 346 168 410 q 153 229 157 282 z "},"y":{"ha":567,"x_min":-7,"x_max":593,"o":"m 593 714 l 592 708 q 541 689 563 701 q 511 661 519 676 l 381 357 l 382 157 q 397 94 382 121 q 438 60 413 67 l 438 58 l 214 58 q 176 72 192 58 q 169 110 160 85 q 182 124 174 121 q 199 127 190 128 q 213 122 207 126 q 219 111 219 117 q 202 110 207 117 q 199 94 197 104 q 209 82 200 86 q 229 81 218 78 q 251 94 240 83 q 268 128 263 104 q 270 143 269 136 q 271 157 271 150 l 271 311 l 122 653 q 98 676 113 668 q 69 687 83 685 q 45 685 56 689 q 33 675 35 682 q 35 662 31 667 q 58 657 40 657 q 51 647 58 651 q 35 643 44 643 q 17 647 26 643 q 3 661 8 650 q 8 698 -7 682 q 38 714 22 714 l 272 714 l 274 708 q 242 691 254 701 q 233 668 231 681 l 356 389 l 469 657 q 469 684 475 675 q 455 694 464 693 q 437 690 446 696 q 428 675 428 685 q 432 662 428 667 q 454 657 436 657 q 446 647 453 651 q 430 643 439 643 q 413 647 421 643 q 399 661 404 650 q 400 699 388 683 q 436 714 413 714 l 593 714 z "},"h":{"ha":628,"x_min":-3,"x_max":601,"o":"m 601 713 q 553 665 563 701 q 544 581 544 628 l 544 110 q 560 82 544 94 q 601 63 576 69 l 601 57 l 544 57 l 433 58 l 375 58 l 375 64 q 417 83 401 71 q 433 111 433 96 l 433 214 q 411 253 426 231 q 377 297 396 276 q 337 331 358 317 q 297 344 315 344 q 261 333 276 344 q 244 300 246 321 q 250 281 244 293 q 271 268 256 269 q 288 272 282 267 q 294 283 293 276 q 294 301 296 290 q 308 285 304 296 q 308 263 311 274 q 294 245 304 253 q 265 238 283 238 q 237 248 247 238 q 219 274 226 258 l 219 157 q 236 94 219 121 q 276 60 253 67 l 276 58 l 219 58 l 108 60 l 49 60 q 27 63 38 60 q 10 74 17 67 q 0 90 3 81 q 3 111 -3 99 q 17 126 8 122 q 35 131 26 131 q 51 126 44 131 q 58 117 58 122 q 35 110 40 115 q 33 96 31 106 q 44 85 35 89 q 67 85 54 82 q 91 99 79 89 q 108 128 103 108 l 108 646 q 91 674 103 664 q 67 688 79 685 q 44 689 54 692 q 33 678 35 686 q 35 664 31 669 q 58 658 40 658 q 51 649 58 653 q 35 644 44 644 q 17 648 26 644 q 3 663 8 651 q 0 683 -3 674 q 10 700 3 693 q 27 711 17 707 q 49 715 38 715 l 108 715 l 219 714 l 276 714 l 276 708 q 235 689 251 701 q 219 661 219 676 l 219 344 q 253 382 229 368 q 303 393 276 396 q 372 360 335 390 q 433 268 410 331 l 433 615 q 425 663 433 642 q 406 681 417 675 q 384 689 394 688 q 366 688 374 690 q 357 678 358 685 q 360 663 356 668 q 382 657 365 658 q 375 647 382 651 q 360 643 368 643 q 342 647 351 643 q 328 663 333 651 q 333 700 315 686 q 372 714 350 714 l 601 714 l 601 713 l 601 713 z "},"n":{"ha":617,"x_min":-3,"x_max":567,"o":"m 567 58 l 358 58 l 358 61 q 384 71 372 64 q 397 85 396 78 l 144 614 l 144 126 q 165 87 144 107 q 210 60 185 67 l 210 58 l 49 58 q 27 62 38 58 q 10 72 17 65 q 0 88 3 79 q 3 110 -3 97 q 17 125 8 121 q 35 129 26 129 q 51 125 44 129 q 58 115 58 121 q 37 114 43 121 q 33 97 31 107 q 46 88 35 90 q 70 88 57 85 q 94 99 83 90 q 104 125 104 108 l 104 656 q 85 677 96 669 q 63 687 74 685 q 43 686 51 689 q 33 676 35 683 q 35 663 31 668 q 58 657 40 657 q 51 647 58 651 q 35 643 44 643 q 17 647 26 643 q 3 661 8 650 q 0 682 -3 672 q 10 699 3 692 q 26 710 17 706 q 47 714 36 714 l 265 714 l 265 711 q 240 701 251 708 q 226 688 228 694 l 469 185 l 468 615 q 451 678 468 651 q 410 711 435 704 l 410 714 l 565 714 l 565 711 q 524 678 540 704 q 508 615 508 651 l 508 142 q 527 89 511 110 q 567 61 543 68 l 567 58 z "},"z":{"ha":557,"x_min":-12,"x_max":519,"o":"m 478 197 q 490 205 488 197 q 490 221 493 213 q 479 235 488 229 q 458 236 471 240 q 440 215 446 232 q 438 172 433 197 q 458 117 442 147 q 508 58 475 88 l 47 58 q 6 72 25 58 q -3 110 -12 85 q 10 124 1 121 q 26 127 18 128 q 39 122 33 126 q 44 111 44 117 q 31 111 36 115 q 24 101 25 107 q 26 88 22 94 q 42 82 31 82 q 69 103 54 82 l 203 418 q 187 431 193 426 q 172 443 181 436 q 137 453 153 456 q 111 441 121 451 q 100 415 101 431 q 107 389 99 400 q 95 405 100 393 q 92 436 90 417 q 101 465 93 451 q 121 489 108 479 q 148 504 133 499 q 176 510 163 510 q 202 504 190 510 q 231 486 214 499 l 306 668 q 303 677 307 674 q 296 681 300 681 l 138 681 q 90 658 110 681 q 58 606 69 635 q 44 553 46 578 q 53 526 42 529 q 64 529 61 522 q 67 536 65 532 q 67 521 68 526 q 44 506 64 506 q 21 523 26 506 q 22 564 15 540 q 47 657 33 608 q 69 742 60 706 l 71 742 q 77 722 71 729 q 92 714 83 714 l 435 714 l 314 419 q 351 390 333 403 q 382 376 368 376 q 408 385 400 376 q 418 404 417 393 q 415 426 419 415 q 400 439 410 436 q 428 418 421 436 q 428 378 435 400 q 402 340 422 357 q 349 322 382 322 q 331 326 342 322 q 285 350 319 331 l 206 157 q 226 90 175 90 l 275 90 q 340 92 313 90 q 382 100 367 93 q 401 123 397 107 q 397 167 406 139 q 394 178 396 171 q 394 197 393 186 q 399 221 394 208 q 414 246 403 233 q 439 264 425 258 q 468 269 453 269 q 508 255 496 269 q 518 224 519 240 q 506 199 517 208 q 478 197 494 189 z "},"o":{"ha":611,"x_min":0,"x_max":551,"o":"m 551 385 q 513 202 551 283 q 401 83 474 121 q 442 65 413 65 l 451 65 l 451 58 l 68 58 q 49 62 58 58 q 32 72 39 65 q 22 88 25 79 q 25 110 19 97 q 38 124 29 119 q 55 128 46 128 q 72 124 64 128 q 81 115 79 121 q 59 111 65 118 q 53 94 53 104 q 65 78 53 85 q 92 71 76 72 q 126 73 108 69 q 157 85 144 76 q 94 135 122 104 q 44 204 65 165 q 12 289 24 243 q 0 385 0 335 q 44 567 0 486 q 157 686 88 647 q 126 698 144 694 q 92 700 108 701 q 65 692 76 699 q 53 676 53 686 q 59 660 53 667 q 81 657 65 654 q 72 647 79 651 q 55 643 64 643 q 38 647 46 643 q 25 661 29 651 q 22 683 19 674 q 32 700 25 693 q 49 710 39 707 q 68 714 58 714 l 451 714 l 451 707 l 442 707 q 417 701 428 707 q 401 689 407 696 q 513 570 474 651 q 551 385 551 489 m 279 83 q 342 107 313 83 q 393 172 371 131 q 428 267 415 213 q 440 385 440 322 q 430 490 440 442 q 401 579 419 539 q 408 505 410 549 q 394 422 407 461 q 354 354 381 382 q 285 326 328 326 q 219 347 240 326 q 196 390 199 367 q 207 440 193 418 q 246 456 221 461 q 231 438 233 450 q 232 419 229 426 q 253 389 239 397 q 286 382 268 381 q 327 397 307 385 q 358 426 347 408 q 386 536 386 471 q 381 589 386 564 q 365 633 375 614 q 354 651 360 644 q 342 665 349 658 q 279 689 310 689 q 216 665 246 689 q 163 600 186 642 q 126 503 140 558 q 113 385 113 447 q 126 267 113 322 q 163 172 140 213 q 216 107 186 131 q 279 83 246 83 z "},"b":{"ha":576,"x_min":-8,"x_max":519,"o":"m 319 426 q 295 429 307 431 q 274 422 283 428 q 260 407 264 417 q 260 383 256 397 q 246 409 247 394 q 251 436 244 424 q 274 456 258 449 q 311 461 290 464 q 333 478 321 467 q 356 505 346 490 q 372 538 365 519 q 379 574 379 556 q 372 615 379 596 q 351 649 364 635 q 324 672 339 664 q 296 681 310 681 l 215 681 l 215 58 l 49 58 q 27 62 38 58 q 10 72 17 65 q 0 88 3 79 q 3 110 -3 97 q 17 124 8 119 q 35 128 26 128 q 51 124 44 128 q 58 115 58 121 q 33 94 26 114 q 44 83 35 86 q 64 84 53 81 q 87 99 75 88 q 104 131 99 110 l 104 642 q 88 673 99 663 q 65 687 76 683 q 44 687 53 690 q 33 675 35 683 q 58 657 26 657 q 51 647 58 651 q 35 643 44 643 q 17 647 26 643 q 3 661 8 650 q 10 699 -8 683 q 49 714 28 714 l 419 714 l 419 707 q 386 685 392 707 q 440 646 418 679 q 463 568 463 613 q 436 485 463 519 q 374 450 410 450 l 374 449 q 478 386 436 439 q 519 258 519 333 q 488 145 519 194 q 410 76 457 96 q 449 60 428 63 l 449 58 l 281 58 q 260 62 269 58 q 243 72 250 65 q 234 88 236 79 q 238 110 232 97 q 268 128 249 129 q 292 115 290 125 q 269 109 274 114 q 265 94 264 104 q 287 84 268 85 q 325 90 306 83 l 325 92 q 344 100 331 92 q 372 127 358 108 q 397 176 386 146 q 407 250 407 206 q 399 320 407 289 q 377 374 390 351 q 349 409 364 396 q 319 426 333 422 z "},"q":{"ha":590,"x_min":0,"x_max":543,"o":"m 315 174 q 315 156 318 167 q 296 143 311 144 q 298 162 306 156 q 282 165 290 168 q 267 142 267 160 q 280 117 267 129 q 313 107 293 106 q 368 145 346 111 q 405 224 390 179 q 426 313 419 268 q 432 385 432 357 q 422 492 432 443 q 393 582 411 542 q 403 491 404 538 q 388 406 401 444 q 346 341 374 367 q 276 314 318 315 q 212 336 232 313 q 190 388 192 360 q 202 437 189 415 q 238 453 215 458 q 228 430 229 443 q 232 406 226 417 q 249 387 238 394 q 278 382 261 379 q 324 399 304 385 q 355 436 343 414 q 372 484 367 458 q 378 535 378 510 q 372 585 378 558 q 354 635 367 613 q 322 674 342 658 q 271 689 301 689 q 188 644 228 689 q 132 536 153 604 q 111 385 111 468 q 121 284 111 336 q 153 186 131 232 q 214 106 176 140 q 307 58 251 71 l 271 58 q 247 59 258 58 q 225 63 236 60 q 268 31 247 50 q 310 -4 289 13 q 357 -33 332 -21 q 413 -47 382 -46 q 469 -28 447 -44 q 493 22 492 -11 q 483 52 494 43 q 457 60 471 61 q 440 49 446 58 q 440 25 433 40 q 425 40 429 29 q 424 63 421 51 q 439 81 428 74 q 469 86 450 89 q 504 64 489 83 q 517 11 519 44 q 496 -35 513 -15 q 457 -69 479 -56 q 410 -90 435 -83 q 365 -97 386 -97 q 310 -87 336 -97 q 263 -63 285 -78 q 222 -33 242 -49 q 183 -3 201 -17 q 133 23 154 17 q 95 26 111 29 q 70 13 79 24 q 60 -11 61 3 q 69 -49 57 -35 q 92 -67 81 -64 q 110 -64 103 -69 q 122 -51 118 -58 q 126 -35 126 -43 q 118 -25 125 -28 q 137 -19 128 -18 q 151 -26 146 -21 q 156 -42 156 -32 q 151 -61 157 -51 q 122 -81 140 -78 q 90 -81 103 -83 q 58 -53 68 -72 q 47 -11 47 -35 q 48 1 47 -8 q 53 22 49 10 q 69 48 58 35 q 103 72 81 61 q 128 79 113 75 q 167 81 143 83 q 46 199 92 117 q 0 385 0 281 q 44 569 0 489 q 160 686 89 649 q 130 698 147 694 q 97 699 113 701 q 69 691 81 697 q 58 675 58 685 q 64 660 58 667 q 85 657 69 654 q 76 647 83 651 q 60 643 69 643 q 43 647 51 643 q 31 661 35 650 q 28 683 25 674 q 38 700 31 693 q 54 710 44 707 q 74 714 64 714 l 432 714 l 432 706 q 422 707 429 707 q 398 701 408 707 q 382 689 388 696 q 499 570 454 651 q 543 385 543 489 q 529 278 543 329 q 490 187 515 228 q 431 116 465 146 q 357 72 397 86 q 308 72 329 67 q 270 87 286 76 q 246 112 254 97 q 238 142 238 126 q 252 176 240 161 q 282 192 264 190 q 304 188 296 194 q 315 174 313 182 z "},"p":{"ha":524,"x_min":-3,"x_max":507,"o":"m 325 714 q 383 704 353 714 q 439 672 413 694 q 483 616 465 650 q 503 532 500 582 q 488 419 507 461 q 442 357 469 378 q 385 331 415 336 q 335 325 356 325 q 292 338 311 325 q 263 368 274 350 q 255 407 253 386 q 278 446 257 428 q 271 431 274 442 q 272 408 268 419 q 288 388 275 396 q 326 379 300 379 q 368 396 351 379 q 393 438 385 413 q 403 491 401 463 q 401 542 404 519 q 367 647 392 614 q 301 681 342 681 l 214 681 l 214 157 q 231 94 214 121 q 272 60 247 67 l 272 58 l 214 58 l 49 58 q 27 62 38 58 q 10 72 17 65 q 0 88 3 79 q 3 110 -3 97 q 17 124 8 119 q 35 128 26 128 q 51 124 44 128 q 58 114 58 119 q 35 109 40 114 q 33 94 31 104 q 43 83 35 86 q 63 83 51 81 q 86 97 75 86 q 103 128 97 108 l 103 642 q 86 672 97 661 q 63 687 75 683 q 43 687 51 690 q 33 675 35 683 q 35 662 31 667 q 58 657 40 657 q 51 647 58 651 q 35 643 44 643 q 17 647 26 643 q 3 661 8 650 q 0 682 -3 672 q 10 699 3 692 q 27 710 17 706 q 49 714 38 714 l 325 714 l 325 714 z "},"r":{"ha":569,"x_min":-3,"x_max":597,"o":"m 258 326 q 256 365 251 350 q 272 390 261 381 q 296 402 282 399 q 324 406 310 406 q 377 446 356 407 q 399 542 399 485 q 377 639 399 600 q 324 681 356 678 l 214 681 l 214 157 q 231 94 214 121 q 272 60 247 67 l 272 58 l 49 58 q 27 62 38 58 q 10 72 17 65 q 0 88 3 79 q 3 110 -3 97 q 17 124 8 119 q 35 128 26 128 q 51 124 44 128 q 58 114 58 119 q 35 109 40 114 q 33 94 31 104 q 43 84 35 88 q 63 84 51 81 q 86 97 75 88 q 103 126 97 107 l 103 643 q 86 673 97 663 q 63 687 75 683 q 43 687 51 690 q 33 675 35 683 q 35 662 31 667 q 58 657 40 657 q 51 647 58 651 q 35 643 44 643 q 17 647 26 643 q 3 661 8 650 q 0 682 -3 672 q 10 699 3 692 q 27 710 17 706 q 49 714 38 714 l 214 714 l 329 714 q 403 699 369 713 q 460 662 436 685 q 497 608 483 639 q 510 542 510 576 q 481 446 510 488 q 406 386 451 404 q 427 372 417 383 q 446 345 438 360 q 460 315 454 331 q 469 286 467 299 q 481 222 474 265 q 503 136 489 179 q 540 61 518 93 q 597 32 563 29 q 567 10 589 19 q 517 2 544 0 q 464 24 490 4 q 419 89 438 43 q 397 168 407 121 q 373 259 386 215 q 342 333 360 303 q 299 364 325 364 q 290 363 296 364 q 276 359 283 363 q 264 348 269 356 q 258 326 258 340 z "},"t":{"ha":503,"x_min":-4,"x_max":481,"o":"m 422 742 q 433 701 426 725 q 445 649 439 676 q 458 594 451 622 q 471 542 465 567 q 474 465 481 490 q 449 431 468 440 q 413 427 428 419 q 391 449 397 435 q 389 480 385 464 q 413 503 393 496 q 407 473 401 488 q 431 464 413 458 q 449 490 446 468 q 447 540 453 511 q 427 606 440 572 q 396 658 414 639 q 347 681 378 681 l 293 681 l 293 157 q 308 94 293 121 q 349 60 324 67 l 349 58 l 125 58 q 104 62 114 58 q 88 72 94 65 q 78 88 81 79 q 82 110 76 97 q 95 124 86 119 q 113 128 104 128 q 128 124 121 128 q 136 114 135 119 q 114 109 119 114 q 110 94 108 104 q 121 84 111 88 q 142 84 131 81 q 165 97 153 88 q 182 126 176 107 l 182 682 l 131 681 q 81 658 99 681 q 50 608 64 639 q 30 546 36 576 q 26 492 24 515 q 44 464 29 468 q 69 473 63 458 q 64 503 75 488 q 88 480 83 496 q 85 449 92 464 q 63 427 79 435 q 26 431 47 419 q 1 465 7 440 q 7 542 -4 490 q 17 595 11 567 q 30 651 24 624 q 42 701 36 678 q 53 742 49 725 l 64 742 q 70 722 64 729 q 83 714 76 714 l 392 714 q 413 742 413 714 l 422 742 z "},"g":{"ha":500,"x_min":-3,"x_max":497,"o":"m 497 465 q 472 453 482 461 q 450 435 463 446 l 450 58 l 49 58 q 27 62 38 58 q 10 72 17 65 q 0 88 3 79 q 3 110 -3 97 q 17 124 8 119 q 35 128 26 128 q 51 124 44 128 q 58 115 58 121 q 35 109 40 114 q 33 94 31 104 q 40 85 33 88 q 56 83 47 82 q 76 88 65 83 q 94 103 86 93 q 37 219 58 151 q 15 365 15 286 q 49 547 15 465 q 139 674 83 629 q 130 689 139 683 q 110 695 121 694 q 90 690 99 696 q 81 675 81 685 q 85 662 81 667 q 107 657 89 657 q 99 647 106 651 q 83 643 92 643 q 65 647 74 643 q 51 661 57 650 q 48 682 46 672 q 57 699 50 692 q 74 710 64 706 q 94 714 85 714 l 386 714 q 390 726 386 718 q 400 741 393 733 q 418 753 407 749 q 447 754 429 757 q 428 739 432 751 q 425 714 425 726 l 425 681 l 425 607 q 402 540 425 563 q 353 525 379 518 q 335 536 340 528 q 328 553 329 544 q 331 569 326 561 q 344 578 336 576 q 344 563 339 569 q 356 556 349 556 q 375 564 368 556 q 385 583 382 572 q 388 602 388 593 q 389 611 389 611 q 378 652 389 636 q 353 676 368 668 q 319 688 338 685 q 286 690 301 690 q 222 659 251 690 q 172 580 193 628 q 138 475 150 532 q 126 365 126 418 q 147 223 126 289 q 203 108 167 157 q 240 92 217 92 l 339 92 l 339 433 q 267 403 292 428 q 233 352 242 379 q 233 303 225 325 q 260 281 240 281 q 274 286 269 281 q 279 298 278 292 q 278 310 281 304 q 272 315 276 315 q 297 306 288 318 q 307 278 307 294 q 297 249 307 263 q 264 236 286 236 q 208 262 228 236 q 189 321 189 288 q 208 388 189 354 q 267 436 226 421 q 226 460 235 440 q 233 499 218 481 q 247 475 235 485 q 310 465 260 465 l 497 465 l 497 465 z "},"k":{"ha":607,"x_min":-3,"x_max":579,"o":"m 579 58 l 347 58 q 327 62 338 58 q 310 72 317 65 q 301 88 303 79 q 304 110 299 97 q 317 125 308 121 q 335 129 326 129 q 350 125 343 129 q 358 115 357 121 q 336 109 340 114 q 332 94 332 104 q 344 77 332 82 q 369 76 356 72 q 394 93 383 81 q 401 126 404 106 l 293 407 l 214 240 l 214 157 q 230 94 214 121 q 271 60 246 67 l 271 58 l 49 58 q 27 62 38 58 q 10 72 17 65 q 0 88 3 79 q 3 110 -3 97 q 17 125 8 121 q 35 129 26 129 q 51 125 44 129 q 58 115 58 121 q 35 109 40 114 q 33 94 31 104 q 43 84 35 88 q 63 84 51 81 q 85 97 74 88 q 103 126 96 107 l 103 644 q 85 673 96 663 q 63 687 74 683 q 43 688 51 690 q 33 676 35 685 q 35 663 31 668 q 58 657 40 657 q 51 647 58 651 q 35 643 44 643 q 17 647 26 643 q 3 661 8 650 q 0 682 -3 672 q 10 699 3 692 q 27 710 17 706 q 49 714 38 714 l 271 714 l 271 708 q 230 689 246 701 q 214 661 214 676 l 214 319 l 368 639 q 372 660 372 647 q 361 696 372 681 q 335 714 350 711 l 525 714 q 544 708 535 713 q 558 697 553 704 q 566 681 564 690 q 563 661 568 672 q 548 647 557 650 q 531 643 539 643 q 515 647 522 643 q 508 657 508 651 q 529 662 525 657 q 533 675 533 667 q 508 696 533 694 q 454 681 482 697 q 401 626 424 661 l 356 533 l 497 124 q 533 81 508 97 q 579 60 558 64 l 579 58 z "},"v":{"ha":601,"x_min":-7,"x_max":531,"o":"m 531 714 l 529 708 q 481 689 501 701 q 457 661 460 676 l 360 147 q 399 60 347 74 l 397 58 l 185 58 q 147 72 164 58 q 140 110 131 85 q 153 124 144 121 q 169 127 161 128 q 185 122 178 126 q 192 111 192 117 q 173 110 179 117 q 167 94 167 104 q 176 78 165 85 q 199 81 186 72 q 214 109 214 89 q 210 150 214 129 l 111 642 q 94 672 107 661 q 69 687 82 683 q 45 687 56 690 q 33 675 35 683 q 35 662 31 667 q 58 657 40 657 q 51 647 58 651 q 35 643 44 643 q 17 647 26 643 q 3 661 8 650 q 9 697 -7 683 q 44 714 25 711 l 264 714 l 267 708 q 228 689 242 701 q 218 661 214 676 l 319 153 l 411 642 q 397 675 408 664 q 372 689 385 686 q 350 688 360 692 q 339 675 340 683 q 364 657 332 657 q 356 647 363 651 q 341 643 350 643 q 323 647 332 643 q 308 661 314 650 q 315 699 297 685 q 353 714 332 714 l 531 714 z "},"u":{"ha":568,"x_min":-3,"x_max":563,"o":"m 563 714 l 563 708 q 511 661 511 696 l 511 233 q 485 142 511 181 q 421 81 460 103 q 441 69 428 72 q 461 65 454 65 l 461 58 l 129 58 q 92 72 108 58 q 85 110 76 85 q 97 124 89 121 q 114 127 106 128 q 129 122 122 126 q 136 111 136 117 q 118 110 124 117 q 115 94 113 104 q 134 82 117 83 q 169 94 151 81 q 119 153 138 118 q 101 233 101 189 l 101 644 q 84 673 94 663 q 63 687 74 683 q 43 687 51 690 q 33 675 35 683 q 35 662 31 667 q 58 657 40 657 q 51 647 58 651 q 35 643 44 643 q 17 647 26 643 q 3 661 8 650 q 0 682 -3 672 q 10 699 3 692 q 27 710 17 706 q 49 714 38 714 l 271 714 l 271 708 q 229 689 246 701 q 213 661 213 676 l 213 236 q 243 125 213 158 q 310 95 274 92 q 376 135 347 99 q 400 236 404 172 l 400 651 q 381 676 393 668 q 358 687 369 685 q 338 685 347 689 q 326 675 328 682 q 331 662 325 667 q 354 657 336 657 q 346 647 353 651 q 330 643 339 643 q 313 647 321 643 q 299 661 304 650 q 295 682 293 672 q 304 699 297 692 q 322 710 311 706 q 342 714 332 714 l 343 714 l 563 714 z "},"f":{"ha":474,"x_min":-3,"x_max":446,"o":"m 446 532 q 444 519 446 528 q 437 501 442 510 q 423 488 432 493 q 400 485 414 482 q 383 494 388 488 q 380 508 379 501 q 384 520 381 515 q 392 525 388 525 q 404 501 385 501 q 422 518 418 501 q 425 556 426 535 q 420 594 424 576 q 417 611 417 611 q 394 657 410 636 q 358 681 378 678 l 214 681 l 214 465 l 275 465 l 293 465 q 308 469 300 467 q 322 476 315 471 q 324 499 335 490 q 297 501 313 508 q 303 508 297 504 q 318 511 310 511 q 335 508 326 511 q 350 492 344 504 q 351 468 357 479 q 335 450 346 457 q 351 431 346 443 q 350 407 357 419 q 335 391 344 394 q 318 388 326 388 q 303 391 310 388 q 297 397 297 394 q 324 399 313 390 q 322 422 335 407 q 308 429 315 426 q 293 433 300 432 l 214 433 l 214 157 q 231 94 214 121 q 272 60 247 67 l 272 58 l 49 58 q 27 62 38 58 q 10 72 17 65 q 0 88 3 79 q 3 110 -3 97 q 17 124 8 119 q 35 128 26 128 q 51 124 44 128 q 58 115 58 121 q 35 109 40 114 q 33 94 31 104 q 43 84 35 88 q 63 84 51 81 q 86 99 75 88 q 103 131 97 110 l 103 642 q 86 672 97 661 q 63 687 75 683 q 43 687 51 690 q 33 675 35 683 q 35 662 31 667 q 58 657 40 657 q 51 647 58 651 q 35 643 44 643 q 17 647 26 643 q 3 661 8 650 q 0 682 -3 672 q 10 699 3 692 q 27 710 17 706 q 49 714 38 714 l 214 714 l 415 714 q 437 725 428 714 q 446 751 446 736 l 446 714 l 446 681 l 446 553 l 446 532 z "},"c":{"ha":475,"x_min":0,"x_max":443,"o":"m 442 558 q 440 522 442 540 q 431 487 438 503 q 412 460 424 471 q 382 449 400 450 q 353 455 363 447 q 340 473 343 463 q 340 493 338 483 q 347 504 343 503 q 358 489 347 493 q 376 488 369 485 q 406 517 397 496 q 411 565 414 539 q 398 614 408 590 q 371 650 388 638 q 315 678 347 668 q 253 689 283 689 q 184 653 211 689 q 140 567 157 617 q 117 467 124 518 q 111 385 111 415 q 121 278 111 335 q 149 175 131 222 q 197 97 168 128 q 263 65 225 65 q 358 101 322 65 q 393 207 393 136 q 382 248 393 232 q 347 253 371 264 q 367 269 351 265 q 399 269 382 274 q 430 247 417 264 q 443 201 443 231 q 394 88 443 132 q 265 43 344 43 q 145 72 196 43 q 63 147 94 100 q 15 256 31 194 q 0 385 0 318 q 19 514 0 453 q 72 621 38 575 q 153 694 106 667 q 256 721 200 721 q 278 719 264 721 q 310 715 293 718 q 347 706 328 713 q 385 689 367 699 q 398 696 390 686 q 413 719 406 706 q 426 747 419 733 q 436 768 433 761 l 442 558 z "},"l":{"ha":481,"x_min":-3,"x_max":458,"o":"m 454 265 q 452 225 458 244 q 436 182 446 206 q 417 128 426 158 q 408 58 408 99 l 42 58 l 42 60 q 84 95 67 67 q 101 160 101 124 l 101 650 q 83 677 94 668 q 62 689 72 686 q 43 688 51 692 q 33 676 35 685 q 35 663 31 668 q 58 657 40 657 q 51 647 58 651 q 35 643 44 643 q 17 647 26 643 q 3 661 8 650 q 0 682 -3 672 q 10 699 3 692 q 27 710 17 706 q 49 714 38 714 l 271 714 l 271 708 q 228 689 243 701 q 213 661 213 676 l 213 92 l 308 92 q 350 106 329 92 q 388 143 371 121 q 413 192 404 165 q 421 240 422 218 q 409 268 418 263 q 391 269 400 274 q 376 257 382 265 q 372 243 369 249 q 364 263 364 251 q 370 283 364 274 q 386 300 376 293 q 408 306 396 307 q 440 294 431 303 q 454 265 449 285 z "},"s":{"ha":453,"x_min":0,"x_max":415,"o":"m 415 253 q 410 202 415 228 q 394 153 404 176 q 369 109 383 129 q 338 76 354 89 q 363 64 342 65 l 363 58 l 201 58 l 42 58 q 0 97 0 58 q 8 116 0 110 q 24 124 15 122 q 39 119 32 125 q 44 104 46 114 q 33 107 39 110 q 26 94 26 104 q 33 81 26 88 q 51 71 40 74 q 74 70 61 68 q 97 83 86 72 q 63 111 81 96 q 33 146 46 126 q 10 190 19 165 q 1 243 1 214 q 27 340 1 299 q 106 385 53 381 q 143 378 125 386 q 173 356 161 371 q 187 323 185 342 q 176 283 189 304 q 163 289 175 285 q 135 292 150 293 q 104 282 119 292 q 83 246 89 272 q 83 185 76 214 q 105 135 89 157 q 145 99 121 113 q 201 86 169 86 q 247 96 225 86 q 288 124 269 106 q 316 168 306 142 q 326 226 326 194 q 301 298 326 264 q 241 361 276 332 q 169 415 206 390 q 108 461 132 440 q 56 538 69 492 q 56 626 43 583 q 107 698 68 668 q 211 728 146 728 q 278 719 253 728 q 311 707 303 710 q 338 713 326 703 q 349 754 349 724 l 357 754 l 357 649 q 355 613 357 631 q 346 580 353 594 q 326 556 339 565 q 292 547 314 547 q 259 558 271 547 q 245 583 247 569 q 249 608 243 596 q 269 621 256 619 q 269 605 264 617 q 289 593 274 593 q 313 603 306 593 q 319 626 319 613 q 314 654 319 640 q 299 675 308 668 q 258 697 279 690 q 218 700 238 703 q 160 674 183 697 q 136 615 136 650 q 157 567 136 588 q 208 525 178 546 q 276 481 239 504 q 343 426 313 457 q 394 353 374 394 q 415 253 415 311 z "},"e":{"ha":532,"x_min":-3,"x_max":497,"o":"m 469 90 q 476 69 469 79 q 492 58 483 60 l 49 58 q 27 62 38 58 q 10 72 17 65 q 0 88 3 79 q 3 110 -3 97 q 17 124 8 119 q 35 128 26 128 q 51 124 44 128 q 58 115 58 121 q 35 109 40 114 q 33 94 31 104 q 43 85 35 88 q 63 85 51 82 q 86 99 75 89 q 103 129 97 110 l 103 643 q 86 673 97 663 q 63 687 75 683 q 43 687 51 690 q 33 675 35 683 q 35 662 31 667 q 58 657 40 657 q 51 647 58 651 q 35 643 44 643 q 17 647 26 643 q 3 661 8 650 q 0 682 -3 672 q 10 699 3 692 q 27 710 17 706 q 49 714 38 714 l 204 714 l 371 714 q 390 742 390 714 l 392 742 q 415 657 403 706 q 440 564 428 608 q 442 523 447 540 q 419 506 436 506 q 402 510 407 506 q 396 521 397 514 q 396 536 394 526 q 397 529 396 532 q 408 526 400 524 q 418 553 419 529 q 405 606 417 578 q 372 658 393 635 q 324 681 351 681 l 242 681 q 222 668 231 681 q 214 640 214 656 l 214 449 l 294 449 q 322 460 313 451 q 325 483 336 474 q 299 485 314 492 q 305 491 299 488 q 319 494 311 494 q 336 491 328 494 q 350 475 344 488 q 336 433 364 447 q 350 390 364 417 q 336 374 344 378 q 319 371 328 371 q 305 374 311 371 q 299 381 299 378 q 325 382 314 374 q 322 406 336 390 q 294 417 310 414 l 275 417 l 214 417 l 214 131 q 222 103 214 114 q 242 92 231 92 l 354 92 q 412 113 386 93 q 456 165 438 133 q 462 176 460 171 q 467 186 464 182 q 471 232 472 207 q 466 248 471 239 q 450 257 461 257 q 440 252 447 257 q 436 236 432 247 q 431 242 433 238 q 428 252 428 246 q 432 264 428 258 q 447 274 436 269 q 472 276 461 279 q 488 265 482 272 q 495 251 493 258 q 497 242 497 243 q 496 233 497 236 l 469 90 l 469 90 z "},"j":{"ha":407,"x_min":0,"x_max":357,"o":"m 357 714 l 357 708 q 316 689 332 701 q 300 661 300 676 l 300 90 q 253 -43 300 11 q 115 -97 206 -97 q 51 -85 75 -97 q 15 -54 26 -72 q 3 -15 3 -36 q 14 22 3 6 q 33 38 21 33 q 58 41 46 43 q 77 29 69 39 q 83 3 85 19 q 70 22 79 17 q 53 23 61 26 q 40 9 44 19 q 39 -18 35 -1 q 59 -47 42 -35 q 103 -56 76 -58 q 165 -15 140 -50 q 189 86 189 21 l 189 661 q 172 688 189 676 q 132 699 156 700 q 67 668 89 696 q 42 608 44 640 q 54 549 39 575 q 101 522 69 522 q 126 533 119 522 q 118 557 132 544 q 138 540 129 554 q 135 503 147 526 q 123 492 132 497 q 101 484 114 486 q 74 484 89 482 q 43 497 60 486 q 12 535 24 510 q 0 589 0 560 q 6 624 0 603 q 29 665 13 644 q 76 699 46 685 q 153 714 106 714 l 357 714 z "},"i":{"ha":286,"x_min":-8,"x_max":276,"o":"m 276 708 q 218 661 218 693 l 218 157 q 235 94 218 121 q 276 60 251 67 l 276 58 l 49 58 q 27 62 38 58 q 10 72 17 65 q 0 88 3 79 q 3 110 -3 97 q 17 124 8 119 q 35 129 26 129 q 51 125 44 129 q 58 115 58 121 q 33 94 26 114 q 47 85 35 88 q 72 85 58 82 q 96 97 85 88 q 107 124 107 107 l 107 649 q 88 675 100 665 q 65 688 76 685 q 44 688 53 690 q 33 676 35 685 q 58 657 26 657 q 51 647 58 651 q 35 643 44 643 q 17 647 26 643 q 3 661 8 650 q 10 699 -8 683 q 49 714 28 714 l 276 714 l 276 708 z "},"-":{"ha":306,"x_min":0,"x_max":246,"o":"m 246 367 l 246 332 q 225 357 242 347 q 188 367 208 367 l 60 367 q 22 357 38 367 q 1 332 6 347 l 0 332 l 0 367 l 0 428 l 0 463 l 1 463 q 22 438 6 447 q 60 428 38 428 l 188 428 q 225 438 208 428 q 246 463 242 447 l 246 428 l 246 367 z "},"D":{"ha":732,"x_min":0,"x_max":679,"o":"m 679 458 q 665 328 679 388 q 623 215 650 268 q 558 115 596 163 q 472 19 519 67 q 465 4 461 8 q 471 0 469 0 q 420 -3 453 0 q 355 -15 388 -6 q 298 -43 322 -25 q 274 -92 274 -61 q 290 -124 274 -117 q 318 -118 307 -132 q 317 -126 318 -121 q 310 -137 315 -132 q 295 -147 306 -143 q 268 -151 285 -151 q 224 -131 240 -151 q 211 -83 208 -110 q 238 -31 214 -56 q 311 0 261 -7 l 111 0 l 111 3 q 158 48 139 11 q 176 133 176 85 l 176 351 q 48 441 96 375 q 0 600 0 507 q 19 711 0 658 q 74 805 39 764 q 158 870 110 846 q 263 894 206 894 l 318 894 q 447 865 382 893 q 563 782 511 836 q 647 647 614 728 q 679 458 679 565 m 351 44 q 444 90 403 44 q 513 199 485 135 q 557 335 542 264 q 572 458 572 406 q 553 619 572 547 q 501 743 533 692 q 424 822 468 794 q 333 850 381 850 l 288 850 l 288 381 q 339 397 314 383 q 381 432 364 411 q 407 478 399 453 q 408 528 415 503 q 376 568 399 561 q 342 560 354 575 q 342 578 340 569 q 368 607 343 596 q 422 604 392 617 q 468 554 453 592 q 506 562 486 569 q 529 539 525 554 q 504 535 514 542 q 488 515 494 528 q 476 487 481 503 q 465 457 471 471 q 405 383 449 418 q 288 340 361 347 l 288 44 l 351 44 m 33 600 q 73 467 33 519 q 176 394 113 415 l 176 842 q 74 747 114 811 q 33 600 33 683 z "},"\"":{"ha":374,"x_min":0,"x_max":322,"o":"m 147 714 l 147 714 l 147 714 l 74 482 l 69 482 l 60 482 l 97 656 l 74 629 l 0 714 l 74 799 l 147 714 m 322 714 l 322 714 l 249 482 l 244 482 l 235 482 l 272 656 l 249 629 l 175 714 l 249 799 l 322 714 l 322 714 z "},")":{"ha":218,"x_min":0,"x_max":174,"o":"m 174 363 q 160 189 174 267 q 125 54 146 111 q 81 -39 104 -3 q 38 -85 57 -75 l 0 -85 q 22 -55 7 -82 q 51 26 36 -28 q 77 165 65 81 q 89 367 89 249 l 89 383 q 77 585 89 501 q 51 724 65 669 q 22 805 36 778 q 0 835 7 832 l 38 835 q 81 788 57 824 q 125 696 104 753 q 160 560 146 639 q 174 386 174 482 l 174 363 z "},"(":{"ha":250,"x_min":0,"x_max":174,"o":"m 0 388 q 14 561 0 483 q 49 696 28 639 q 93 788 69 753 q 136 835 117 824 l 174 835 q 152 805 167 832 q 123 724 138 778 q 97 585 108 669 q 85 383 85 501 l 85 367 q 97 165 85 249 q 123 26 108 81 q 152 -55 138 -28 q 174 -85 167 -82 l 136 -85 q 93 -39 117 -75 q 49 54 69 -3 q 14 190 28 111 q 0 364 0 268 l 0 388 z "},";":{"ha":194,"x_min":0,"x_max":147,"o":"m 147 182 l 147 182 l 147 182 l 74 -49 l 69 -49 l 60 -49 l 97 125 l 74 97 l 0 182 l 74 267 l 147 182 m 147 565 l 74 481 l 0 565 l 74 650 l 147 565 z "},",":{"ha":183,"x_min":0,"x_max":147,"o":"m 147 90 l 147 90 l 74 -140 l 69 -140 l 60 -140 l 97 33 l 74 6 l 0 90 l 74 175 l 147 90 l 147 90 l 147 90 z "},".":{"ha":178,"x_min":0,"x_max":147,"o":"m 74 169 l 147 85 l 74 0 l 0 85 l 74 169 l 74 169 z "},"*":{"ha":253,"x_min":0,"x_max":222,"o":"m 183 643 q 204 633 194 636 q 221 635 214 631 l 222 635 l 192 597 l 182 585 l 181 585 q 179 601 183 592 q 165 619 175 611 l 168 617 l 126 650 l 126 600 q 131 578 126 588 q 143 567 136 569 l 143 565 l 126 565 l 96 565 l 79 565 l 79 567 q 91 578 86 569 q 96 600 96 588 l 96 650 l 57 619 q 40 585 35 603 l 29 597 l 0 635 q 17 633 7 631 q 38 643 28 636 l 86 682 l 38 719 q 17 730 28 728 q 0 728 7 732 l 11 742 l 40 779 l 40 778 q 57 744 35 760 l 96 713 l 96 763 q 79 797 96 790 l 96 797 l 126 797 l 143 797 q 126 763 126 790 l 126 713 l 165 744 q 179 761 175 751 q 181 778 183 771 l 182 779 l 211 742 l 222 728 l 221 728 q 183 719 206 738 l 136 682 l 183 643 z "},"'":{"ha":183,"x_min":0,"x_max":147,"o":"m 147 714 l 147 714 l 74 482 l 69 482 l 60 482 l 97 656 l 74 629 l 0 714 l 74 799 l 147 714 l 147 714 l 147 714 z "},"`":{"ha":244,"x_min":38,"x_max":185,"o":"m 38 901 q 60 926 54 914 q 69 968 67 938 q 88 937 71 967 q 128 871 106 907 q 185 776 153 829 q 172 760 175 767 q 165 742 168 753 l 38 901 z "},"~":{"ha":632,"x_min":86,"x_max":558,"o":"m 199 507 q 267 500 233 508 q 333 480 300 492 q 401 458 367 468 q 471 447 435 449 q 515 454 496 446 q 558 486 535 463 q 548 451 556 469 q 527 415 540 432 q 496 388 514 399 q 454 376 478 376 q 384 385 418 375 q 315 406 350 394 q 246 428 281 418 q 175 436 211 438 q 130 427 151 436 q 86 397 108 418 q 100 433 90 414 q 124 469 110 453 q 156 496 138 485 q 199 507 175 507 z "},"<":{"ha":564,"x_min":38,"x_max":382,"o":"m 38 401 l 321 689 l 382 696 l 349 631 l 128 400 l 349 171 l 382 106 l 321 113 l 38 400 l 38 401 z "},">":{"ha":497,"x_min":58,"x_max":403,"o":"m 403 400 l 119 113 l 58 106 l 92 171 l 313 400 l 92 631 l 58 696 l 119 689 l 403 401 l 403 400 z "},"^":{"ha":564,"x_min":54,"x_max":501,"o":"m 278 568 l 496 288 l 501 228 l 451 261 l 276 479 l 104 261 l 54 228 l 60 288 l 276 568 l 278 568 z "},"_":{"ha":450,"x_min":0,"x_max":411,"o":"m 411 -61 l 411 -96 q 390 -71 407 -81 q 353 -61 374 -61 l 60 -61 q 22 -71 38 -61 q 1 -96 6 -81 l 0 -96 l 0 -61 l 0 0 l 0 35 l 1 35 q 22 10 6 19 q 60 0 38 0 l 353 0 q 390 10 374 0 q 411 35 407 19 l 411 0 l 411 -61 z "},"\\":{"ha":413,"x_min":0,"x_max":392,"o":"m 157 738 q 140 717 147 729 q 130 691 133 706 q 129 658 126 676 l 274 131 q 298 72 283 94 q 329 34 313 49 q 362 13 346 19 q 392 1 378 6 l 392 0 l 176 0 l 176 1 q 219 33 204 6 q 229 96 235 60 l 89 625 q 48 709 75 686 q 0 738 21 732 l 157 738 z "},"{":{"ha":285,"x_min":36,"x_max":246,"o":"m 38 374 q 51 390 43 379 q 65 412 58 400 q 75 436 71 424 q 78 458 79 449 q 63 588 71 522 q 71 725 56 654 q 84 758 74 739 q 115 794 94 776 q 167 823 135 811 q 246 835 199 835 l 246 807 q 188 790 210 803 q 156 761 167 778 q 140 725 144 744 q 135 688 136 706 q 134 663 133 676 q 137 627 135 650 q 143 567 139 604 q 153 469 147 529 q 140 410 156 436 q 114 372 125 383 q 140 335 125 361 q 153 276 156 308 q 143 179 147 217 q 137 119 139 142 q 134 83 135 96 q 135 58 133 69 q 140 21 136 40 q 156 -15 144 1 q 188 -44 167 -32 q 246 -61 210 -57 l 246 -89 q 167 -77 199 -89 q 115 -48 135 -65 q 84 -12 94 -31 q 71 21 74 7 q 63 158 56 92 q 78 288 71 224 q 75 310 79 297 q 65 334 71 322 q 51 356 58 346 q 38 372 43 367 q 36 373 36 372 q 38 374 36 374 z "},"[":{"ha":267,"x_min":47,"x_max":215,"o":"m 47 835 l 215 835 l 215 783 l 132 783 l 132 -33 l 215 -33 l 215 -85 l 47 -85 l 47 835 z "},"]":{"ha":267,"x_min":47,"x_max":215,"o":"m 215 -85 l 47 -85 l 47 -33 l 131 -33 l 131 783 l 47 783 l 47 835 l 215 835 l 215 -85 z "},"}":{"ha":285,"x_min":36,"x_max":246,"o":"m 244 374 q 246 373 246 374 q 244 372 246 372 q 231 356 238 367 q 217 334 224 346 q 207 310 211 322 q 204 288 203 297 q 219 158 211 224 q 211 21 226 92 q 198 -12 208 7 q 167 -48 188 -31 q 115 -77 147 -65 q 36 -89 83 -89 l 36 -61 q 94 -44 72 -57 q 126 -15 115 -32 q 141 21 138 1 q 147 58 144 40 q 148 83 149 69 q 145 119 147 96 q 139 179 143 142 q 129 276 135 217 q 142 335 126 308 q 168 372 157 361 q 142 410 157 383 q 129 469 126 436 q 139 567 135 529 q 145 627 143 604 q 148 663 147 650 q 147 688 149 676 q 141 725 144 706 q 126 761 138 744 q 94 790 115 778 q 36 807 72 803 l 36 835 q 115 823 83 835 q 167 794 147 811 q 198 758 188 776 q 211 725 208 739 q 219 588 226 654 q 204 458 211 522 q 207 436 203 449 q 217 412 211 424 q 231 390 224 400 q 244 374 238 379 z "},"|":{"ha":240,"x_min":49,"x_max":175,"o":"m 49 -143 q 65 -124 58 -135 q 78 -100 72 -114 q 83 -67 83 -86 l 83 661 q 78 694 83 681 q 65 718 72 708 q 49 738 58 729 l 175 738 q 158 719 165 729 q 147 698 151 711 q 140 668 142 685 l 140 -67 q 145 -100 140 -86 q 157 -124 150 -114 q 175 -143 164 -135 l 49 -143 l 49 -143 z "},"":{"ha":538,"x_min":44,"x_max":456,"o":"m 449 328 l 449 293 l 447 293 q 427 318 443 308 q 389 328 411 328 l 281 328 l 281 194 q 290 149 281 168 q 314 125 299 131 l 281 125 l 281 124 l 218 124 l 218 125 l 183 125 q 208 149 199 131 q 218 194 218 168 l 218 328 l 110 328 q 72 318 88 328 q 51 293 56 308 l 50 293 l 50 328 l 50 389 l 50 424 l 51 424 q 72 399 56 408 q 110 389 88 389 l 218 389 l 218 522 q 208 567 218 549 q 183 592 199 586 l 183 593 l 218 593 l 281 593 l 314 593 l 314 592 q 290 567 299 586 q 281 522 281 549 l 281 389 l 389 389 q 427 399 411 389 q 447 424 443 408 l 449 424 l 449 389 l 449 328 m 456 -61 l 456 -96 q 435 -71 451 -81 q 397 -61 418 -61 l 104 -61 q 66 -71 82 -61 q 46 -96 50 -81 l 44 -96 l 44 -61 l 44 0 l 44 35 l 46 35 q 66 10 50 19 q 104 0 82 0 l 397 0 q 435 10 418 0 q 456 35 451 19 l 456 0 l 456 -61 z "},"":{"ha":533,"x_min":0,"x_max":503,"o":"m 74 169 l 147 85 l 74 0 l 0 85 l 74 169 m 251 169 l 325 85 l 251 0 l 178 85 l 251 169 m 429 169 l 503 85 l 429 0 l 356 85 l 429 169 z "},"":{"ha":375,"x_min":0,"x_max":322,"o":"m 74 -150 l 69 -150 l 60 -150 l 97 24 l 74 -3 l 0 82 l 74 167 l 147 82 l 74 -150 m 249 -150 l 244 -150 l 235 -150 l 272 24 l 249 -3 l 175 82 l 249 167 l 322 82 l 249 -150 z "},"":{"ha":235,"x_min":39,"x_max":186,"o":"m 113 -150 l 108 -150 l 99 -150 l 136 24 l 113 -3 l 39 82 l 113 167 l 186 82 l 113 -150 z "},"M":{"ha":832,"x_min":-1,"x_max":813,"o":"m 813 885 q 765 859 783 876 q 747 821 747 842 l 747 133 q 766 49 747 85 q 813 4 785 13 l 813 1 l 581 1 l 581 4 q 626 49 608 13 q 644 135 644 86 l 644 733 q 614 674 633 706 q 564 603 594 642 q 547 582 554 592 q 533 561 540 572 q 581 455 568 506 q 582 360 593 404 q 552 310 575 332 q 507 289 529 289 q 462 310 485 289 q 432 358 439 331 q 433 453 421 403 q 481 560 446 504 q 467 581 474 571 q 450 603 460 592 q 397 678 418 643 q 365 740 376 713 l 365 133 q 385 49 367 85 q 431 4 403 13 l 431 1 q 375 -15 401 1 q 329 -51 349 -32 q 286 -103 306 -75 q 205 -195 249 -169 q 125 -221 161 -221 q 67 -210 90 -221 q 31 -185 44 -200 q 10 -153 17 -169 q 1 -125 3 -136 q 3 -85 -1 -104 q 21 -52 8 -67 q 52 -28 33 -37 q 94 -19 71 -19 q 144 -39 128 -19 q 163 -81 161 -58 q 152 -122 164 -104 q 117 -139 140 -140 q 131 -120 128 -131 q 129 -101 133 -110 q 115 -85 125 -92 q 93 -79 106 -79 q 60 -92 78 -79 q 43 -129 43 -106 q 52 -165 43 -150 q 74 -189 61 -179 q 103 -202 88 -199 q 132 -204 118 -206 q 199 -176 174 -199 q 240 -124 225 -154 q 259 -60 254 -93 q 264 1 264 -26 l 264 449 q 240 489 261 474 q 194 490 218 504 q 209 515 199 504 q 233 529 219 525 q 263 530 247 533 q 290 513 278 526 q 284 533 290 522 q 264 547 278 544 l 264 769 q 243 842 261 824 q 206 864 225 860 q 183 862 193 867 q 165 849 172 857 q 155 829 157 840 q 160 807 153 818 q 172 796 164 800 q 183 793 181 792 q 167 789 175 790 q 138 797 149 786 q 121 830 122 810 q 129 864 119 850 q 154 885 139 879 q 186 890 169 890 l 431 890 l 431 885 q 403 874 415 879 q 383 860 392 869 q 378 843 381 856 q 383 806 376 831 q 412 740 390 781 q 478 638 433 699 l 507 599 q 521 617 514 610 q 536 636 528 625 q 603 739 582 699 q 633 803 625 779 q 638 840 640 828 q 631 856 635 851 q 581 885 615 874 l 581 890 l 813 890 l 813 885 m 507 333 q 532 349 522 333 q 543 390 542 364 q 536 450 544 417 q 507 519 528 483 q 478 450 486 483 q 472 390 469 417 q 483 349 474 364 q 507 333 492 333 z "},"A":{"ha":822,"x_min":-1,"x_max":925,"o":"m 863 -33 q 875 -26 865 -28 q 896 -28 885 -24 q 915 -42 907 -32 q 924 -74 924 -53 q 906 -118 925 -99 q 853 -144 886 -137 q 777 -139 819 -150 q 689 -92 735 -128 q 662 -76 686 -90 q 601 -44 638 -61 q 522 -14 564 -28 q 446 0 481 0 q 495 15 476 1 q 523 45 514 28 q 534 82 532 63 q 533 117 536 101 l 483 388 q 403 344 442 374 q 333 277 364 315 q 281 194 301 239 q 254 101 260 149 q 270 33 250 61 q 332 0 290 6 l 129 0 q 71 11 96 0 q 20 56 39 26 q 0 119 1 86 q 8 168 -1 144 q 33 208 17 192 q 110 240 65 240 q 147 233 132 240 q 170 217 161 226 q 183 197 179 208 q 186 178 186 186 q 168 140 186 150 q 132 140 150 129 q 149 152 147 140 q 141 175 150 164 q 115 190 132 186 q 76 178 97 193 q 46 133 51 160 q 49 80 40 106 q 76 36 57 54 q 118 18 94 18 q 179 48 158 18 q 207 114 200 78 l 260 418 q 256 444 261 431 q 240 468 250 458 q 217 482 231 478 q 190 481 204 486 q 220 501 204 496 q 250 506 236 507 q 274 500 264 506 q 290 489 285 494 q 285 507 289 501 q 278 515 281 513 l 331 738 q 331 763 336 761 q 317 753 326 764 q 299 742 313 747 q 274 736 286 736 q 246 748 258 736 q 233 775 233 760 q 238 797 233 789 q 258 813 243 804 q 260 784 250 793 q 278 775 271 775 q 325 790 300 775 q 376 828 350 806 q 428 878 401 851 q 481 929 454 906 q 533 969 507 953 q 582 986 558 985 q 636 972 615 988 q 656 929 657 957 q 631 882 654 897 q 574 885 608 867 q 592 899 586 888 q 599 924 599 911 q 594 947 600 936 q 575 957 588 957 q 549 950 563 957 q 524 926 535 943 q 510 883 514 910 q 513 817 506 856 q 529 729 521 771 q 547 644 538 688 q 565 553 556 600 q 586 450 575 506 q 755 411 700 457 q 810 290 810 365 q 780 212 810 239 q 721 185 750 185 q 680 195 693 185 q 663 219 667 206 q 660 254 657 232 q 676 240 664 242 q 700 245 688 238 q 722 269 713 253 q 732 310 732 286 q 722 351 732 331 q 694 385 713 371 q 651 406 676 400 q 594 404 625 411 q 615 293 606 346 q 632 200 625 240 q 640 155 636 176 q 649 114 644 133 q 666 43 658 71 q 680 -3 674 15 q 692 -33 686 -21 q 703 -54 697 -44 q 745 -101 719 -85 q 797 -119 771 -117 q 843 -113 822 -122 q 869 -85 864 -104 q 863 -56 872 -69 q 839 -50 854 -42 l 843 -42 q 863 -33 849 -33 m 404 783 q 382 753 389 771 q 372 724 375 735 q 336 563 357 653 q 297 375 315 472 q 369 434 324 407 q 460 485 415 461 l 404 783 m 269 243 q 306 299 283 272 q 355 350 328 326 q 413 392 382 374 q 475 424 443 411 l 468 457 q 361 392 413 431 q 286 315 310 354 l 269 243 z "},"W":{"ha":969,"x_min":-12,"x_max":1025,"o":"m 783 106 q 792 38 781 67 q 828 1 804 10 l 826 0 l 654 0 l 654 8 q 666 15 661 8 q 674 29 671 22 q 678 50 676 38 q 636 158 664 86 q 579 315 608 231 q 555 257 568 288 q 531 197 542 226 q 510 144 519 168 q 499 103 501 119 q 504 27 490 54 q 546 0 518 0 q 481 -38 510 -11 q 428 -93 453 -65 q 380 -142 403 -121 q 332 -165 357 -164 q 292 -156 307 -167 q 271 -130 278 -144 q 265 -100 264 -115 q 272 -78 265 -85 q 297 -60 285 -64 q 320 -61 310 -57 q 339 -73 331 -65 q 350 -87 347 -81 q 322 -83 332 -79 q 309 -96 313 -87 q 308 -115 306 -104 q 319 -131 311 -125 q 353 -133 336 -142 q 381 -100 369 -125 q 397 -35 393 -75 q 393 57 401 6 l 315 454 q 280 483 304 475 q 238 472 256 492 q 269 526 240 515 q 332 514 297 536 q 294 556 322 546 l 253 775 q 231 877 238 843 q 217 931 224 911 l 208 950 q 177 986 197 972 q 135 1003 157 1000 q 97 1000 114 1007 q 75 974 79 993 q 79 944 71 958 q 104 939 88 929 q 86 911 104 918 q 53 917 68 904 q 69 878 56 893 q 104 863 83 863 q 140 873 125 863 q 149 910 154 883 q 165 879 165 897 q 153 843 164 861 q 125 813 143 825 q 88 800 107 800 q 15 831 36 800 q -10 901 -7 861 q 10 985 -12 947 q 88 1029 33 1024 q 156 1024 119 1032 q 236 982 193 1015 q 244 975 235 982 q 278 952 256 967 q 329 924 300 938 q 390 899 358 910 q 453 889 422 889 q 403 874 422 886 q 376 844 385 861 q 365 807 367 826 q 367 772 364 788 q 374 728 369 756 q 390 640 379 701 q 421 472 401 578 q 472 190 440 365 q 490 233 479 208 q 513 285 501 258 q 536 340 525 313 q 556 389 547 367 q 531 474 542 432 q 515 554 521 517 q 508 623 508 592 q 515 678 508 654 q 554 727 525 711 q 615 741 583 743 q 669 718 646 739 q 693 658 693 697 q 683 570 693 622 q 651 446 674 518 q 678 357 665 393 q 702 291 690 321 q 726 232 714 261 q 751 163 739 203 l 878 811 q 875 851 882 839 q 853 864 868 864 q 825 858 838 864 q 813 842 813 851 q 816 824 813 831 q 831 814 819 818 q 797 817 807 806 q 786 844 786 829 q 806 876 786 864 q 854 889 825 889 l 1025 889 q 965 867 997 882 q 926 821 933 851 l 783 106 m 626 688 q 606 670 613 685 q 600 633 600 656 q 606 581 600 610 q 624 524 613 553 q 640 590 633 561 q 648 640 646 619 q 645 673 650 661 q 626 688 640 685 z "},"":{"ha":776,"x_min":3,"x_max":824,"o":"m 697 -46 q 623 -37 647 -47 q 583 -16 599 -28 q 553 6 567 -4 q 510 17 539 17 q 482 8 494 15 q 464 -14 469 1 q 464 24 460 7 q 480 53 468 40 q 508 72 492 65 q 544 79 525 79 l 544 201 q 533 242 544 217 q 514 282 522 268 q 458 363 488 326 q 394 426 428 399 q 301 310 349 368 q 217 194 254 253 q 159 76 181 136 q 144 -49 138 15 q 181 -107 147 -82 q 260 -140 214 -132 q 183 -178 224 -172 q 110 -167 143 -183 q 54 -114 76 -150 q 32 -26 32 -78 q 60 100 32 42 q 136 215 89 158 q 242 328 183 271 q 363 451 301 386 q 284 490 324 478 q 207 500 244 503 q 148 481 171 500 q 118 434 125 461 q 120 378 111 407 q 157 332 129 350 q 113 307 139 311 q 62 313 86 303 q 20 346 38 324 q 3 399 3 368 q 17 471 3 438 q 58 526 31 504 q 125 559 85 549 q 217 565 165 569 q 300 540 256 561 q 389 481 344 518 q 499 618 447 546 q 589 775 551 690 q 551 738 568 751 q 519 719 533 725 q 497 713 506 714 q 482 713 488 713 q 446 728 461 713 q 435 745 439 735 q 433 766 432 756 q 440 785 433 776 q 458 797 446 793 q 448 772 442 788 q 468 753 454 756 q 513 759 490 749 q 557 788 535 769 q 602 830 579 807 q 648 874 625 853 q 694 910 671 894 q 742 928 718 925 q 792 923 774 932 q 817 899 810 914 q 822 869 824 885 q 813 843 821 853 q 788 829 803 832 q 761 830 774 826 q 740 840 749 833 q 733 854 732 846 q 758 851 742 843 q 772 882 774 858 q 756 901 771 894 q 719 893 742 908 q 672 813 688 869 q 656 685 656 756 l 656 457 q 638 441 643 453 q 632 417 632 429 q 661 437 644 433 q 694 434 678 440 q 722 414 710 428 q 739 382 735 400 q 711 391 725 392 q 685 383 697 390 q 665 364 674 376 q 656 336 657 351 l 656 128 l 656 97 q 656 74 656 86 q 657 51 656 63 q 668 -9 660 19 q 697 -46 676 -37 m 544 631 q 484 541 517 585 q 417 454 451 497 q 485 375 453 419 q 544 276 517 331 l 544 631 z "},"":{"ha":775,"x_min":-12,"x_max":726,"o":"m 386 83 q 449 154 433 107 q 452 249 464 201 q 404 333 440 297 q 313 368 368 368 l 313 142 q 313 95 313 122 q 316 42 313 68 q 328 -4 319 17 q 354 -32 338 -25 q 274 -21 300 -32 q 229 4 247 -10 q 194 29 211 18 q 143 40 178 40 q 168 55 157 49 q 186 71 179 61 q 197 94 193 81 q 201 133 201 108 l 201 364 q 147 325 171 353 q 107 260 124 297 q 82 183 90 224 q 74 104 74 142 q 90 -1 74 46 q 138 -83 107 -49 q 211 -137 168 -118 q 306 -156 254 -156 q 419 -131 367 -156 q 512 -59 472 -106 q 574 54 551 -12 q 597 203 597 121 q 577 326 597 271 q 524 419 557 381 q 447 480 490 457 q 358 508 404 503 q 408 529 385 515 q 451 566 432 543 q 481 622 469 589 q 492 699 492 654 q 483 758 492 729 q 454 810 475 788 q 399 845 433 832 q 313 858 364 858 l 313 396 q 400 381 360 396 q 469 341 440 365 q 515 285 499 317 q 531 222 531 254 q 518 155 531 185 q 485 106 506 125 q 440 81 465 88 q 386 83 414 75 m 639 1 q 662 10 647 7 q 691 10 676 14 q 716 -4 706 7 q 725 -36 726 -15 q 663 -33 700 -22 q 599 -74 626 -43 q 472 -156 550 -125 q 308 -186 393 -186 q 156 -149 221 -186 q 52 -53 92 -111 q 0 74 13 4 q 4 207 -12 143 q 69 320 21 271 q 201 388 118 369 l 201 406 q 200 413 200 410 q 197 421 200 417 q 169 449 189 440 q 131 446 150 458 q 155 484 138 474 q 192 490 172 494 q 193 490 193 490 q 194 489 193 489 q 210 480 203 486 q 221 463 218 474 q 201 503 225 492 l 201 786 q 201 796 201 790 q 199 808 200 801 q 174 847 193 833 q 134 860 156 860 q 93 847 113 860 q 67 808 74 833 q 72 781 63 793 q 99 779 82 769 q 81 751 99 758 q 47 757 63 744 q 60 713 49 733 q 99 693 72 693 q 135 709 115 693 q 156 744 156 725 q 167 706 168 725 q 157 670 167 686 q 131 644 147 654 q 94 635 114 635 q 22 665 43 635 q -3 736 0 696 q 33 842 -6 800 q 138 885 71 885 l 283 885 q 417 875 358 885 q 517 844 476 865 q 581 786 558 822 q 603 699 603 750 q 591 647 603 674 q 558 594 579 619 q 504 548 536 569 q 431 513 472 526 q 519 495 471 515 q 610 435 568 475 q 680 337 651 394 q 708 208 708 279 q 702 113 708 157 q 678 31 696 69 q 657 22 671 31 q 639 1 643 13 z "},"":{"ha":754,"x_min":-1,"x_max":867,"o":"m 151 849 q 106 824 115 849 q 108 794 99 811 q 132 778 117 778 q 101 774 115 769 q 78 788 88 778 q 65 813 69 799 q 63 839 61 826 q 78 870 64 853 q 117 895 93 888 q 173 896 140 903 q 243 856 206 889 q 261 876 244 861 q 307 890 278 890 l 561 890 q 678 878 638 890 q 717 839 719 867 q 743 882 742 853 q 797 897 763 893 q 867 883 831 900 q 801 856 835 883 q 737 785 767 828 q 684 691 707 743 q 651 590 661 639 q 649 502 642 542 q 685 444 656 463 q 633 431 658 431 q 590 444 608 431 q 563 484 571 457 q 563 551 554 511 q 570 581 564 564 q 585 616 576 599 q 603 649 593 633 q 621 674 613 665 q 581 676 599 669 q 561 689 564 683 q 551 715 551 703 q 557 735 551 726 q 570 747 563 743 q 585 751 578 751 q 590 722 581 731 q 613 717 600 713 q 638 736 626 721 q 650 779 650 751 q 628 824 650 801 q 544 846 607 846 l 343 846 l 324 846 l 324 825 l 324 133 q 342 48 324 85 q 389 3 361 11 l 389 0 l 147 0 q 129 -1 143 -1 q 96 2 110 -1 q 71 11 82 6 q 20 56 39 26 q 0 119 1 86 q 8 168 -1 144 q 33 208 17 192 q 110 240 65 240 q 147 233 132 240 q 170 217 161 226 q 183 197 179 208 q 186 178 186 186 q 181 152 188 164 q 163 135 174 140 q 140 133 150 128 q 132 140 135 135 q 154 144 149 133 q 153 165 158 154 q 138 181 149 175 q 110 185 126 186 q 76 171 94 185 q 46 126 51 153 q 49 76 40 100 q 76 35 57 53 q 118 18 94 18 q 166 30 140 18 q 206 71 192 42 q 214 133 214 97 q 214 259 214 207 q 213 348 214 311 q 213 408 213 385 q 213 449 213 432 q 188 489 210 474 q 143 490 167 504 q 162 524 149 513 q 190 536 175 535 q 217 532 204 536 q 239 510 229 528 q 214 550 239 539 l 214 756 q 213 778 214 763 q 206 809 211 793 q 187 837 200 825 q 151 849 174 849 z "},"":{"ha":740,"x_min":-1,"x_max":767,"o":"m 731 354 q 757 345 747 354 q 767 325 767 336 q 753 304 767 308 q 750 319 760 314 q 725 315 740 324 q 699 287 714 310 q 672 232 685 264 q 650 164 658 200 q 642 94 642 128 q 656 35 643 61 q 700 0 669 10 q 467 0 563 0 q 308 0 371 0 q 210 0 246 0 q 158 0 175 0 q 135 0 140 0 q 129 0 131 0 q 71 11 93 0 q 20 56 39 26 q 0 119 1 86 q 8 168 -1 144 q 33 208 17 192 q 70 230 47 222 q 114 235 93 238 q 150 219 135 232 q 165 181 165 206 q 159 156 165 167 q 144 140 153 146 q 124 134 135 135 q 106 140 114 133 q 126 147 122 138 q 124 165 129 156 q 106 180 119 175 q 74 174 92 185 q 42 132 47 158 q 46 81 38 106 q 74 37 54 56 q 118 18 94 18 q 162 30 140 18 q 197 72 183 42 q 206 131 206 99 l 206 451 q 181 491 203 476 q 135 492 158 506 q 163 532 142 522 q 207 533 185 542 q 231 510 224 526 q 226 535 231 524 q 206 551 222 546 l 206 756 q 201 808 206 788 q 188 840 196 828 q 169 856 179 851 q 149 864 158 861 q 125 863 136 867 q 106 850 114 858 q 97 831 99 842 q 101 808 94 819 q 114 797 106 801 q 125 793 122 792 q 108 789 117 789 q 79 799 92 786 q 63 830 64 810 q 71 865 61 850 q 105 887 83 883 q 146 890 126 890 l 549 890 q 599 898 572 890 q 640 929 626 906 q 640 897 643 908 q 621 868 636 885 q 660 818 646 851 q 672 752 674 785 q 650 694 669 719 q 590 669 631 669 q 561 678 572 669 q 545 699 550 688 q 542 722 540 710 q 551 740 543 733 q 561 727 551 729 q 576 726 571 725 q 607 744 594 731 q 619 789 619 757 q 613 812 619 801 q 598 830 607 822 q 579 841 589 838 q 561 844 569 844 l 388 846 q 338 828 358 846 q 317 763 317 811 l 317 546 q 357 608 329 585 q 418 641 385 632 q 485 643 451 650 q 539 613 518 636 q 560 567 557 593 q 556 520 564 542 q 526 484 547 499 q 475 472 506 469 q 436 490 447 475 q 428 521 425 506 q 438 508 431 514 q 458 503 444 503 q 484 513 475 503 q 493 535 493 522 q 475 583 493 569 q 433 593 457 596 q 386 573 410 590 q 350 529 363 556 q 340 489 342 513 q 340 442 338 465 q 349 402 342 419 q 367 382 356 385 q 342 394 357 382 q 317 433 326 406 l 317 126 q 340 61 317 78 q 431 44 363 44 q 469 47 440 44 q 530 67 497 50 q 591 123 563 85 q 632 231 619 161 q 630 313 642 289 q 592 336 618 336 q 565 326 575 336 q 556 307 556 315 q 571 290 556 288 q 535 293 553 282 q 519 335 517 304 q 538 376 521 353 q 594 399 554 399 q 645 376 625 400 q 671 322 665 353 q 696 344 681 335 q 731 354 711 354 z "},"":{"ha":718,"x_min":-1,"x_max":1135,"o":"m 321 133 q 340 49 321 85 q 386 4 358 13 l 386 1 l 129 1 q 96 5 110 1 q 71 14 82 8 q 20 59 39 29 q 0 122 1 89 q 33 211 -1 174 q 110 243 65 243 q 147 236 132 243 q 170 219 161 229 q 183 199 179 210 q 186 181 186 189 q 163 136 188 150 q 140 136 150 129 q 132 143 135 138 q 154 147 149 136 q 153 166 158 156 q 138 183 149 176 q 110 188 126 189 q 76 174 94 188 q 46 128 51 154 q 49 78 40 101 q 76 38 57 54 q 118 21 94 21 q 162 31 140 21 q 201 74 183 40 q 210 133 210 100 l 210 450 q 185 490 207 475 q 139 490 163 504 q 150 517 140 506 q 174 532 160 528 q 203 533 188 536 q 232 515 218 529 q 210 551 232 543 l 210 769 q 201 813 208 796 q 185 841 194 831 q 164 856 175 851 q 143 864 153 861 q 119 862 131 867 q 101 849 108 857 q 91 829 93 840 q 96 807 89 818 q 108 796 100 800 q 119 793 117 792 l 103 789 q 74 797 83 786 q 58 830 60 810 q 65 864 56 850 q 92 885 76 879 q 122 890 107 890 l 386 890 l 386 885 q 339 859 357 876 q 321 821 321 842 l 321 674 l 485 804 q 511 835 507 819 q 508 862 515 850 q 488 881 501 874 q 465 890 475 889 l 693 890 q 757 865 735 890 q 783 810 779 840 q 771 751 786 779 q 722 718 756 724 q 691 718 703 714 q 672 729 679 722 q 661 749 665 736 q 706 740 688 733 q 734 762 725 746 q 740 799 743 778 q 717 835 736 819 q 635 851 689 857 q 526 803 582 846 l 407 707 l 556 707 q 558 647 556 693 q 566 533 560 600 q 585 383 572 465 q 618 218 597 301 q 670 57 639 135 q 744 -82 701 -21 q 845 -180 788 -143 q 976 -217 903 -217 q 1054 -195 1025 -217 q 1082 -154 1083 -174 q 1075 -135 1082 -140 q 1060 -130 1068 -129 q 1046 -137 1051 -131 q 1043 -157 1040 -144 q 1034 -147 1038 -157 q 1033 -125 1031 -137 q 1044 -103 1035 -112 q 1076 -93 1054 -93 q 1119 -116 1104 -93 q 1127 -166 1135 -139 q 1084 -216 1119 -193 q 978 -239 1049 -239 q 797 -193 883 -239 q 640 -42 710 -147 q 519 235 569 64 q 444 660 468 407 q 435 676 443 671 q 418 681 428 682 q 399 664 407 678 q 404 632 392 650 q 381 639 394 629 q 374 675 368 649 l 378 685 l 321 639 l 321 133 z "},"":{"ha":713,"x_min":0,"x_max":806,"o":"m 526 629 l 351 121 q 347 44 340 81 q 378 0 353 8 l 136 0 l 136 3 q 183 49 164 11 q 201 135 201 86 l 201 450 q 193 474 200 463 q 176 493 186 486 q 153 502 165 500 q 129 497 142 504 q 146 526 133 514 q 173 541 158 538 q 202 539 188 544 q 226 517 217 533 q 201 563 228 551 l 201 799 q 198 820 201 808 q 187 842 194 832 q 167 860 179 853 q 138 868 156 868 q 63 837 93 868 q 38 761 33 806 q 60 713 42 728 q 100 699 79 699 q 133 714 121 700 q 129 744 144 728 q 158 715 154 739 q 153 676 161 690 q 93 646 135 646 q 68 651 83 646 q 38 669 53 656 q 11 704 22 682 q 0 760 0 726 q 13 815 0 790 q 47 856 26 839 q 90 881 67 872 q 136 890 114 890 l 381 890 l 378 889 l 378 883 q 352 867 364 879 q 331 840 340 856 q 317 810 322 825 q 313 785 313 794 l 313 154 l 526 783 l 526 813 q 517 813 524 819 q 475 793 496 792 q 442 807 454 794 q 433 822 436 813 q 431 840 431 831 q 438 856 432 849 q 456 867 444 864 q 445 844 440 858 q 463 828 450 831 q 517 844 490 824 q 573 894 544 865 q 630 947 601 922 q 689 976 658 972 q 730 972 715 979 q 751 951 744 964 q 756 926 757 939 q 747 904 754 913 q 729 892 739 894 q 711 892 719 890 q 697 900 703 894 q 693 913 692 906 q 715 910 700 904 q 726 936 729 917 q 713 953 725 947 q 681 946 700 958 q 645 879 653 926 q 638 769 638 832 l 638 7 q 642 -82 638 -46 q 655 -143 646 -118 q 678 -184 664 -168 q 710 -212 692 -200 q 739 -219 724 -221 q 764 -206 754 -217 q 772 -162 778 -189 q 805 -196 804 -176 q 797 -226 806 -215 q 759 -247 786 -243 q 701 -239 732 -250 q 658 -212 675 -229 q 626 -174 640 -196 q 599 -124 613 -151 q 569 -67 586 -97 q 516 -12 546 -25 q 471 1 486 0 l 461 1 l 461 4 q 487 20 475 8 q 508 47 499 32 q 522 77 517 63 q 526 103 526 92 l 526 629 z "},"":{"ha":713,"x_min":0,"x_max":806,"o":"m 526 103 q 522 77 526 92 q 508 47 517 63 q 487 20 499 32 q 461 4 475 8 l 461 1 l 471 1 q 490 -2 478 1 q 515 -12 501 -6 q 543 -33 529 -19 q 569 -67 557 -46 q 603 -133 588 -100 q 638 -191 619 -165 q 682 -232 657 -217 q 746 -247 707 -247 q 788 -235 771 -247 q 806 -203 806 -224 q 799 -181 806 -192 q 772 -162 792 -171 q 774 -178 774 -168 q 762 -208 774 -196 q 733 -219 750 -219 q 710 -212 721 -219 q 678 -184 692 -200 q 655 -143 664 -168 q 642 -82 646 -118 q 638 7 638 -46 l 638 769 q 640 838 638 804 q 649 897 642 871 q 670 938 657 922 q 704 954 683 954 q 722 947 717 954 q 726 931 726 940 q 719 913 726 919 q 704 907 713 907 q 693 913 699 907 l 693 910 q 701 897 693 903 q 719 890 708 890 q 743 900 731 890 q 756 931 756 910 q 743 962 756 947 q 700 976 731 976 q 640 953 669 976 q 583 901 611 929 q 526 850 554 874 q 471 826 499 826 q 452 833 460 826 q 444 850 444 839 q 456 867 444 861 q 431 835 431 858 q 444 804 431 815 q 475 793 457 793 q 517 813 497 793 q 522 815 519 815 q 526 813 524 815 l 526 783 l 313 154 l 313 785 q 317 810 313 794 q 331 840 322 825 q 352 867 340 856 q 378 883 364 879 l 378 889 l 381 890 l 136 890 q 90 881 114 890 q 47 856 67 872 q 13 815 26 839 q 0 760 0 790 q 11 704 0 726 q 38 669 22 682 q 68 651 53 656 q 93 646 83 646 q 138 660 118 646 q 158 701 158 674 q 151 728 158 715 q 129 744 144 742 q 138 726 138 733 q 126 707 138 715 q 100 699 115 699 q 58 715 78 699 q 38 771 38 732 q 66 840 38 811 q 138 868 94 868 q 167 860 156 868 q 187 842 179 853 q 198 820 194 832 q 201 799 201 808 l 201 563 q 226 517 226 553 q 208 536 219 531 q 185 542 196 542 q 151 530 167 542 q 129 497 135 518 q 149 503 139 503 q 183 487 168 503 q 201 450 199 471 l 201 135 q 183 49 201 86 q 136 3 164 11 l 136 0 l 378 0 q 353 24 361 6 q 344 69 344 43 q 346 94 344 81 q 351 121 347 108 l 526 629 l 526 103 m 596 1050 q 510 951 558 975 q 410 926 463 926 q 359 936 381 926 q 324 960 338 946 q 304 988 311 974 q 297 1011 297 1003 q 303 1037 297 1024 q 320 1061 310 1050 q 346 1080 331 1072 q 379 1088 361 1088 q 405 1083 392 1088 q 432 1067 418 1079 q 415 1069 421 1069 q 395 1060 403 1069 q 388 1039 388 1050 q 410 991 388 1006 q 465 979 433 976 q 531 1001 497 982 q 583 1054 564 1021 l 596 1050 z "},"":{"ha":832,"x_min":-1,"x_max":813,"o":"m 813 885 q 765 859 783 876 q 747 821 747 842 l 747 133 q 766 49 747 85 q 813 4 785 13 l 813 1 l 581 1 l 581 4 q 626 49 608 13 q 644 135 644 86 l 644 733 q 614 674 633 706 q 564 603 594 642 q 547 582 554 592 q 533 561 540 572 q 581 455 568 506 q 582 360 593 404 q 552 310 575 332 q 507 289 529 289 q 462 310 485 289 q 432 358 439 331 q 433 453 421 403 q 481 560 446 504 q 467 581 474 571 q 450 603 460 592 q 397 678 418 643 q 365 740 376 713 l 365 133 q 385 49 367 85 q 431 4 403 13 l 431 1 q 375 -15 401 1 q 329 -51 349 -32 q 286 -103 306 -75 q 205 -195 249 -169 q 125 -221 161 -221 q 67 -210 90 -221 q 31 -185 44 -200 q 10 -153 17 -169 q 1 -125 3 -136 q 3 -85 -1 -104 q 21 -52 8 -67 q 52 -28 33 -37 q 94 -19 71 -19 q 144 -39 128 -19 q 163 -81 161 -58 q 152 -122 164 -104 q 117 -139 140 -140 q 131 -120 128 -131 q 129 -101 133 -110 q 115 -85 125 -92 q 93 -79 106 -79 q 60 -92 78 -79 q 43 -129 43 -106 q 52 -165 43 -150 q 74 -189 61 -179 q 103 -202 88 -199 q 132 -204 118 -206 q 199 -176 174 -199 q 240 -124 225 -154 q 259 -60 254 -93 q 264 1 264 -26 l 264 449 q 240 489 261 474 q 194 490 218 504 q 209 515 199 504 q 233 529 219 525 q 263 530 247 533 q 290 513 278 526 q 284 533 290 522 q 264 547 278 544 l 264 769 q 243 842 261 824 q 206 864 225 860 q 183 862 193 867 q 165 849 172 857 q 155 829 157 840 q 160 807 153 818 q 172 796 164 800 q 183 793 181 792 q 167 789 175 790 q 138 797 149 786 q 121 830 122 810 q 129 864 119 850 q 154 885 139 879 q 186 890 169 890 l 431 890 l 431 885 q 403 874 415 879 q 383 860 392 869 q 378 843 381 856 q 383 806 376 831 q 412 740 390 781 q 478 638 433 699 l 507 599 q 521 617 514 610 q 536 636 528 625 q 603 739 582 699 q 633 803 625 779 q 638 840 640 828 q 631 856 635 851 q 581 885 615 874 l 581 890 l 813 890 l 813 885 m 507 333 q 532 349 522 333 q 543 390 542 364 q 536 450 544 417 q 507 519 528 483 q 478 450 486 483 q 472 390 469 417 q 483 349 474 364 q 507 333 492 333 z "},"":{"ha":763,"x_min":-36,"x_max":829,"o":"m 483 561 q 479 608 471 588 q 506 640 488 629 q 550 652 525 651 q 596 639 575 653 l 596 767 q 591 792 596 776 q 577 822 586 807 q 556 849 568 838 q 531 865 544 861 l 531 871 l 774 836 l 774 831 q 726 805 744 822 q 708 767 708 788 l 708 610 q 692 594 700 607 q 683 571 685 582 q 708 589 693 585 q 735 590 722 593 q 758 577 749 588 q 767 553 767 567 q 748 560 758 561 q 729 551 738 558 q 715 530 721 543 q 708 500 708 517 l 708 31 q 717 -78 708 -32 q 753 -143 725 -124 q 784 -151 771 -157 q 799 -135 797 -146 q 787 -109 801 -115 q 765 -111 772 -103 q 769 -100 764 -106 q 782 -92 774 -94 q 801 -91 790 -89 q 819 -103 811 -93 q 828 -124 826 -111 q 823 -150 829 -137 q 802 -170 817 -162 q 761 -175 788 -178 q 701 -145 731 -171 q 644 -91 672 -119 q 588 -42 615 -62 q 533 -26 560 -21 q 516 -42 521 -29 q 526 -64 511 -56 q 502 -37 503 -58 q 513 -4 501 -17 q 546 8 525 7 q 588 -11 567 10 q 596 -10 596 -19 l 596 378 q 629 442 628 407 q 583 400 614 418 q 513 369 553 382 q 427 351 472 357 q 340 347 382 344 l 340 119 q 354 47 342 82 q 406 3 367 13 l 406 0 l 86 0 q 37 14 51 0 q 22 44 22 28 q 33 73 22 61 q 61 81 44 85 q 52 63 53 75 q 60 40 51 51 q 88 21 69 29 q 139 15 107 13 q 180 26 164 17 q 206 49 196 36 q 219 73 215 61 q 225 90 224 85 q 227 128 226 96 q 228 201 228 160 q 229 286 229 243 q 229 356 229 329 q 133 353 167 371 q 100 290 100 335 q 108 258 100 268 q 127 249 117 249 q 147 260 138 250 q 160 286 157 269 q 154 233 172 253 q 110 213 136 214 q 59 231 83 211 q 35 294 35 250 q 50 353 35 329 q 92 390 65 376 q 153 407 118 404 q 228 403 188 410 l 229 676 l 229 818 q 220 881 229 844 q 194 950 211 918 q 151 1005 176 982 q 92 1028 125 1028 q 36 1010 64 1028 q 8 960 8 993 q 26 923 8 936 q 58 910 43 910 q 94 931 85 910 q 82 969 104 953 q 121 951 108 969 q 131 910 133 932 q 111 869 129 888 q 60 850 93 850 q 17 859 36 850 q -13 883 -1 868 q -31 916 -25 897 q -33 956 -36 935 q -25 984 -32 967 q -4 1017 -18 1001 q 33 1044 10 1033 q 90 1056 56 1056 q 152 1043 126 1056 q 197 1012 178 1031 q 235 972 217 993 q 274 931 253 950 q 322 898 294 911 q 392 883 350 885 l 392 881 q 352 835 364 872 q 340 749 340 797 l 340 403 q 460 419 403 406 q 553 464 518 432 q 577 499 568 478 q 585 541 586 521 q 572 576 585 561 q 529 594 558 592 q 502 588 518 596 q 483 561 486 581 z "},"":{"ha":725,"x_min":7,"x_max":689,"o":"m 640 876 q 605 838 607 861 q 615 781 603 814 q 637 726 624 757 q 661 657 650 696 q 681 570 672 618 q 689 463 689 522 q 664 265 689 351 q 597 121 639 179 q 500 32 556 63 q 383 1 444 1 q 267 35 322 1 q 169 128 211 69 q 103 268 128 188 q 78 440 78 349 q 53 490 75 475 q 7 490 31 504 q 26 522 13 510 q 53 537 39 533 q 83 534 68 540 q 107 511 97 528 q 102 538 108 525 q 85 556 96 550 q 128 686 99 625 q 198 793 158 747 q 285 865 238 839 q 383 892 333 892 q 433 886 408 892 q 481 871 458 881 q 523 846 504 861 q 551 813 542 831 q 582 869 554 853 q 640 876 610 885 m 439 181 q 490 222 457 217 q 546 211 524 226 q 565 280 556 239 q 577 370 574 321 q 576 476 581 419 q 557 594 572 533 q 540 489 554 532 q 504 419 525 446 q 456 380 483 392 q 401 368 429 368 q 340 393 363 368 q 315 449 318 418 q 330 507 313 481 q 386 536 347 533 q 365 514 371 528 q 363 486 360 500 q 378 463 367 472 q 410 453 390 453 q 463 472 442 453 q 498 518 485 490 q 517 577 511 546 q 522 635 522 608 q 517 681 522 644 q 498 757 513 718 q 456 827 483 796 q 383 858 429 858 q 301 823 336 858 q 242 730 265 788 q 207 598 218 672 q 196 447 196 524 q 208 295 196 369 q 243 163 219 221 q 301 70 267 106 q 383 35 336 35 q 427 47 404 35 q 468 76 450 58 q 497 113 486 93 q 508 149 508 133 q 491 175 507 165 q 439 181 475 185 z "},"":{"ha":750,"x_min":-1,"x_max":708,"o":"m 513 892 q 585 876 550 892 q 647 832 619 861 q 692 761 675 803 q 708 668 708 719 q 685 525 708 579 q 626 442 661 471 q 553 404 592 413 q 485 399 514 396 q 420 425 440 403 q 398 472 400 447 q 410 516 396 496 q 449 536 424 536 q 435 512 440 528 q 433 481 431 496 q 444 456 435 467 q 472 444 454 444 q 517 460 494 444 q 557 506 539 476 q 586 576 575 535 q 597 668 597 617 q 587 740 597 707 q 560 796 576 772 q 521 833 543 819 q 475 847 499 847 l 375 847 l 375 135 q 394 50 375 86 q 440 4 413 14 l 440 1 q 383 -15 411 1 q 333 -51 356 -32 q 286 -103 308 -75 q 205 -195 249 -169 q 125 -221 161 -221 q 67 -210 90 -221 q 31 -185 44 -200 q 10 -153 17 -169 q 1 -125 3 -136 q 3 -85 -1 -104 q 21 -52 8 -67 q 52 -28 33 -37 q 94 -19 71 -19 q 144 -38 128 -19 q 163 -80 161 -57 q 152 -122 164 -103 q 117 -139 140 -140 q 131 -120 128 -131 q 129 -100 133 -110 q 115 -84 125 -90 q 93 -78 106 -78 q 60 -91 78 -78 q 43 -128 43 -104 q 52 -163 43 -149 q 74 -187 61 -178 q 103 -201 88 -197 q 132 -203 118 -204 q 199 -176 174 -199 q 240 -123 225 -153 q 259 -60 254 -93 q 264 1 264 -26 l 264 450 q 241 490 261 475 q 197 490 221 504 q 208 515 199 503 q 230 532 217 526 q 258 535 243 538 q 283 519 272 533 q 279 540 283 529 q 264 556 275 550 l 264 793 q 261 816 264 803 q 251 841 258 829 q 231 861 243 853 q 199 869 218 869 q 158 861 176 869 q 125 838 139 853 q 104 803 111 824 q 100 761 97 783 q 122 714 103 729 q 161 700 142 699 q 195 715 183 701 q 192 744 207 729 q 210 734 204 742 q 219 716 217 726 q 219 694 221 706 q 214 676 218 683 q 156 647 199 647 q 131 652 146 647 q 100 669 115 657 q 74 704 85 682 q 63 761 63 726 q 75 815 63 790 q 107 856 88 839 q 150 881 126 872 q 196 892 174 890 l 513 892 z "},"":{"ha":731,"x_min":0,"x_max":779,"o":"m 581 -61 q 630 -65 603 -60 q 681 -84 657 -71 q 719 -118 704 -97 q 735 -167 735 -139 q 722 -203 735 -190 q 694 -220 710 -217 q 663 -217 678 -224 q 642 -193 647 -211 q 658 -202 649 -200 q 676 -202 668 -204 q 691 -192 685 -200 q 697 -171 697 -185 q 666 -117 697 -136 q 592 -87 635 -97 q 503 -73 549 -78 q 429 -62 458 -68 q 278 1 344 -46 q 165 117 211 49 q 95 271 119 186 q 71 450 71 356 q 65 470 72 460 q 48 488 58 481 q 25 496 38 494 q 0 490 13 497 q 32 530 7 521 q 79 531 57 539 q 92 523 86 528 q 101 504 97 518 q 101 523 101 507 q 82 550 100 539 q 138 703 100 631 q 233 825 175 775 q 367 896 290 875 q 539 894 443 917 q 599 878 569 888 q 657 863 628 868 q 716 861 686 857 q 779 885 746 865 l 753 863 q 698 806 732 843 q 626 719 664 768 q 553 612 589 669 q 495 496 518 554 q 467 382 472 438 q 486 279 463 326 q 518 249 499 254 q 550 251 538 243 q 560 269 561 258 q 549 286 560 279 q 574 278 564 288 q 588 256 585 269 q 584 228 590 243 q 561 203 578 213 q 516 194 542 192 q 468 216 490 197 q 432 269 446 235 q 421 357 418 304 q 437 444 422 400 q 472 531 451 489 q 515 609 492 572 q 561 675 539 646 q 533 666 544 667 q 512 668 521 665 q 497 676 503 671 q 490 685 492 682 q 481 710 481 699 q 486 731 481 722 q 499 743 492 739 q 514 747 507 747 q 504 738 507 744 q 503 726 501 732 q 511 715 504 719 q 531 711 518 711 q 579 735 563 714 q 597 782 596 757 q 583 830 597 807 q 539 857 568 853 q 419 851 472 868 q 327 799 367 833 q 260 718 288 765 q 215 622 232 671 q 190 525 197 572 q 182 444 182 478 q 204 240 182 325 q 263 99 226 156 q 347 11 299 43 q 446 -35 394 -21 q 503 -43 472 -42 q 559 -38 533 -44 q 602 -19 585 -32 q 619 13 619 -7 q 608 40 619 31 q 582 47 597 49 q 607 60 593 58 q 633 58 621 63 q 654 41 646 53 q 663 13 663 29 q 635 -38 663 -19 q 581 -61 608 -57 z "},"":{"ha":642,"x_min":0,"x_max":686,"o":"m 288 801 q 282 826 288 817 q 269 840 276 835 q 256 846 263 844 q 246 847 249 847 l 179 847 q 155 835 158 847 q 160 803 151 822 q 197 722 176 763 q 229 644 218 681 q 244 538 244 589 q 229 447 244 486 q 183 383 214 407 q 106 358 151 358 q 44 375 67 358 q 15 415 22 392 q 14 460 7 438 q 40 494 21 483 q 63 501 51 501 q 83 497 74 500 q 104 486 94 493 q 80 477 89 489 q 71 451 71 465 q 81 424 71 436 q 115 411 92 411 q 181 442 157 411 q 213 517 206 472 q 210 614 219 563 q 174 708 200 665 q 107 777 149 751 q 8 796 65 803 q 4 804 6 799 q 1 813 3 808 q 0 824 0 817 l 0 826 q 31 875 0 854 q 132 892 61 896 l 553 892 q 655 875 624 896 q 686 826 686 854 l 686 824 q 684 813 685 817 q 682 804 683 808 q 678 796 681 799 q 579 777 621 803 q 512 708 538 751 q 476 614 486 665 q 472 517 465 563 q 503 442 479 472 q 569 411 528 411 q 603 424 593 411 q 615 451 614 436 q 606 477 615 465 q 582 486 597 489 q 601 497 590 493 q 622 501 611 500 q 646 494 633 501 q 672 460 665 483 q 672 415 679 438 q 642 375 664 392 q 581 358 619 358 q 503 383 535 358 q 457 447 472 407 q 442 538 442 486 q 457 644 442 589 q 488 722 467 681 q 526 803 508 763 q 531 835 535 822 q 507 847 528 847 l 440 847 q 429 846 436 847 q 415 840 422 844 q 403 826 408 835 q 399 801 399 817 l 399 135 q 410 65 399 96 q 440 17 421 33 q 463 6 449 10 l 463 4 l 464 4 l 464 1 l 444 1 q 394 -20 418 -4 q 351 -54 371 -36 q 310 -101 329 -75 q 228 -194 272 -168 q 149 -219 185 -219 q 91 -209 114 -219 q 54 -183 68 -199 q 33 -151 40 -168 q 25 -124 26 -135 q 27 -83 22 -103 q 44 -49 32 -64 q 76 -24 57 -33 q 118 -14 94 -14 q 168 -32 151 -14 q 186 -72 185 -50 q 176 -110 188 -93 q 140 -126 164 -128 q 152 -91 163 -110 q 117 -72 142 -72 q 84 -85 101 -72 q 67 -122 67 -99 q 76 -158 67 -143 q 98 -182 85 -172 q 126 -195 111 -192 q 156 -197 142 -199 q 219 -168 194 -193 q 259 -110 244 -143 q 280 -40 274 -76 q 288 25 286 -3 q 304 42 293 28 q 315 93 315 56 q 297 61 307 72 q 276 45 286 50 q 258 40 267 40 q 243 39 249 39 q 210 52 224 39 q 191 83 196 65 q 192 117 186 100 q 217 143 197 135 q 220 103 208 117 q 249 96 232 90 q 274 119 260 100 q 288 164 288 138 l 288 801 z "},"":{"ha":810,"x_min":17,"x_max":785,"o":"m 308 -40 q 163 -17 215 -40 q 110 49 110 6 q 122 73 110 64 q 147 82 133 82 q 174 72 163 82 q 185 49 185 63 q 174 24 185 33 q 149 14 164 15 q 183 3 164 3 q 240 22 213 3 q 268 85 268 40 q 249 147 268 129 q 211 172 229 165 q 233 192 218 183 q 268 199 249 200 l 268 286 q 207 306 236 293 q 153 336 178 318 q 154 343 154 338 q 145 364 154 356 q 122 372 136 372 q 102 364 111 372 q 93 343 93 356 q 101 328 93 336 q 60 313 83 315 q 17 321 36 310 q 40 353 33 331 q 49 403 47 376 q 47 456 50 431 q 42 499 44 482 q 36 535 38 517 q 35 574 35 554 q 60 700 35 642 q 135 801 86 758 q 253 869 183 844 q 411 894 324 894 q 542 865 475 893 q 663 782 608 836 q 751 647 717 728 q 785 458 785 565 q 772 352 785 408 q 735 239 760 296 q 671 131 710 182 q 579 40 632 79 q 459 -21 526 1 q 308 -40 392 -43 m 83 578 q 97 494 83 533 q 135 422 111 454 q 194 368 160 390 q 268 338 228 346 q 262 392 268 375 q 247 419 256 408 q 262 447 256 431 q 268 503 268 464 l 268 725 q 241 733 250 726 q 235 753 232 740 q 250 754 239 751 q 269 761 261 757 q 297 780 285 768 q 322 806 310 792 q 344 833 333 819 q 368 858 356 847 q 266 840 317 858 q 174 787 215 822 q 108 699 133 751 q 83 578 83 646 m 428 860 q 424 860 424 860 q 425 862 424 861 q 426 863 426 863 q 421 863 425 863 l 404 863 q 379 778 379 829 l 379 340 q 431 357 406 343 q 473 392 456 371 q 499 438 490 413 q 500 488 507 463 q 468 528 490 521 q 433 519 446 535 q 433 538 432 529 q 460 567 435 556 q 514 564 483 576 q 560 514 544 551 q 597 522 578 529 q 621 499 617 514 q 596 494 606 501 q 579 475 586 488 q 567 447 572 463 q 557 417 563 431 q 497 342 540 378 q 379 300 453 307 l 379 -6 q 510 42 454 0 q 604 149 567 85 q 660 295 642 214 q 678 458 678 376 q 657 621 678 547 q 601 748 636 694 q 520 831 565 801 q 428 860 475 860 z "},"":{"ha":736,"x_min":-6,"x_max":733,"o":"m 619 835 q 640 871 639 846 q 681 885 656 882 q 733 872 706 888 q 690 854 711 872 q 646 804 668 836 q 612 751 633 785 q 575 681 590 717 q 559 612 560 644 q 588 563 558 579 q 549 555 568 556 q 515 562 529 554 q 494 584 500 569 q 494 621 488 599 q 511 656 497 635 q 539 686 525 676 q 491 685 511 676 q 463 708 471 693 q 460 738 454 722 q 489 757 465 753 q 494 729 485 738 q 517 724 504 721 q 541 743 529 728 q 553 783 553 758 q 548 804 553 793 q 531 824 543 815 q 499 839 519 833 q 449 844 479 844 l 313 844 l 313 142 q 331 65 313 96 q 401 33 350 33 q 468 39 435 33 q 528 67 501 44 q 573 134 556 89 q 590 258 590 179 q 587 335 590 290 q 569 419 583 379 q 528 483 556 458 q 456 503 501 508 q 420 488 435 500 q 399 462 406 476 q 396 432 393 447 q 411 407 399 417 q 383 403 394 400 q 365 413 372 406 q 355 430 358 421 q 351 444 351 439 q 379 504 351 483 q 453 531 407 525 q 541 520 496 536 q 622 469 586 504 q 681 380 658 433 q 704 256 704 326 q 690 144 704 189 q 656 69 676 99 q 611 23 635 40 q 567 -7 588 6 q 532 -30 546 -19 q 518 -57 518 -40 q 526 -87 518 -72 q 554 -96 535 -101 q 494 -110 518 -115 q 458 -87 469 -106 q 452 -41 447 -68 q 481 11 457 -14 q 449 1 458 1 q 421 0 439 0 l 136 0 l 136 3 q 183 48 164 11 q 201 133 201 85 l 201 406 q 176 445 199 431 q 131 446 154 460 q 155 484 138 474 q 192 490 172 494 q 210 481 201 488 q 221 463 218 475 q 201 503 225 492 l 201 786 q 201 796 201 790 q 199 808 200 801 q 174 847 193 833 q 134 860 156 860 q 93 847 113 860 q 67 808 74 833 q 72 781 63 793 q 99 779 82 769 q 81 751 99 758 q 47 757 63 744 q 60 713 49 733 q 99 693 72 693 q 135 709 115 693 q 156 744 156 725 q 167 706 168 725 q 157 670 167 686 q 131 644 147 654 q 94 635 114 635 q 22 665 43 635 q -3 736 0 696 q 33 842 -6 800 q 138 885 71 883 l 465 886 q 581 874 540 886 q 619 835 622 863 z "},"":{"ha":575,"x_min":-1,"x_max":565,"o":"m 188 394 q 150 392 171 396 q 112 377 129 388 q 83 351 94 367 q 71 315 71 336 q 84 283 71 296 q 124 275 97 269 q 90 251 111 256 q 49 254 69 246 q 14 283 29 263 q -1 332 -1 303 q 18 395 -1 371 q 67 431 38 419 q 132 444 97 443 q 197 436 167 444 l 250 669 q 238 683 246 678 q 221 688 229 688 q 206 685 213 689 q 199 676 200 682 q 202 661 196 668 q 224 657 208 654 q 217 647 224 651 q 201 643 210 643 q 183 647 192 643 q 168 661 174 650 q 165 682 163 672 q 175 699 168 692 q 192 710 182 706 q 214 714 203 714 l 463 714 l 463 708 q 419 689 435 701 q 404 661 404 676 l 507 157 q 528 92 515 117 q 565 60 540 67 l 565 58 l 338 58 q 316 62 326 58 q 299 72 306 65 q 289 88 292 79 q 292 110 286 97 q 306 125 297 121 q 324 129 315 129 q 340 125 333 129 q 347 115 347 121 q 324 109 329 114 q 322 94 319 104 q 335 85 324 88 q 360 85 346 82 q 385 97 374 88 q 396 124 396 107 q 391 151 393 138 q 386 176 389 164 q 360 232 375 201 q 324 292 344 263 q 279 347 304 322 q 225 385 254 372 l 172 150 q 169 114 169 131 q 175 86 169 97 q 196 69 182 76 q 221 58 210 61 l 68 58 q 35 75 49 61 q 31 110 21 89 q 45 124 36 119 q 63 128 54 128 q 79 124 72 128 q 86 115 86 121 q 67 108 74 114 q 61 96 61 103 q 66 84 61 89 q 79 81 71 79 q 107 94 94 83 q 129 142 119 106 l 188 394 m 367 282 q 335 445 349 379 q 314 555 322 511 q 300 624 306 599 q 290 667 294 650 l 233 419 q 307 360 274 396 q 367 282 340 324 z "},"":{"ha":576,"x_min":-3,"x_max":519,"o":"m 319 426 q 295 429 307 431 q 274 422 283 428 q 260 407 264 417 q 260 383 256 397 q 246 409 247 394 q 251 436 244 424 q 274 456 258 449 q 311 461 290 464 q 356 505 332 472 q 379 574 379 538 q 372 615 379 596 q 351 649 364 635 q 324 672 339 664 q 296 681 310 681 l 215 681 l 215 58 l 49 58 q 27 62 38 58 q 10 72 17 65 q 0 88 3 79 q 3 110 -3 97 q 17 124 8 119 q 35 128 26 128 q 51 124 44 128 q 58 115 58 121 q 35 109 40 114 q 33 94 31 104 q 44 83 35 86 q 64 84 53 81 q 87 99 75 88 q 104 131 99 110 l 104 642 q 87 672 99 661 q 64 687 75 683 q 44 687 53 690 q 33 675 35 683 q 35 662 31 667 q 58 657 40 657 q 51 647 58 651 q 35 643 44 643 q 17 647 26 643 q 3 661 8 650 q 0 682 -3 672 q 10 699 3 692 q 27 710 17 706 q 49 714 38 714 l 419 714 l 419 707 q 386 685 393 707 q 440 646 418 679 q 463 568 463 613 q 436 485 463 519 q 374 450 410 450 l 374 449 q 478 386 436 439 q 519 258 519 333 q 488 145 519 194 q 410 76 457 96 q 449 60 429 61 l 449 58 l 281 58 q 260 62 271 58 q 243 72 250 65 q 234 88 236 79 q 238 110 232 97 q 268 128 247 129 q 292 115 289 126 q 269 109 274 114 q 265 94 264 104 q 287 84 268 85 q 325 90 306 83 l 325 92 q 344 100 331 92 q 372 127 358 108 q 397 176 386 146 q 407 250 407 206 q 399 320 407 289 q 377 374 390 351 q 349 409 364 396 q 319 426 333 422 z "},"":{"ha":474,"x_min":-8,"x_max":446,"o":"m 446 532 q 444 519 446 528 q 437 501 442 510 q 423 488 432 493 q 400 485 414 482 q 383 494 388 488 q 380 507 379 500 q 384 519 381 514 q 392 525 388 525 q 404 501 385 501 q 419 511 414 501 q 425 535 424 521 q 424 566 426 550 q 419 593 422 582 q 417 610 418 603 q 413 624 415 617 q 406 639 411 629 q 394 657 401 649 q 377 672 386 665 q 358 681 368 679 l 214 681 l 214 157 q 231 94 214 121 q 272 60 247 67 l 272 58 l 49 58 q 27 62 38 58 q 10 72 17 65 q 0 88 3 79 q 3 110 -3 97 q 17 124 8 119 q 35 128 26 128 q 51 124 44 128 q 58 115 58 121 q 33 94 26 114 q 44 84 35 88 q 64 84 53 81 q 86 99 75 88 q 103 131 97 110 l 103 642 q 86 672 97 661 q 64 687 75 683 q 44 687 53 690 q 33 675 35 683 q 58 657 26 657 q 51 647 58 651 q 35 643 44 643 q 17 647 26 643 q 3 661 8 650 q 10 699 -8 683 q 49 714 28 714 l 214 714 l 415 714 q 437 725 428 714 q 446 751 446 736 l 446 714 l 446 681 l 446 553 l 446 532 z "},"":{"ha":532,"x_min":-3,"x_max":497,"o":"m 469 90 q 476 69 469 79 q 492 58 483 60 l 49 58 q 27 62 38 58 q 10 72 17 65 q 0 88 3 79 q 3 110 -3 97 q 17 124 8 119 q 35 128 26 128 q 51 124 44 128 q 58 115 58 121 q 35 109 40 114 q 33 94 31 104 q 43 85 35 88 q 63 85 51 82 q 86 99 75 89 q 103 129 97 110 l 103 643 q 86 673 97 663 q 63 687 75 683 q 43 687 51 690 q 33 675 35 683 q 35 662 31 667 q 58 657 40 657 q 51 647 58 651 q 35 643 44 643 q 17 647 26 643 q 3 661 8 650 q 0 682 -3 672 q 10 699 3 692 q 27 710 17 706 q 49 714 38 714 l 204 714 l 371 714 q 390 742 390 714 l 392 742 q 415 657 403 706 q 440 564 428 608 q 442 523 447 540 q 419 506 436 506 q 402 510 407 506 q 396 521 397 514 q 396 536 394 526 q 397 529 396 532 q 408 526 400 524 q 418 553 419 529 q 405 606 417 578 q 372 658 393 635 q 324 681 351 681 l 242 681 q 222 668 231 681 q 214 640 214 656 l 214 449 l 294 449 q 322 460 313 451 q 325 483 336 474 q 299 485 314 492 q 305 491 299 488 q 319 494 311 494 q 336 491 328 494 q 350 475 344 488 q 336 433 364 447 q 350 390 364 417 q 336 374 344 378 q 319 371 328 371 q 305 374 311 371 q 299 381 299 378 q 325 382 314 374 q 322 406 336 390 q 294 417 310 414 l 275 417 l 214 417 l 214 131 q 222 103 214 114 q 242 92 231 92 l 354 92 q 412 113 386 93 q 456 165 438 133 q 462 176 460 171 q 467 186 464 182 q 471 232 472 207 q 466 248 471 239 q 450 257 461 257 q 440 252 447 257 q 436 236 432 247 q 431 242 433 238 q 428 252 428 246 q 432 264 428 258 q 447 274 436 269 q 472 276 461 279 q 488 265 482 272 q 495 251 493 258 q 497 242 497 243 q 496 233 497 236 l 469 90 z "},"":{"ha":1074,"x_min":10,"x_max":1490,"o":"m 446 665 q 428 517 439 597 q 399 360 417 438 q 353 210 381 282 q 289 88 326 139 q 202 10 251 36 q 89 -4 153 -17 q 31 26 49 3 q 11 73 13 49 q 24 116 10 97 q 61 135 38 135 q 93 125 83 135 q 105 103 103 115 q 103 81 107 90 q 94 71 100 71 q 92 88 97 83 q 78 90 86 92 q 64 79 71 88 q 57 57 57 71 q 88 17 65 29 q 140 17 110 6 q 218 81 186 28 q 271 206 250 133 q 304 363 292 279 q 323 520 317 447 q 331 647 329 593 q 335 713 333 700 l 483 713 l 364 808 q 255 857 308 851 q 174 840 201 863 q 151 804 154 825 q 156 767 147 783 q 184 745 165 751 q 229 754 203 739 q 218 735 225 742 q 199 724 211 728 q 168 724 188 719 q 119 757 135 729 q 108 815 104 785 q 133 871 111 846 q 197 896 156 896 l 425 896 q 402 887 415 894 q 382 867 389 879 q 378 840 375 856 q 406 810 382 825 l 569 679 l 569 826 q 551 865 569 847 q 504 890 533 882 l 742 890 l 742 885 q 694 859 713 876 q 676 821 676 842 l 676 674 l 840 804 q 867 835 863 819 q 864 862 871 850 q 844 881 857 874 q 821 890 831 889 l 1049 890 q 1113 865 1090 890 q 1138 810 1135 840 q 1126 751 1142 779 q 1078 718 1111 724 q 1047 718 1058 714 q 1028 729 1035 722 q 1017 749 1021 736 q 1062 740 1043 733 q 1090 762 1081 746 q 1095 799 1099 778 q 1072 835 1092 819 q 991 851 1044 857 q 882 803 938 846 l 763 707 l 911 707 q 913 647 911 693 q 922 533 915 600 q 940 383 928 465 q 974 218 953 301 q 1026 57 994 135 q 1100 -82 1057 -21 q 1201 -180 1143 -143 q 1332 -217 1258 -217 q 1410 -195 1381 -217 q 1438 -154 1439 -174 q 1431 -135 1438 -140 q 1415 -130 1424 -129 q 1401 -137 1407 -131 q 1399 -157 1396 -144 q 1390 -147 1393 -157 q 1388 -125 1386 -137 q 1400 -103 1390 -112 q 1432 -93 1410 -93 q 1475 -116 1460 -93 q 1483 -166 1490 -139 q 1440 -216 1475 -193 q 1333 -239 1404 -239 q 1152 -193 1239 -239 q 995 -42 1065 -147 q 874 235 925 64 q 800 660 824 407 q 791 676 799 671 q 774 681 783 682 q 755 664 763 678 q 760 632 747 650 q 737 639 750 629 q 729 675 724 649 l 733 685 l 676 639 l 676 132 q 695 47 676 83 q 742 3 714 11 l 742 0 l 500 0 l 500 3 q 547 47 528 11 q 565 132 565 83 l 565 450 q 540 490 563 475 q 494 490 518 504 q 506 517 496 506 q 529 532 515 528 q 558 533 543 536 q 588 515 574 529 q 568 551 588 544 l 569 644 l 513 690 l 517 681 q 509 644 522 654 q 486 638 496 635 q 491 669 499 656 q 472 686 483 683 q 455 682 463 688 q 446 665 447 676 z "},"":{"ha":738,"x_min":-1,"x_max":1224,"o":"m 635 93 q 715 -28 667 29 q 822 -128 764 -85 q 943 -196 881 -171 q 1065 -221 1006 -221 q 1142 -199 1114 -221 q 1171 -158 1171 -178 q 1164 -138 1171 -144 q 1149 -133 1157 -132 q 1134 -142 1140 -135 q 1131 -161 1128 -149 q 1122 -151 1126 -161 q 1120 -130 1118 -142 q 1133 -108 1122 -118 q 1165 -97 1143 -97 q 1209 -120 1194 -97 q 1215 -170 1224 -143 q 1172 -220 1207 -197 q 1065 -243 1136 -243 q 906 -210 992 -243 q 707 -108 819 -178 q 663 -80 688 -97 q 612 -46 639 -62 q 557 -16 585 -29 q 503 0 529 -3 q 539 24 531 0 l 390 375 l 299 124 q 297 43 283 79 q 342 1 310 7 l 340 0 l 121 0 l 101 3 q 71 11 83 6 q 20 57 39 26 q 0 121 1 88 q 8 169 -1 146 q 33 208 17 192 q 110 240 65 240 q 147 233 132 240 q 170 217 161 226 q 183 198 179 208 q 186 179 186 188 q 163 135 189 149 q 150 131 156 131 q 140 135 144 132 q 132 142 135 138 q 145 138 139 138 q 154 146 151 138 q 153 165 158 154 q 138 181 149 175 q 110 185 126 186 q 76 171 94 185 q 46 127 51 153 q 49 77 40 101 q 76 36 57 53 q 118 19 94 19 q 197 47 165 19 q 235 92 217 64 q 271 169 253 121 l 368 428 l 201 826 q 171 858 185 854 q 146 863 157 863 q 103 845 121 863 q 100 806 86 828 q 111 794 103 799 q 122 792 119 790 q 106 788 114 789 q 76 796 88 785 q 60 828 63 808 q 68 863 58 849 q 94 883 79 878 q 125 889 110 889 l 367 889 l 369 883 q 335 861 346 875 q 326 828 324 847 l 428 588 l 506 793 q 486 883 529 883 l 486 889 l 660 889 q 692 883 676 889 q 717 863 707 878 q 725 828 726 849 q 708 796 724 808 q 679 788 696 785 q 663 792 671 789 q 674 794 665 790 q 686 806 682 799 q 681 845 699 828 q 639 863 664 863 q 621 861 632 863 q 596 852 610 860 q 567 828 582 844 q 539 781 553 811 l 450 536 l 596 193 q 594 136 582 172 q 606 170 594 158 q 631 184 617 182 q 660 180 646 186 q 679 161 674 174 q 640 138 653 161 q 635 93 626 114 z "},"":{"ha":685,"x_min":38,"x_max":656,"o":"m 379 510 q 444 551 418 519 q 483 622 471 582 q 495 708 496 663 q 479 790 494 753 q 433 853 464 828 q 357 879 403 878 q 298 866 322 881 q 257 828 274 851 q 233 780 240 806 q 224 733 225 754 q 229 715 224 726 q 245 693 235 703 q 268 679 256 683 q 296 683 281 675 q 292 665 297 674 q 278 651 288 657 q 256 643 268 644 q 231 646 243 642 q 249 567 254 597 q 226 520 244 536 q 185 502 208 504 q 149 508 161 500 q 182 578 178 533 q 169 670 186 622 q 119 761 153 718 q 38 826 85 804 q 51 832 40 828 q 76 838 61 836 q 107 835 90 839 q 140 819 124 832 q 141 790 139 807 q 153 763 143 772 q 182 827 160 800 q 233 872 204 854 q 295 898 263 890 q 357 904 328 906 q 450 892 404 904 q 531 851 496 879 q 589 782 567 824 q 610 682 611 740 q 597 619 610 650 q 563 563 585 589 q 511 517 542 536 q 443 489 481 497 q 517 464 479 482 q 585 417 554 446 q 636 347 617 388 q 654 254 656 306 q 618 128 653 179 q 533 49 583 78 q 424 8 482 19 q 319 0 367 -3 l 54 0 q 143 113 106 56 q 199 218 181 169 q 215 303 218 267 q 183 357 213 340 q 146 364 163 367 q 119 351 129 361 q 108 326 110 340 q 118 300 107 311 q 93 308 106 299 q 73 335 81 318 q 67 371 65 351 q 86 408 69 390 q 142 434 111 432 q 202 422 174 436 q 249 381 231 408 q 267 317 268 353 q 242 241 263 281 q 196 153 222 201 q 191 124 190 144 q 204 82 192 103 q 244 45 217 61 q 319 29 271 29 q 385 39 351 28 q 447 74 419 50 q 494 138 475 99 q 514 233 513 176 q 491 388 515 332 q 406 461 467 444 q 377 465 393 465 q 348 460 361 465 q 326 447 335 456 q 322 424 318 438 q 309 451 310 435 q 317 481 308 467 q 342 503 325 494 q 379 510 358 513 z "},"":{"ha":778,"x_min":7,"x_max":767,"o":"m 350 460 q 356 463 353 460 q 357 479 356 474 q 308 477 331 465 q 279 515 286 489 q 301 508 289 508 q 324 514 313 508 q 345 528 335 519 q 361 550 356 538 q 367 669 365 610 q 368 776 368 728 q 363 820 368 804 q 351 845 358 836 q 335 858 344 854 q 315 864 325 861 q 293 862 304 867 q 274 849 282 857 q 265 829 267 840 q 269 807 263 818 q 282 796 274 800 q 293 793 290 792 l 276 789 q 247 797 257 786 q 231 830 232 810 q 239 864 229 850 q 264 885 249 879 q 296 890 279 890 l 767 892 q 716 861 738 883 q 694 818 694 839 l 694 132 q 713 47 694 83 q 760 3 732 11 l 760 0 l 528 0 l 528 3 q 574 48 556 11 q 592 133 592 85 l 592 446 q 567 485 589 471 q 522 486 546 500 q 533 513 524 501 q 557 528 543 524 q 586 528 571 532 q 615 511 601 525 q 592 547 615 539 l 592 857 l 415 857 q 413 696 417 792 q 400 499 408 600 q 380 304 392 399 q 356 147 368 210 q 347 111 353 132 q 342 72 342 90 q 354 39 343 53 q 397 22 365 25 q 344 -3 369 19 q 287 -49 318 -25 q 215 -90 256 -72 q 115 -100 174 -107 q 67 -85 88 -97 q 33 -53 47 -72 q 13 -12 19 -35 q 8 33 7 10 q 33 104 11 74 q 106 135 54 135 q 143 122 125 135 q 172 92 161 110 q 183 56 182 74 q 167 25 183 38 q 158 62 172 51 q 122 72 143 72 q 88 57 101 72 q 71 18 74 42 q 104 24 86 31 q 122 -4 122 17 q 97 -9 106 6 q 93 -39 89 -24 q 110 -63 97 -56 q 142 -71 124 -71 q 216 -35 182 -68 q 275 56 250 -1 q 322 216 304 122 q 351 414 340 310 l 350 413 l 350 460 z "},"":{"ha":813,"x_min":22,"x_max":867,"o":"m 621 892 q 667 878 650 892 q 685 860 683 865 q 755 900 722 893 q 811 899 788 907 q 849 874 835 892 q 865 843 864 857 q 863 817 867 831 q 849 792 858 803 q 826 778 840 782 q 796 782 813 774 q 820 799 811 782 q 822 828 829 815 q 776 853 813 853 q 740 842 753 853 q 721 815 728 832 q 712 776 714 799 q 708 729 710 754 l 708 610 q 692 594 700 607 q 683 571 685 582 q 708 589 693 585 q 735 590 722 593 q 758 577 749 588 q 767 553 767 567 q 748 560 758 561 q 729 551 738 558 q 715 530 721 543 q 708 500 708 517 l 708 31 q 717 -78 708 -32 q 753 -143 725 -124 q 784 -151 771 -157 q 799 -135 797 -146 q 787 -109 801 -115 q 765 -111 772 -103 q 769 -100 764 -106 q 782 -92 774 -94 q 801 -91 790 -89 q 819 -103 811 -93 q 828 -124 826 -111 q 823 -150 829 -137 q 802 -170 817 -162 q 761 -175 788 -178 q 701 -145 731 -171 q 644 -91 672 -119 q 588 -42 615 -62 q 533 -26 560 -21 q 516 -42 521 -29 q 526 -64 511 -56 q 502 -37 503 -58 q 513 -4 501 -17 q 546 8 525 7 q 588 -11 567 10 q 596 -10 596 -19 l 596 846 l 360 846 l 340 846 l 340 825 l 340 119 q 354 47 342 82 q 406 3 367 13 l 406 0 l 86 0 q 37 14 51 0 q 22 44 22 28 q 33 73 22 61 q 61 81 44 85 q 52 63 53 75 q 60 40 51 51 q 88 21 69 29 q 139 15 107 13 q 180 26 164 17 q 206 49 196 36 q 219 73 215 61 q 225 90 224 85 q 227 128 226 96 q 228 201 228 160 q 229 286 229 243 q 229 356 229 329 q 204 395 226 381 q 158 396 182 410 q 173 422 163 410 q 197 438 183 433 q 224 440 210 443 q 250 424 239 438 q 245 444 250 435 q 229 457 240 454 l 229 725 q 226 772 228 750 q 217 811 224 794 q 197 838 210 828 q 161 849 183 849 q 115 824 125 849 q 117 794 108 811 q 142 778 126 778 q 111 774 125 769 q 88 788 97 778 q 75 813 79 799 q 72 839 71 826 q 88 870 74 853 q 126 895 103 888 q 183 896 150 903 q 253 856 215 889 q 271 876 254 861 q 317 890 288 890 l 621 892 z "},"":{"ha":883,"x_min":25,"x_max":972,"o":"m 718 753 q 716 851 736 815 q 644 889 696 886 q 778 892 732 892 q 850 893 824 893 q 942 866 913 893 q 968 801 972 839 q 949 766 965 776 q 914 758 932 756 q 881 775 896 761 q 869 811 867 789 q 891 795 872 799 q 924 817 910 792 q 913 852 931 839 q 869 864 896 865 q 829 853 846 864 q 800 824 813 842 q 779 785 788 806 q 763 743 771 764 l 600 175 q 571 89 586 135 q 531 5 556 43 q 470 -58 507 -33 q 376 -78 433 -82 q 326 -63 349 -76 q 287 -30 303 -50 q 262 14 271 -10 q 253 61 253 38 q 270 132 251 101 q 340 163 289 163 q 378 150 360 163 q 410 119 397 138 q 424 83 422 101 q 411 53 426 65 q 399 90 414 79 q 363 100 383 100 q 329 85 342 100 q 315 46 317 69 q 349 51 331 58 q 368 24 367 44 q 344 19 351 33 q 343 -11 338 4 q 362 -35 349 -28 q 393 -42 375 -42 q 465 -11 433 -39 q 524 90 496 17 l 547 171 q 533 203 543 189 q 511 224 524 217 q 485 233 499 232 q 463 225 472 233 l 281 826 q 263 869 272 849 q 247 914 254 890 q 206 971 228 954 q 160 989 183 988 q 128 981 142 989 q 111 957 115 974 q 115 927 107 942 q 140 922 124 913 q 122 894 140 901 q 89 900 104 888 q 106 861 92 876 q 140 846 119 846 q 176 856 161 846 q 185 893 190 867 q 201 863 201 881 q 190 826 200 844 q 161 796 179 808 q 124 783 143 783 q 51 814 72 783 q 26 885 29 844 q 31 930 25 907 q 51 972 38 953 q 85 1003 65 990 q 133 1018 106 1015 q 197 1008 165 1021 q 272 965 228 996 q 286 956 276 963 q 308 942 296 950 q 331 928 319 935 q 350 919 343 922 q 419 895 382 906 q 490 883 457 885 q 415 849 432 879 q 408 786 397 819 l 410 782 l 575 265 l 718 753 z "},"":{"ha":999,"x_min":13,"x_max":961,"o":"m 465 818 q 456 881 465 844 q 430 950 447 918 q 387 1005 413 982 q 328 1028 361 1028 q 272 1010 300 1028 q 244 960 244 993 q 262 923 244 936 q 294 910 279 910 q 331 931 321 910 q 318 969 340 953 q 357 951 344 969 q 367 910 369 932 q 347 869 365 888 q 296 850 329 850 q 253 859 272 850 q 223 883 235 868 q 206 916 211 897 q 203 956 200 935 q 211 984 204 967 q 232 1017 218 1001 q 269 1044 246 1033 q 326 1056 292 1056 q 388 1043 363 1056 q 433 1012 414 1031 q 471 972 453 993 q 510 931 489 950 q 559 898 531 911 q 628 883 588 885 l 628 881 q 588 835 600 872 q 575 749 575 797 l 575 715 q 631 765 603 749 q 694 783 660 781 l 690 781 q 821 751 758 788 q 922 642 883 714 q 951 557 942 604 q 960 460 961 510 q 949 360 960 410 q 919 272 939 311 q 817 148 881 193 q 683 108 753 103 q 627 124 654 111 q 575 165 600 138 l 575 28 q 583 -81 575 -35 q 619 -146 592 -126 q 651 -154 638 -160 q 665 -137 664 -149 q 653 -112 668 -118 q 632 -114 639 -106 q 635 -103 631 -108 q 649 -94 640 -97 q 667 -94 657 -92 q 686 -106 678 -96 q 694 -127 693 -114 q 690 -153 696 -140 q 669 -173 683 -165 q 628 -178 654 -181 q 569 -148 597 -174 q 512 -94 540 -122 q 456 -44 483 -65 q 403 -29 429 -24 q 385 -45 390 -32 q 396 -67 381 -58 q 372 -40 372 -61 q 382 -7 371 -19 q 415 6 394 4 q 457 -14 436 7 q 465 -12 465 -22 l 465 175 q 410 128 439 143 q 350 111 381 114 l 353 113 q 222 144 283 106 q 121 253 160 182 q 96 319 106 283 q 83 396 86 356 l 83 401 q 58 451 81 436 q 13 451 36 465 q 31 483 18 471 q 59 498 44 494 q 88 495 74 501 q 113 472 103 489 q 108 499 114 486 q 90 517 101 511 q 124 622 101 578 q 226 747 163 703 q 360 786 290 792 q 415 771 388 783 q 465 735 442 758 l 465 818 m 678 149 q 728 158 704 147 q 768 188 751 169 q 793 226 785 206 q 798 265 801 247 q 776 292 794 282 q 722 297 758 301 q 772 337 740 333 q 826 325 804 340 q 835 382 832 353 q 838 443 838 411 q 832 555 838 501 q 810 650 826 608 q 766 717 794 692 q 692 746 738 743 q 634 721 663 742 q 575 647 606 700 l 575 225 q 627 168 603 183 q 678 149 651 153 m 386 393 q 322 403 349 385 q 285 450 294 422 q 286 506 275 478 q 335 546 297 535 q 320 519 322 535 q 324 492 318 504 q 344 472 331 479 q 376 469 357 465 q 424 499 406 476 q 450 553 442 522 q 456 617 458 583 q 443 678 454 650 q 413 726 432 707 q 365 746 393 744 q 303 731 332 751 q 253 669 274 710 q 219 572 232 628 q 207 450 207 515 q 212 340 207 393 q 233 246 217 288 q 277 178 249 204 q 353 150 306 153 q 408 173 381 154 q 465 240 435 192 l 465 467 q 428 417 449 436 q 386 393 407 397 z "},"":{"ha":842,"x_min":-36,"x_max":860,"o":"m 317 0 q 271 15 288 0 q 253 35 254 29 q 183 -6 215 1 q 126 -5 150 -12 q 88 19 103 3 q 72 51 74 36 q 75 78 71 64 q 88 102 79 92 q 111 117 97 113 q 142 113 125 121 q 117 96 126 113 q 115 67 108 79 q 161 42 125 42 q 197 52 183 42 q 217 79 210 63 q 226 118 224 96 q 229 165 228 140 l 229 818 q 220 881 229 844 q 194 950 211 918 q 151 1005 176 982 q 92 1028 125 1028 q 36 1010 64 1028 q 8 960 8 993 q 26 923 8 936 q 58 910 43 910 q 94 931 85 910 q 82 969 104 953 q 121 951 108 969 q 131 910 133 932 q 111 869 129 888 q 60 850 93 850 q 17 859 36 850 q -13 883 -1 868 q -31 916 -25 897 q -33 956 -36 935 q -25 984 -32 967 q -4 1017 -18 1001 q 33 1044 10 1033 q 90 1056 56 1056 q 152 1043 126 1056 q 197 1012 178 1031 q 235 972 217 993 q 274 931 253 950 q 322 898 294 911 q 392 883 350 885 l 392 881 q 352 835 364 872 q 340 749 340 797 l 340 44 l 596 44 l 596 767 q 591 792 596 776 q 577 822 586 807 q 556 849 568 838 q 531 865 544 861 l 531 871 l 774 836 l 774 831 q 726 805 744 822 q 708 767 708 788 l 708 610 q 692 594 700 607 q 683 571 685 582 q 708 589 693 585 q 735 590 722 593 q 758 577 749 588 q 767 553 767 567 q 748 560 758 561 q 729 550 738 558 q 715 528 721 542 q 708 499 708 515 l 708 50 q 758 83 731 75 q 813 76 786 90 q 835 49 831 65 q 834 19 840 33 q 813 -3 828 6 q 779 -8 799 -12 q 796 26 796 13 q 787 42 796 39 q 763 40 778 46 q 733 15 747 33 q 713 -27 721 -1 q 706 -78 704 -53 q 719 -122 707 -103 q 761 -143 732 -140 q 792 -135 782 -144 q 801 -114 801 -125 q 794 -94 801 -103 q 774 -86 786 -85 q 781 -81 776 -83 q 790 -78 786 -79 q 809 -74 799 -75 q 831 -79 819 -74 q 854 -108 849 -87 q 853 -148 860 -128 q 827 -183 847 -168 q 772 -199 807 -199 q 712 -178 735 -199 q 679 -129 689 -157 q 660 -151 672 -140 q 631 -164 649 -161 q 607 -158 617 -165 q 596 -143 597 -151 q 604 -125 590 -128 q 606 -132 599 -132 q 629 -129 614 -132 q 647 -114 642 -128 q 656 -81 651 -100 q 665 -40 660 -62 q 681 0 669 -18 l 317 0 z "},"":{"ha":782,"x_min":-36,"x_max":829,"o":"m 596 767 q 591 792 596 776 q 577 822 586 807 q 556 849 568 838 q 531 865 544 861 l 531 871 l 774 836 l 774 831 q 726 805 744 822 q 708 767 708 788 l 708 561 q 692 546 700 558 q 683 522 685 533 q 708 540 693 536 q 735 542 722 544 q 758 528 749 539 q 767 504 767 518 q 748 511 758 513 q 729 502 738 510 q 715 481 721 494 q 708 451 708 468 l 708 31 q 717 -78 708 -32 q 753 -143 725 -124 q 784 -151 771 -157 q 799 -135 797 -146 q 787 -109 801 -115 q 765 -111 772 -103 q 769 -100 764 -106 q 782 -92 774 -94 q 801 -91 790 -89 q 819 -103 811 -93 q 828 -124 826 -111 q 823 -150 829 -137 q 802 -170 817 -162 q 761 -175 788 -178 q 701 -145 731 -171 q 644 -91 672 -119 q 588 -42 615 -62 q 533 -26 560 -21 q 516 -42 521 -29 q 526 -64 511 -56 q 502 -37 503 -58 q 513 -4 501 -17 q 546 8 525 7 q 588 -11 567 10 q 596 -10 596 -19 l 596 379 q 537 339 571 354 q 467 321 503 324 q 353 340 399 317 q 278 400 307 363 q 239 484 250 438 q 229 575 228 531 l 229 818 q 220 881 229 844 q 194 950 211 918 q 151 1005 176 982 q 92 1028 125 1028 q 36 1010 64 1028 q 8 960 8 993 q 26 923 8 936 q 58 910 43 910 q 94 931 85 910 q 82 969 104 953 q 121 951 108 969 q 131 910 133 932 q 111 869 129 888 q 60 850 93 850 q 17 859 36 850 q -13 883 -1 868 q -31 916 -25 897 q -33 956 -36 935 q -25 984 -32 967 q -4 1017 -18 1001 q 33 1044 10 1033 q 90 1056 56 1056 q 152 1043 126 1056 q 197 1012 178 1031 q 235 972 217 993 q 274 931 253 950 q 322 898 294 911 q 392 883 350 885 l 392 881 q 353 835 364 872 q 340 749 342 797 l 339 558 q 344 494 339 528 q 364 431 350 460 q 403 383 378 401 q 467 364 428 364 q 544 391 511 367 q 596 447 576 415 l 596 767 z "},"":{"ha":1222,"x_min":-36,"x_max":1228,"o":"m 317 0 q 271 15 288 0 q 253 35 254 29 q 183 -6 215 1 q 126 -5 150 -12 q 88 19 103 3 q 72 51 74 36 q 75 78 71 64 q 88 102 79 92 q 111 117 97 113 q 142 113 125 121 q 117 96 126 113 q 115 67 108 79 q 161 42 125 42 q 197 52 183 42 q 217 79 210 63 q 226 118 224 96 q 229 165 228 140 l 229 818 q 220 881 229 844 q 194 950 211 918 q 151 1005 176 982 q 92 1028 125 1028 q 36 1010 64 1028 q 8 960 8 993 q 26 923 8 936 q 58 910 43 910 q 94 931 85 910 q 82 969 104 953 q 121 951 108 969 q 131 910 133 932 q 111 869 129 888 q 60 850 93 850 q 17 859 36 850 q -13 883 -1 868 q -31 916 -25 897 q -33 956 -36 935 q -25 984 -32 967 q -4 1017 -18 1001 q 33 1044 10 1033 q 90 1056 56 1056 q 152 1043 126 1056 q 197 1012 178 1031 q 235 972 217 993 q 274 931 253 950 q 322 898 294 911 q 392 883 350 885 l 392 881 q 352 835 364 872 q 340 749 340 797 l 340 44 l 596 44 l 596 733 q 591 758 596 743 q 577 789 586 774 q 556 816 568 804 q 531 832 544 828 l 531 838 l 774 836 l 774 831 q 726 792 744 822 q 708 742 708 763 l 708 610 q 692 594 700 607 q 683 571 685 582 q 708 589 693 585 q 735 590 722 593 q 758 577 749 588 q 767 553 767 567 q 748 560 758 561 q 729 550 738 558 q 715 528 721 542 q 708 499 708 515 l 708 43 l 964 43 l 964 765 q 959 790 964 775 q 945 821 954 806 q 924 848 936 836 q 899 864 913 860 l 899 869 l 1142 835 l 1142 829 q 1094 803 1113 821 q 1076 765 1076 786 l 1076 608 q 1060 593 1068 606 q 1051 569 1053 581 q 1076 588 1061 583 q 1103 589 1090 592 q 1126 576 1117 586 q 1135 551 1135 565 q 1116 558 1126 560 q 1097 549 1106 557 q 1083 527 1089 540 q 1076 497 1076 514 l 1076 50 q 1126 83 1099 75 q 1181 76 1154 90 q 1203 49 1199 65 q 1202 19 1208 33 q 1181 -3 1196 6 q 1147 -8 1167 -12 q 1164 26 1164 13 q 1155 42 1164 39 q 1131 40 1146 46 q 1101 15 1115 33 q 1081 -27 1089 -1 q 1074 -78 1072 -53 q 1088 -122 1075 -103 q 1129 -143 1100 -140 q 1160 -135 1150 -144 q 1169 -114 1169 -125 q 1162 -94 1169 -103 q 1142 -86 1154 -85 q 1149 -81 1144 -83 q 1158 -78 1154 -79 q 1177 -74 1167 -75 q 1199 -79 1188 -74 q 1222 -108 1217 -87 q 1222 -148 1228 -128 q 1195 -183 1215 -168 q 1140 -199 1175 -199 q 1080 -178 1103 -199 q 1047 -129 1057 -157 q 1028 -151 1040 -140 q 999 -164 1017 -161 q 975 -158 985 -165 q 964 -143 965 -151 q 972 -125 958 -128 q 974 -132 967 -132 q 997 -129 982 -132 q 1015 -114 1010 -128 q 1024 -81 1019 -100 q 1033 -40 1028 -62 q 1049 0 1038 -18 l 317 0 z "},"":{"ha":1236,"x_min":-36,"x_max":1235,"o":"m 317 0 q 271 15 288 0 q 253 35 254 29 q 183 -6 215 1 q 126 -5 150 -12 q 88 19 103 3 q 72 51 74 36 q 75 78 71 64 q 88 102 79 92 q 111 117 97 113 q 142 113 125 121 q 117 96 126 113 q 115 67 108 79 q 161 42 125 42 q 197 52 183 42 q 217 79 210 63 q 226 118 224 96 q 229 165 228 140 l 229 818 q 220 881 229 844 q 194 950 211 918 q 151 1005 176 982 q 92 1028 125 1028 q 36 1010 64 1028 q 8 960 8 993 q 26 923 8 936 q 58 910 43 910 q 94 931 85 910 q 82 969 104 953 q 121 951 108 969 q 131 910 133 932 q 111 869 129 888 q 60 850 93 850 q 17 859 36 850 q -13 883 -1 868 q -31 916 -25 897 q -33 956 -36 935 q -25 984 -32 967 q -4 1017 -18 1001 q 33 1044 10 1033 q 90 1056 56 1056 q 152 1043 126 1056 q 197 1012 178 1031 q 235 972 217 993 q 274 931 253 950 q 322 898 294 911 q 392 883 350 885 l 392 881 q 352 835 364 872 q 340 749 340 797 l 340 44 l 596 44 l 596 733 q 591 758 596 743 q 577 789 586 774 q 556 816 568 804 q 531 832 544 828 l 531 838 l 774 836 l 774 831 q 726 792 744 822 q 708 742 708 763 l 708 610 q 692 594 700 607 q 683 571 685 582 q 708 589 693 585 q 735 590 722 593 q 758 577 749 588 q 767 553 767 567 q 748 560 758 561 q 729 550 738 558 q 715 528 721 542 q 708 499 708 515 l 708 43 l 964 43 l 964 765 q 959 790 964 775 q 945 821 954 806 q 924 848 936 836 q 899 864 913 860 l 899 869 l 1142 835 l 1142 829 q 1094 803 1113 821 q 1076 765 1076 786 l 1076 608 q 1060 593 1068 606 q 1051 569 1053 581 q 1076 588 1061 583 q 1103 589 1090 592 q 1126 576 1117 586 q 1135 551 1135 565 q 1116 558 1126 560 q 1097 549 1106 557 q 1083 527 1089 540 q 1076 497 1076 514 l 1076 165 q 1080 118 1078 140 q 1089 79 1082 96 q 1108 52 1096 63 q 1144 42 1121 42 q 1190 67 1181 42 q 1188 96 1197 79 q 1164 113 1179 113 q 1194 117 1181 121 q 1217 102 1208 113 q 1231 78 1226 92 q 1233 51 1235 64 q 1217 19 1232 36 q 1179 -5 1203 3 q 1123 -6 1156 -12 q 1053 35 1090 1 q 1035 15 1051 29 q 989 0 1018 0 l 317 0 z "},"":{"ha":788,"x_min":0,"x_max":758,"o":"m 418 535 q 442 476 417 499 q 501 440 467 454 q 571 419 536 426 q 625 406 606 411 q 701 360 669 390 q 746 285 732 329 q 755 199 758 243 q 733 118 751 156 q 683 53 715 81 q 607 14 651 25 q 521 1 567 3 q 428 0 475 -1 l 146 0 q 193 26 175 8 q 211 64 211 43 l 211 450 q 202 474 210 463 q 184 491 194 485 q 162 498 174 497 q 140 490 150 499 q 151 516 140 506 q 176 531 161 526 q 206 531 190 535 q 231 517 221 528 q 225 540 231 528 q 211 551 219 551 l 211 792 q 208 813 211 800 q 199 838 206 826 q 179 858 192 850 q 147 867 167 867 q 104 858 125 867 q 68 835 83 850 q 44 801 53 821 q 38 760 35 782 q 60 711 42 726 q 100 697 79 696 q 133 713 121 699 q 129 743 144 726 q 158 713 154 738 q 153 675 161 689 q 93 644 135 644 q 68 649 83 644 q 38 667 53 654 q 11 701 22 679 q 0 758 0 724 q 15 813 0 789 q 51 854 29 838 q 99 880 74 871 q 147 889 125 889 l 388 889 l 388 883 q 340 858 358 875 q 322 819 322 840 l 324 136 q 327 104 324 122 q 342 69 331 86 q 374 41 353 53 q 432 29 396 29 q 505 45 471 29 q 564 88 539 61 q 603 152 589 115 q 618 229 618 189 q 609 306 618 276 q 585 356 600 336 q 548 387 569 375 q 503 408 526 399 q 453 429 479 418 q 404 458 428 440 q 353 531 358 492 q 366 601 347 571 q 421 642 385 631 q 493 626 457 653 q 513 593 510 611 q 514 558 517 575 q 505 531 511 542 q 497 521 499 521 q 496 541 501 524 q 469 568 490 558 q 433 567 447 579 q 418 535 419 556 z "},"":{"ha":1050,"x_min":0,"x_max":1021,"o":"m 418 535 q 442 476 417 499 q 501 440 467 454 q 571 419 536 426 q 625 406 606 411 q 701 360 669 390 q 746 285 732 329 q 755 199 758 243 q 733 118 751 156 q 683 53 715 81 q 607 14 651 25 q 521 1 567 3 q 428 0 475 -1 l 146 0 q 193 26 175 8 q 211 64 211 43 l 211 450 q 202 474 210 463 q 184 491 194 485 q 162 498 174 497 q 140 490 150 499 q 151 516 140 506 q 176 531 161 526 q 206 531 190 535 q 231 517 221 528 q 225 540 231 528 q 211 551 219 551 l 211 792 q 208 813 211 800 q 199 838 206 826 q 179 858 192 850 q 147 867 167 867 q 104 858 125 867 q 68 835 83 850 q 44 801 53 821 q 38 760 35 782 q 60 711 42 726 q 100 697 79 696 q 133 713 121 699 q 129 743 144 726 q 158 713 154 738 q 153 675 161 689 q 93 644 135 644 q 68 649 83 644 q 38 667 53 654 q 11 701 22 679 q 0 758 0 724 q 15 813 0 789 q 51 854 29 838 q 99 880 74 871 q 147 889 125 889 l 388 889 l 388 883 q 340 858 358 875 q 322 819 322 840 l 324 136 q 327 104 324 122 q 342 69 331 86 q 374 41 353 53 q 432 29 396 29 q 505 45 471 29 q 564 88 539 61 q 603 152 589 115 q 618 229 618 189 q 609 306 618 276 q 585 356 600 336 q 548 387 569 375 q 503 408 526 399 q 453 429 479 418 q 404 458 428 440 q 353 531 358 492 q 366 601 347 571 q 421 642 385 631 q 493 626 457 653 q 513 593 510 611 q 514 558 517 575 q 505 531 511 542 q 497 521 499 521 q 496 541 501 524 q 469 568 490 558 q 433 567 447 579 q 418 535 419 556 m 782 0 q 829 44 817 10 q 843 117 842 79 l 843 800 q 824 849 843 821 q 778 886 806 878 l 778 892 l 1021 890 l 1021 885 q 974 854 992 876 q 956 811 956 832 l 956 610 q 940 594 947 607 q 931 571 932 582 q 955 589 940 585 q 983 590 969 593 q 1005 577 996 588 q 1014 553 1014 567 q 995 560 1006 561 q 976 551 985 558 q 962 530 968 543 q 956 500 956 517 l 956 119 q 969 47 957 82 q 1021 3 982 13 l 1021 0 l 782 0 z "},"":{"ha":821,"x_min":13,"x_max":849,"o":"m 422 889 l 422 883 q 375 858 393 875 q 357 819 357 840 l 357 136 q 360 104 357 122 q 375 69 364 86 q 408 41 386 53 q 465 29 429 29 q 538 45 504 29 q 597 88 572 61 q 637 152 622 115 q 651 229 651 189 q 642 306 651 276 q 618 356 633 336 q 581 387 603 375 q 536 408 560 399 q 487 429 513 418 q 438 458 461 440 q 386 531 392 492 q 399 601 381 571 q 454 642 418 631 q 526 626 490 653 q 547 593 543 611 q 547 558 550 575 q 538 531 544 542 q 531 521 532 521 q 529 541 535 524 q 503 568 524 558 q 467 567 481 579 q 451 535 453 556 q 475 476 450 499 q 535 440 500 454 q 604 419 569 426 q 658 406 639 411 q 768 311 735 379 q 756 299 761 310 q 754 276 751 288 q 777 295 763 289 q 806 300 792 301 q 833 290 821 299 q 849 267 846 282 q 826 267 838 272 q 806 251 814 263 q 792 226 797 240 q 788 199 786 211 q 744 83 782 135 q 640 14 707 31 q 554 1 600 3 q 461 0 508 -1 l 179 0 q 226 26 208 8 q 244 64 244 43 l 244 792 q 224 849 244 829 q 181 868 203 868 q 140 860 160 868 q 104 837 119 851 q 81 803 89 822 q 75 761 72 783 q 97 713 78 728 q 136 699 117 699 q 170 714 158 700 q 167 744 182 728 q 194 715 190 739 q 189 676 197 690 q 131 646 175 646 q 111 650 121 646 q 142 604 125 628 q 174 553 160 581 q 199 492 189 525 q 210 417 210 458 q 183 321 210 350 q 118 285 156 292 q 52 293 78 276 q 19 328 26 310 q 14 359 13 344 q 21 385 15 374 q 35 404 26 397 q 53 411 44 411 q 39 385 40 400 q 45 357 38 369 q 67 337 53 344 q 101 333 82 329 q 158 379 144 343 q 163 465 171 415 q 128 570 154 514 q 64 679 101 626 l 64 681 q 45 713 53 693 q 38 760 38 732 q 42 799 38 776 q 63 841 47 821 q 106 875 78 861 q 181 889 135 889 l 422 889 z "},"":{"ha":601,"x_min":3,"x_max":631,"o":"m 3 188 q 10 235 3 210 q 33 285 17 261 q 76 326 50 308 q 142 351 103 344 q 213 341 179 357 q 267 293 246 325 q 280 247 278 274 q 274 197 282 221 q 244 154 265 172 q 189 135 224 136 q 138 148 157 133 q 113 182 118 163 q 116 222 108 201 q 146 250 124 242 q 140 222 131 233 q 163 207 149 210 q 203 217 185 203 q 218 260 221 231 q 201 303 217 285 q 151 321 185 321 q 97 307 119 321 q 60 273 74 293 q 40 229 46 253 q 33 188 33 206 q 60 102 33 139 q 125 46 86 65 q 219 31 178 26 q 294 56 261 35 q 352 110 328 76 q 394 183 376 143 q 422 267 411 224 q 438 351 432 311 q 401 329 422 335 q 371 324 379 324 q 393 343 382 326 q 411 383 404 360 q 420 430 418 406 q 415 471 422 454 q 373 519 403 501 q 313 540 343 538 q 258 526 282 542 q 235 475 235 510 q 244 451 235 461 q 271 442 253 442 q 293 447 286 442 q 303 460 300 453 q 294 429 306 444 q 253 411 283 414 q 199 423 221 408 q 168 460 178 438 q 163 508 158 482 q 186 554 167 535 q 242 586 207 576 q 315 592 276 596 q 387 568 353 588 q 439 514 421 549 q 426 603 435 558 q 403 687 417 647 q 370 759 389 726 q 328 811 351 792 q 288 763 308 788 q 244 717 267 738 q 195 685 221 697 q 139 672 169 672 q 81 689 104 672 q 48 731 58 706 q 41 788 38 757 q 63 844 44 818 q 115 888 81 869 q 203 907 150 906 q 343 871 278 908 q 396 917 368 899 q 458 939 424 935 q 556 926 515 947 q 611 868 597 906 q 615 815 622 842 q 588 772 608 788 q 546 757 572 757 q 508 775 519 757 q 501 806 497 789 q 524 826 504 822 q 519 809 515 819 q 535 800 522 799 q 560 819 551 801 q 557 858 568 836 q 527 887 551 871 q 464 900 503 903 q 369 856 411 896 q 436 788 404 828 q 493 700 468 747 q 535 604 518 653 q 556 511 551 556 q 540 493 544 504 q 536 474 535 482 q 563 495 546 490 q 594 496 579 500 q 619 480 608 492 q 631 451 631 468 q 584 453 606 468 q 558 413 563 438 q 505 204 542 293 q 413 63 468 115 q 282 -4 357 10 q 114 11 207 -18 q 34 78 65 33 q 3 188 3 122 m 208 875 q 153 867 175 875 q 119 847 132 860 q 101 819 106 835 q 96 789 96 804 q 113 760 96 771 q 149 747 129 749 q 184 754 168 746 q 199 782 200 763 q 214 744 215 765 q 201 706 213 724 q 260 764 232 729 q 308 829 288 799 q 265 862 286 849 q 208 875 243 875 m 115 11 l 114 11 q 111 13 111 13 l 115 11 z "},"":{"ha":1067,"x_min":-40,"x_max":1035,"o":"m 986 875 q 951 836 953 860 q 961 779 949 813 q 982 725 969 756 q 1006 656 994 694 q 1026 569 1018 618 q 1035 461 1035 521 q 1010 264 1035 350 q 943 119 985 178 q 846 31 901 61 q 729 0 790 0 q 621 28 672 0 q 529 108 569 57 q 462 228 489 160 q 426 379 435 297 q 374 424 403 403 q 358 433 367 429 q 339 442 349 438 l 340 119 q 354 47 342 82 q 406 3 367 13 l 406 0 l 86 0 q 37 14 51 0 q 22 44 22 28 q 33 73 22 61 q 61 81 44 85 q 52 63 53 75 q 60 40 51 51 q 88 21 69 29 q 139 15 107 13 q 180 26 164 17 q 206 49 196 36 q 219 73 215 61 q 225 90 224 85 l 225 469 q 172 467 197 471 q 126 450 146 463 q 95 416 107 438 q 83 364 83 394 q 93 324 83 340 q 115 299 103 307 q 140 294 128 292 q 156 308 151 296 q 153 274 158 286 q 135 249 149 260 q 94 239 122 239 q 35 266 65 239 q 6 344 6 293 q 24 419 6 386 q 72 473 42 451 q 142 505 103 494 q 225 515 182 515 l 225 818 q 216 881 225 844 q 190 950 207 918 q 147 1005 172 982 q 88 1028 121 1028 q 32 1010 60 1028 q 4 960 4 993 q 22 923 4 936 q 54 910 39 910 q 90 931 81 910 q 78 969 100 953 q 117 951 104 969 q 127 910 129 932 q 107 869 125 888 q 56 850 89 850 q 13 859 32 850 q -17 883 -6 868 q -35 916 -29 897 q -37 956 -40 935 q -29 984 -36 967 q -8 1017 -22 1001 q 28 1044 6 1033 q 86 1056 51 1056 q 148 1043 122 1056 q 194 1012 174 1031 q 232 972 214 993 q 272 931 250 950 q 322 898 293 911 q 390 883 350 885 l 390 881 q 351 835 363 872 q 339 749 339 797 l 339 494 q 360 485 350 490 q 381 475 369 481 q 403 460 392 468 q 424 444 414 453 q 451 615 425 533 q 519 757 476 696 q 616 854 561 818 q 729 890 671 890 q 779 885 754 890 q 827 869 804 879 q 869 844 850 860 q 897 811 888 829 q 928 867 900 851 q 986 875 956 883 m 785 179 q 836 220 803 215 q 892 210 869 225 q 910 279 901 239 q 922 369 919 319 q 922 475 925 418 q 903 593 918 532 q 886 488 900 531 q 851 417 872 444 q 802 378 829 390 q 747 367 775 367 q 686 392 708 367 q 661 448 664 417 q 676 506 658 479 q 732 535 693 532 q 711 513 717 526 q 709 485 706 499 q 724 461 713 471 q 756 451 736 451 q 809 470 788 451 q 844 517 831 489 q 863 576 857 544 q 868 633 868 607 q 863 680 868 643 q 844 756 858 717 q 802 826 829 794 q 729 857 775 857 q 647 822 682 857 q 588 728 611 786 q 552 597 564 671 q 541 445 540 522 q 553 294 542 368 q 589 162 565 219 q 647 69 613 104 q 729 33 682 33 q 794 58 761 33 q 844 113 828 83 q 849 163 860 142 q 785 179 839 185 z "},"":{"ha":728,"x_min":-4,"x_max":729,"o":"m 288 511 q 340 515 313 508 q 382 535 367 521 q 298 544 339 532 q 224 579 257 556 q 172 638 192 603 q 153 714 153 672 q 168 784 153 751 q 209 841 183 817 q 268 878 235 865 q 338 892 301 892 l 610 892 q 660 885 636 892 q 701 865 685 878 q 723 835 717 853 q 722 794 729 817 q 699 763 714 772 q 668 756 683 754 q 642 771 653 758 q 631 804 631 783 q 651 789 633 793 q 681 807 669 785 q 681 846 688 831 q 660 867 674 861 q 633 872 647 874 q 611 860 618 869 l 611 550 q 595 535 601 546 q 589 513 589 524 q 647 532 619 543 q 682 490 675 521 q 635 491 658 504 q 611 450 611 478 l 611 133 q 630 49 611 85 q 676 3 649 13 l 676 0 l 435 0 l 435 3 q 481 49 463 13 q 500 133 500 85 l 500 576 q 468 550 490 564 q 483 537 478 546 q 487 519 488 528 q 479 503 486 510 q 460 496 472 496 q 465 517 471 510 q 453 526 460 524 q 424 515 440 529 q 406 475 407 500 q 364 288 389 379 q 299 128 339 197 q 204 24 260 60 q 72 1 149 -12 q 14 31 32 8 q -4 78 -4 54 q 10 122 -4 103 q 49 140 25 140 q 81 131 71 140 q 92 108 90 121 q 91 86 94 96 q 82 76 88 76 q 79 93 85 89 q 66 95 74 97 q 51 85 58 93 q 44 63 44 76 q 67 23 51 35 q 114 22 83 11 q 190 83 158 33 q 241 202 221 132 q 272 354 261 272 q 288 511 283 436 m 439 739 q 475 731 460 739 q 500 710 490 722 l 500 847 l 376 847 q 335 838 357 847 q 297 812 314 829 q 267 769 279 794 q 256 714 256 744 q 265 652 256 678 q 291 610 275 626 q 328 584 307 593 q 369 572 349 575 q 411 570 390 568 q 449 581 432 572 q 476 604 465 589 q 486 643 486 619 q 476 676 486 658 q 439 693 467 693 q 416 685 424 693 q 406 668 408 678 q 406 650 404 658 q 414 640 408 642 q 383 654 393 639 q 374 688 372 669 q 392 723 376 707 q 439 739 407 739 z "},"":{"ha":544,"x_min":-8,"x_max":519,"o":"m 519 258 q 488 145 519 194 q 410 76 457 96 q 449 60 428 63 l 449 58 l 281 58 q 260 62 269 58 q 243 72 250 65 q 234 88 236 79 q 238 110 232 97 q 268 128 249 129 q 292 115 290 125 q 269 109 274 114 q 265 94 264 104 q 287 84 268 85 q 325 90 306 83 l 325 92 q 344 100 331 92 q 372 127 358 108 q 397 176 386 146 q 407 250 407 206 q 399 320 407 289 q 377 374 390 351 q 349 409 364 396 q 319 426 333 422 q 295 429 307 431 q 274 422 283 428 q 260 407 264 417 q 260 383 256 397 q 246 415 243 399 q 264 443 249 431 q 309 462 285 458 q 358 461 333 465 q 404 446 382 457 q 443 421 426 435 q 499 346 479 390 q 519 258 519 301 m 425 714 q 429 710 425 707 q 440 719 433 713 q 451 734 446 725 q 456 751 456 743 l 456 714 l 456 681 l 456 553 l 456 532 q 453 519 456 528 q 447 501 451 510 q 433 488 442 493 q 410 485 424 482 q 393 494 397 488 q 390 507 389 500 q 394 519 390 514 q 401 525 397 525 q 414 501 394 501 q 428 511 424 501 q 435 535 433 521 q 434 566 436 550 q 429 593 432 582 q 426 610 428 603 q 422 624 425 617 q 416 639 421 629 q 403 657 411 649 q 387 672 396 665 q 368 681 378 679 l 215 681 l 215 58 l 49 58 q 27 62 38 58 q 10 72 17 65 q 0 88 3 79 q 3 110 -3 97 q 17 124 8 119 q 35 128 26 128 q 51 124 44 128 q 58 115 58 121 q 33 94 26 114 q 44 83 35 86 q 64 84 53 81 q 87 99 75 88 q 104 131 99 110 l 104 642 q 88 673 99 663 q 65 687 76 683 q 44 687 53 690 q 33 675 35 683 q 58 657 26 657 q 51 647 58 651 q 35 643 44 643 q 17 647 26 643 q 3 661 8 650 q 10 699 -8 683 q 49 714 28 714 l 425 714 z "},"":{"ha":511,"x_min":-15,"x_max":506,"o":"m 471 708 l 471 694 q 433 660 442 683 q 424 600 424 638 l 424 93 l 483 93 l 483 68 q 466 44 475 61 q 452 7 457 26 q 448 -28 447 -12 q 460 -50 449 -44 q 483 -42 476 -58 q 478 -11 489 -26 q 501 -34 497 -18 q 499 -65 506 -50 q 478 -87 493 -79 q 442 -83 463 -94 q 423 -52 422 -75 q 425 -5 424 -29 q 417 38 426 19 q 367 57 407 57 l 374 57 l 124 57 q 74 38 83 57 q 65 -5 64 19 q 67 -52 67 -29 q 49 -83 68 -75 q 13 -87 28 -94 q -9 -65 -3 -79 q -11 -34 -15 -50 q 13 -11 -7 -18 q 8 -42 1 -26 q 31 -50 14 -58 q 42 -28 40 -44 q 38 7 43 -12 q 24 44 33 26 q 7 68 15 61 l 7 93 l 56 93 q 96 195 76 138 q 128 318 115 253 q 149 455 142 383 q 156 599 157 526 q 154 626 156 613 q 149 651 153 640 q 131 676 142 668 q 110 686 121 685 q 92 683 100 688 q 82 671 83 679 q 107 651 75 651 q 100 642 107 646 q 84 638 93 638 q 66 641 75 638 q 51 656 57 644 q 49 676 46 667 q 59 693 51 686 q 77 704 67 700 q 99 708 88 708 l 471 708 m 318 675 l 186 675 q 184 528 189 608 q 167 369 179 449 q 135 217 154 289 q 89 93 115 144 l 318 93 l 318 675 z "},"":{"ha":607,"x_min":-3,"x_max":579,"o":"m 579 58 l 347 58 q 327 62 338 58 q 310 72 317 65 q 301 88 303 79 q 304 110 299 97 q 317 125 308 121 q 335 129 326 129 q 350 125 343 129 q 358 115 357 121 q 336 109 340 114 q 332 94 332 104 q 344 77 332 82 q 369 76 356 72 q 394 93 383 81 q 401 126 404 106 l 293 407 l 214 240 l 214 157 q 230 94 214 121 q 271 60 246 67 l 271 58 l 49 58 q 27 62 38 58 q 10 72 17 65 q 0 88 3 79 q 3 110 -3 97 q 17 125 8 121 q 35 129 26 129 q 51 125 44 129 q 58 115 58 121 q 35 109 40 114 q 33 94 31 104 q 43 84 35 88 q 63 84 51 81 q 85 97 74 88 q 103 126 96 107 l 103 644 q 85 673 96 663 q 63 687 74 683 q 43 688 51 690 q 33 676 35 685 q 35 663 31 668 q 58 657 40 657 q 51 647 58 651 q 35 643 44 643 q 17 647 26 643 q 3 661 8 650 q 0 682 -3 672 q 10 699 3 692 q 27 710 17 706 q 49 714 38 714 l 271 714 l 271 708 q 230 689 246 701 q 214 661 214 676 l 214 319 l 368 639 q 372 660 372 647 q 361 696 372 681 q 335 714 350 711 l 525 714 q 544 708 535 713 q 558 697 553 704 q 566 681 564 690 q 563 661 568 672 q 548 647 557 650 q 531 643 539 643 q 515 647 522 643 q 508 657 508 651 q 529 662 525 657 q 533 675 533 667 q 508 696 533 694 q 454 681 482 697 q 401 626 424 661 l 356 533 l 497 124 q 533 81 508 97 q 579 60 558 64 l 579 58 z "},"":{"ha":610,"x_min":-8,"x_max":601,"o":"m 276 60 l 276 58 l 219 58 l 108 60 l 49 60 q 27 63 38 60 q 10 74 17 67 q 0 90 3 81 q 3 111 -3 99 q 17 126 8 121 q 35 131 26 131 q 51 126 44 131 q 58 117 58 122 q 33 96 26 115 q 44 85 35 89 q 67 85 54 82 q 91 99 79 89 q 108 128 103 108 l 108 646 q 91 674 103 664 q 67 688 79 685 q 44 689 54 692 q 33 678 35 686 q 58 658 26 658 q 51 649 58 653 q 35 644 44 644 q 17 648 26 644 q 3 663 8 651 q 10 700 -8 685 q 49 715 28 715 l 108 715 l 219 714 l 276 714 l 276 708 q 235 689 251 701 q 219 661 219 676 l 219 225 l 432 635 q 425 663 431 647 q 406 681 417 675 q 384 689 394 688 q 366 688 374 690 q 357 678 358 685 q 360 663 356 668 q 382 657 365 658 q 376 647 382 651 q 360 643 369 643 q 342 647 351 643 q 328 663 333 651 q 333 700 315 686 q 372 714 350 714 l 601 714 l 601 713 q 571 694 582 707 q 553 665 560 682 q 546 626 547 647 q 544 581 544 604 l 544 110 q 560 82 544 94 q 601 63 576 69 l 601 57 l 544 57 l 433 58 l 375 58 l 375 64 q 417 83 401 71 q 433 111 433 96 l 433 561 l 219 139 q 240 88 224 108 q 276 60 256 67 z "},"":{"ha":649,"x_min":7,"x_max":632,"o":"m 632 708 q 591 685 607 701 q 575 653 575 668 l 575 149 q 590 90 575 113 q 628 60 604 67 l 628 58 l 404 58 q 371 68 386 58 q 356 94 356 78 q 362 112 356 104 q 376 124 368 119 q 395 126 385 128 q 414 115 406 125 q 389 99 390 113 q 393 88 388 93 q 411 83 399 83 q 452 107 440 86 q 464 157 464 128 l 464 647 l 350 433 l 394 332 q 404 237 414 274 q 370 182 394 200 q 315 163 346 164 q 259 178 283 163 q 225 222 235 193 q 235 293 215 251 l 269 365 l 161 633 l 161 157 q 178 94 161 121 q 219 60 194 67 l 219 58 l 63 58 q 41 62 51 58 q 24 72 31 65 q 14 88 17 79 q 17 110 11 97 q 31 124 22 119 q 49 129 40 129 q 65 125 58 129 q 72 115 72 121 q 47 94 40 114 q 57 85 49 88 q 76 84 65 82 q 99 94 88 86 q 119 117 111 101 l 119 656 q 99 677 111 669 q 76 687 88 685 q 57 686 65 689 q 47 676 49 683 q 72 657 40 657 q 65 647 72 651 q 49 643 58 643 q 31 647 40 643 q 17 661 22 650 q 19 698 7 682 q 54 714 31 714 l 235 714 l 333 471 l 465 714 l 632 714 l 632 708 m 288 329 l 263 275 q 258 226 247 243 q 284 207 268 208 q 312 221 300 206 q 311 271 324 236 l 288 329 z "},"":{"ha":621,"x_min":-1,"x_max":603,"o":"m 603 713 q 555 665 564 701 q 546 581 546 628 l 546 110 q 562 82 546 94 q 603 63 578 69 l 603 57 l 546 57 l 435 58 l 376 58 l 376 64 q 419 83 403 71 q 435 111 435 96 l 435 296 q 413 335 428 313 q 378 378 397 358 q 338 413 360 399 q 299 426 317 426 q 263 415 278 426 q 246 382 247 403 q 251 363 246 375 q 272 350 257 351 q 289 353 283 349 q 296 365 294 358 q 296 383 297 372 q 309 367 306 378 q 309 345 313 356 q 295 327 306 335 q 267 319 285 319 q 238 330 249 319 q 221 356 228 340 l 221 157 q 238 94 221 121 q 278 60 254 67 l 278 58 l 221 58 l 110 60 l 50 60 q 28 63 39 60 q 11 74 18 67 q 1 90 4 81 q 4 111 -1 99 q 19 126 10 122 q 37 131 28 131 q 53 126 46 131 q 60 117 60 122 q 37 110 42 115 q 35 96 32 106 q 46 85 36 89 q 68 85 56 82 q 92 99 81 89 q 110 128 104 108 l 110 646 q 92 674 104 664 q 68 688 81 685 q 46 689 56 692 q 35 678 36 686 q 37 664 32 669 q 60 658 42 658 q 53 649 60 653 q 37 644 46 644 q 19 648 28 644 q 4 663 10 651 q 1 683 -1 674 q 11 700 4 693 q 28 711 18 707 q 50 715 39 715 l 110 715 l 221 714 l 278 714 l 278 708 q 237 689 253 701 q 221 661 221 676 l 221 426 q 254 464 231 450 q 304 475 278 478 q 374 442 336 472 q 435 350 411 413 l 435 615 q 426 663 435 642 q 407 681 418 675 q 385 689 396 688 q 367 688 375 690 q 358 678 360 685 q 362 663 357 668 q 383 657 367 658 q 376 647 383 651 q 361 643 369 643 q 344 647 353 643 q 329 663 335 651 q 334 700 317 686 q 374 714 351 714 l 603 714 l 603 713 z "},"":{"ha":596,"x_min":18,"x_max":569,"o":"m 569 385 q 531 202 569 283 q 419 83 492 121 q 460 65 431 65 l 469 65 l 469 58 l 86 58 q 67 62 76 58 q 50 72 57 65 q 40 88 43 79 q 43 110 38 97 q 56 124 47 119 q 73 128 64 128 q 90 124 82 128 q 99 115 97 121 q 77 111 83 118 q 71 94 71 104 q 83 78 71 85 q 110 71 94 72 q 144 73 126 69 q 175 85 163 76 q 112 135 140 104 q 63 204 83 165 q 30 289 42 243 q 18 385 18 335 q 62 567 18 486 q 175 686 106 647 q 144 698 163 694 q 110 700 126 701 q 83 692 94 699 q 71 676 71 686 q 77 660 71 667 q 99 657 83 654 q 90 647 97 651 q 73 643 82 643 q 56 647 64 643 q 43 661 47 651 q 40 683 38 674 q 50 700 43 693 q 67 710 57 707 q 86 714 76 714 l 469 714 l 469 707 l 460 707 q 435 701 446 707 q 419 689 425 696 q 531 570 492 651 q 569 385 569 489 m 297 83 q 360 107 331 83 q 411 172 389 131 q 446 267 433 213 q 458 385 458 322 q 448 490 458 442 q 419 579 438 539 q 426 505 428 549 q 412 422 425 461 q 372 354 399 382 q 303 326 346 326 q 238 347 258 326 q 214 390 217 367 q 225 440 211 418 q 264 456 239 461 q 249 438 251 450 q 250 419 247 426 q 272 389 257 397 q 304 382 286 381 q 345 397 325 385 q 376 426 365 408 q 404 536 404 471 q 399 589 404 564 q 383 633 393 614 q 372 651 378 644 q 360 665 367 658 q 297 689 328 689 q 234 665 264 689 q 181 600 204 642 q 144 503 158 558 q 131 385 131 447 q 144 267 131 322 q 181 172 158 213 q 234 107 204 131 q 297 83 264 83 z "},"":{"ha":524,"x_min":-3,"x_max":507,"o":"m 325 714 q 383 704 353 714 q 439 672 413 694 q 483 616 465 650 q 503 532 500 582 q 488 419 507 461 q 442 357 469 378 q 385 331 415 336 q 335 325 356 325 q 292 338 311 325 q 263 368 274 350 q 255 407 253 386 q 278 446 257 428 q 271 431 274 442 q 272 408 268 419 q 288 388 275 396 q 326 379 300 379 q 368 396 351 379 q 393 438 385 413 q 403 491 401 463 q 401 542 404 519 q 367 647 392 614 q 301 681 342 681 l 214 681 l 214 157 q 231 94 214 121 q 272 60 247 67 l 272 58 l 214 58 l 49 58 q 27 62 38 58 q 10 72 17 65 q 0 88 3 79 q 3 110 -3 97 q 17 124 8 119 q 35 128 26 128 q 51 124 44 128 q 58 114 58 119 q 35 109 40 114 q 33 94 31 104 q 43 83 35 86 q 63 83 51 81 q 86 97 75 86 q 103 128 97 108 l 103 642 q 86 672 97 661 q 63 687 75 683 q 43 687 51 690 q 33 675 35 683 q 35 662 31 667 q 58 657 40 657 q 51 647 58 651 q 35 643 44 643 q 17 647 26 643 q 3 661 8 650 q 0 682 -3 672 q 10 699 3 692 q 27 710 17 706 q 49 714 38 714 l 325 714 z "},"":{"ha":475,"x_min":17,"x_max":460,"o":"m 458 558 q 456 522 458 540 q 447 487 454 503 q 428 460 440 471 q 399 449 417 450 q 369 455 379 447 q 357 473 360 463 q 357 493 354 483 q 364 504 360 503 q 375 489 364 493 q 393 488 386 485 q 422 517 414 496 q 428 565 431 539 q 415 614 425 590 q 388 650 404 638 q 332 678 364 668 q 269 689 300 689 q 201 653 228 689 q 157 567 174 617 q 134 467 140 518 q 128 385 128 415 q 138 278 128 335 q 166 175 147 222 q 213 97 185 128 q 279 65 242 65 q 374 101 339 65 q 410 207 410 136 q 399 248 410 232 q 364 253 388 264 q 383 269 368 265 q 416 269 399 274 q 447 247 433 264 q 460 201 460 231 q 410 88 460 132 q 282 43 361 43 q 162 72 213 43 q 79 147 111 100 q 32 256 47 194 q 17 385 17 318 q 35 514 17 453 q 88 621 54 575 q 169 694 122 667 q 272 721 217 721 q 295 719 281 721 q 327 715 310 718 q 364 706 344 713 q 407 689 383 699 q 420 696 413 686 q 435 719 428 706 q 449 747 442 733 q 458 768 456 761 l 458 558 z "},"":{"ha":485,"x_min":-4,"x_max":481,"o":"m 422 742 q 433 701 426 725 q 445 649 439 676 q 458 594 451 622 q 471 542 465 567 q 474 465 481 490 q 449 431 468 440 q 413 427 428 419 q 391 449 397 435 q 389 480 385 464 q 413 503 393 496 q 407 473 401 488 q 431 464 413 458 q 449 490 446 468 q 447 540 453 511 q 427 606 440 572 q 396 658 414 639 q 347 681 378 681 l 293 681 l 293 157 q 308 94 293 121 q 349 60 324 67 l 349 58 l 125 58 q 104 62 114 58 q 88 72 94 65 q 78 88 81 79 q 82 110 76 97 q 95 124 86 119 q 113 128 104 128 q 128 124 121 128 q 136 114 135 119 q 114 109 119 114 q 110 94 108 104 q 121 84 111 88 q 142 84 131 81 q 165 97 153 88 q 182 126 176 107 l 182 682 l 131 681 q 81 658 99 681 q 50 608 64 639 q 30 546 36 576 q 26 492 24 515 q 44 464 29 468 q 69 473 63 458 q 64 503 75 488 q 88 480 83 496 q 85 449 92 464 q 63 427 79 435 q 26 431 47 419 q 1 465 7 440 q 7 542 -4 490 q 17 595 11 567 q 30 651 24 624 q 42 701 36 678 q 53 742 49 725 l 64 742 q 70 722 64 729 q 83 714 76 714 l 392 714 q 413 742 413 714 l 422 742 z "},"":{"ha":596,"x_min":6,"x_max":603,"o":"m 603 58 l 381 58 q 344 72 360 58 q 338 110 328 85 q 350 124 342 119 q 367 127 358 128 q 381 122 375 126 q 388 111 388 117 q 369 110 375 117 q 363 94 364 104 q 372 78 361 85 q 394 81 383 72 q 413 109 413 90 q 406 143 414 128 l 303 350 l 211 150 q 210 90 199 117 q 250 60 221 64 l 247 58 l 171 58 l 168 58 l 131 58 l 51 58 q 19 74 32 61 q 14 110 6 88 q 26 124 18 121 q 43 127 35 128 q 58 122 51 126 q 64 111 64 117 q 39 94 36 121 q 60 76 42 82 q 103 81 78 69 q 183 175 150 99 l 281 392 l 153 657 q 128 678 142 671 q 103 687 115 685 q 81 686 90 689 q 71 675 72 683 q 96 657 69 657 q 89 647 96 651 q 74 643 82 643 q 56 647 65 643 q 43 661 47 650 q 48 699 31 685 q 86 714 65 714 l 289 714 l 290 708 q 261 694 271 701 q 254 675 251 688 l 336 508 l 397 642 q 401 654 400 649 q 404 665 403 660 q 396 688 404 681 q 378 694 388 694 q 361 689 369 694 q 353 675 353 683 q 356 662 353 667 q 378 657 360 657 q 371 647 378 651 q 355 643 364 643 q 337 647 346 643 q 322 661 328 650 q 329 699 311 683 q 368 714 347 714 l 564 714 l 564 703 q 535 701 551 703 q 500 693 518 700 q 464 671 482 686 q 431 628 446 656 l 358 469 l 515 144 q 552 87 532 108 q 600 60 572 65 l 603 58 z "},"":{"ha":861,"x_min":18,"x_max":857,"o":"m 326 65 q 367 99 351 72 q 383 163 383 126 l 383 238 l 304 404 l 196 122 q 203 89 193 101 q 228 72 214 76 q 253 73 242 68 q 265 90 265 78 q 261 105 265 100 q 239 111 257 110 q 247 121 240 117 q 263 125 254 125 q 281 121 272 125 q 293 106 289 117 q 287 68 303 82 q 250 54 271 54 l 18 54 l 18 56 q 64 76 39 60 q 100 119 89 93 l 242 531 l 196 624 q 143 678 172 660 q 90 693 115 694 q 64 672 64 692 q 68 659 64 664 q 89 654 72 654 q 83 644 89 649 q 67 640 76 640 q 49 644 58 640 q 35 658 40 647 q 38 694 24 681 q 72 711 53 708 l 263 711 q 236 693 247 708 q 225 657 225 678 q 229 636 225 644 l 383 317 l 383 667 q 367 694 383 682 q 326 714 351 707 l 549 714 l 549 708 q 508 689 524 701 q 492 661 492 676 l 492 319 l 646 639 q 650 660 650 647 q 639 696 650 681 q 613 714 628 711 l 803 714 q 837 697 822 711 q 840 661 851 683 q 826 647 835 650 q 808 643 817 643 q 792 647 799 643 q 786 657 786 651 q 807 662 803 657 q 811 675 811 667 q 785 696 811 694 q 732 681 760 697 q 679 626 703 663 l 633 533 l 775 124 q 811 81 786 97 q 857 60 836 64 l 857 58 l 625 58 q 604 62 614 58 q 588 72 594 65 q 578 88 581 79 q 582 110 576 97 q 594 125 586 121 q 612 129 603 129 q 628 125 621 129 q 636 115 635 121 q 614 109 618 114 q 610 94 610 104 q 622 77 610 82 q 647 76 633 72 q 672 93 661 81 q 679 126 682 106 l 571 407 l 492 240 l 492 157 q 508 94 492 121 q 549 60 524 67 l 549 58 l 326 58 l 326 65 z "},"":{"ha":489,"x_min":39,"x_max":465,"o":"m 76 56 q 50 65 60 56 q 40 89 40 74 q 47 106 40 100 q 62 113 54 113 q 75 108 69 113 q 79 94 81 104 q 70 97 76 100 q 64 88 64 94 q 70 75 64 81 q 86 67 76 69 q 107 66 96 64 q 128 78 118 68 q 97 102 113 89 q 68 133 81 115 q 47 171 56 150 q 39 218 39 192 q 63 303 39 267 q 136 343 88 340 q 169 338 153 344 q 197 319 186 332 q 208 290 207 307 q 199 254 210 272 q 186 258 197 254 q 161 262 175 263 q 134 253 147 261 q 115 221 121 244 q 113 168 108 193 q 132 124 118 143 q 168 94 146 106 q 218 83 190 83 q 303 118 265 81 q 344 239 342 156 q 254 406 346 381 q 233 408 244 408 q 213 404 222 407 q 199 394 204 401 q 197 378 194 388 q 188 397 188 386 q 194 419 188 408 q 212 435 200 429 q 240 440 224 442 l 236 440 q 290 462 268 443 q 322 508 311 481 q 333 567 333 536 q 319 626 332 599 q 283 671 307 653 q 222 690 258 689 l 219 686 q 142 657 179 693 q 125 632 131 649 q 119 599 119 615 q 127 570 119 582 q 151 558 135 558 q 172 572 167 558 q 171 592 178 586 q 192 575 185 589 q 197 545 199 561 q 183 516 194 529 q 149 503 171 503 q 112 514 125 503 q 92 542 99 525 q 83 581 85 560 q 81 625 81 603 l 81 751 l 89 751 q 101 702 89 715 q 128 694 113 689 q 160 709 138 699 q 226 719 182 719 q 301 711 264 719 q 367 684 338 703 q 414 635 396 665 q 431 563 432 604 q 398 478 431 517 q 307 425 365 439 q 363 408 335 421 q 415 373 392 394 q 451 322 438 351 q 465 254 465 292 q 438 160 464 199 q 376 97 413 121 q 297 63 339 74 q 222 56 256 53 l 76 56 z "},"":{"ha":610,"x_min":-8,"x_max":601,"o":"m 276 60 l 276 58 l 219 58 l 108 60 l 49 60 q 27 63 38 60 q 10 74 17 67 q 0 90 3 81 q 3 111 -3 99 q 17 126 8 121 q 35 131 26 131 q 51 126 44 131 q 58 117 58 122 q 33 96 26 115 q 44 85 35 89 q 67 85 54 82 q 91 99 79 89 q 108 128 103 108 l 108 646 q 91 674 103 664 q 67 688 79 685 q 44 689 54 692 q 33 678 35 686 q 58 658 26 658 q 51 649 58 653 q 35 644 44 644 q 17 648 26 644 q 3 663 8 651 q 10 700 -8 685 q 49 715 28 715 l 108 715 l 219 714 l 276 714 l 276 708 q 235 689 251 701 q 219 661 219 676 l 219 225 l 432 635 q 425 663 431 647 q 406 681 417 675 q 384 689 394 688 q 366 688 374 690 q 357 678 358 685 q 360 663 356 668 q 382 657 365 658 q 376 647 382 651 q 360 643 369 643 q 342 647 351 643 q 328 663 333 651 q 333 700 315 686 q 372 714 350 714 l 601 714 l 601 713 q 571 694 582 707 q 553 665 560 682 q 546 626 547 647 q 544 581 544 604 l 544 110 q 560 82 544 94 q 601 63 576 69 l 601 57 l 544 57 l 433 58 l 375 58 l 375 64 q 417 83 401 71 q 433 111 433 96 l 433 561 l 219 139 q 240 88 224 108 q 276 60 256 67 m 500 889 q 415 790 463 814 q 314 765 367 765 q 263 775 285 765 q 228 799 242 785 q 208 827 215 813 q 201 850 201 842 q 208 876 201 863 q 224 900 214 889 q 250 919 235 911 q 283 926 265 926 q 309 922 296 926 q 336 906 322 918 q 319 908 325 908 q 299 899 307 908 q 292 878 292 889 q 315 830 292 844 q 369 818 338 815 q 435 840 401 821 q 488 893 468 860 l 500 889 z "},"":{"ha":568,"x_min":-18,"x_max":565,"o":"m 288 682 q 281 558 285 622 q 269 432 276 494 q 252 310 263 369 q 228 203 242 251 q 169 82 204 126 q 78 44 133 38 q 8 85 33 51 q -15 161 -18 118 q 12 219 -14 200 q 78 239 38 239 q 108 228 94 239 q 128 203 121 218 q 133 173 135 189 q 118 146 132 157 q 110 180 122 169 q 82 190 99 190 q 58 170 65 190 q 52 126 50 150 q 65 85 54 103 q 99 74 76 68 q 153 115 129 76 q 194 214 176 153 q 217 306 207 256 q 233 406 226 356 q 244 507 240 457 q 251 601 249 557 q 247 645 251 629 q 235 670 242 661 q 218 683 228 679 q 199 689 208 686 q 176 687 188 692 q 158 674 165 682 q 148 654 150 665 q 153 632 146 643 q 165 621 157 625 q 176 618 174 617 l 160 614 q 131 622 140 611 q 114 655 115 635 q 122 689 113 675 q 147 710 132 704 q 179 715 163 715 l 565 717 q 524 686 536 708 q 513 643 513 664 l 513 144 q 527 85 513 108 q 565 56 542 63 l 565 54 l 342 54 q 308 64 324 54 q 293 90 293 74 q 299 108 293 100 q 314 119 306 115 q 333 122 322 124 q 351 111 343 121 q 326 94 328 108 q 331 84 325 89 q 349 79 336 79 q 390 103 378 82 q 401 153 401 124 l 401 146 l 401 682 l 288 682 z "},"":{"ha":638,"x_min":10,"x_max":619,"o":"m 619 714 l 619 713 q 589 694 600 707 q 572 665 578 682 q 564 626 565 647 q 563 581 563 604 l 563 107 q 578 79 563 92 q 619 60 594 67 l 619 54 l 393 56 l 393 61 q 435 81 419 68 q 451 108 451 93 l 451 678 l 238 679 l 238 154 q 254 91 238 118 q 294 57 271 64 l 294 56 l 67 56 q 45 59 56 56 q 28 69 35 63 q 18 85 21 76 q 21 107 15 94 q 35 122 26 117 q 53 126 44 126 q 69 122 63 126 q 76 113 76 118 q 51 92 44 111 q 63 81 53 85 q 85 81 72 78 q 109 94 97 85 q 126 124 121 104 l 126 644 q 109 673 121 663 q 85 687 97 683 q 63 688 72 690 q 51 676 53 685 q 76 657 44 657 q 69 647 76 651 q 53 643 63 643 q 35 647 44 643 q 21 661 26 650 q 28 699 10 683 q 67 714 46 714 l 619 714 z "},"":{"ha":593,"x_min":0,"x_max":610,"o":"m 367 204 q 342 147 356 175 q 310 95 328 118 q 269 59 293 72 q 215 46 246 46 q 147 74 172 47 q 118 134 121 101 q 136 194 115 167 q 207 221 157 221 q 237 212 224 221 q 256 189 250 203 q 261 160 263 175 q 247 135 260 146 q 240 167 251 157 q 211 176 228 176 q 189 160 196 176 q 184 126 182 144 q 199 92 186 107 q 233 81 211 78 q 269 100 251 78 q 313 183 286 122 l 129 653 q 105 676 119 668 q 76 687 90 685 q 52 685 63 689 q 40 675 42 682 q 42 662 38 667 q 65 657 47 657 q 58 647 65 651 q 42 643 51 643 q 24 647 33 643 q 10 661 15 650 q 15 698 0 682 q 44 714 29 714 l 279 714 l 281 708 q 249 691 261 701 q 240 668 238 681 l 372 342 q 381 365 376 353 q 389 389 385 376 l 489 657 q 488 684 494 675 q 473 694 482 693 q 455 690 464 696 q 447 675 446 685 q 451 662 447 667 q 474 657 456 657 q 466 647 472 651 q 451 643 460 643 q 433 647 442 643 q 418 661 425 650 q 417 699 406 683 q 453 714 429 714 l 610 714 l 610 708 q 560 689 581 701 q 531 661 539 676 l 367 204 z "},"":{"ha":747,"x_min":17,"x_max":722,"o":"m 485 708 q 426 661 426 693 l 426 588 q 486 619 453 613 q 563 620 525 629 q 635 585 601 611 q 692 522 669 560 q 715 463 707 494 q 722 397 722 431 q 715 332 722 364 q 693 272 707 300 q 611 184 664 215 q 507 158 558 153 q 463 169 483 161 q 426 194 443 176 l 426 157 q 443 94 426 121 q 485 60 460 67 l 485 58 l 257 58 q 235 62 246 58 q 218 72 225 65 q 208 88 211 79 q 211 110 206 97 q 226 124 217 119 q 244 129 235 129 q 260 125 253 129 q 267 115 267 121 q 242 94 235 114 q 255 85 243 88 q 280 85 267 82 q 304 97 293 88 q 315 124 315 107 l 315 196 q 254 161 288 169 q 177 161 215 151 q 104 197 139 171 q 47 260 69 222 q 24 319 32 286 q 17 385 17 351 q 24 450 17 418 q 46 510 32 482 q 128 598 75 567 q 232 624 181 629 q 276 611 256 621 q 315 583 296 603 l 315 649 q 297 675 308 665 q 273 688 285 685 q 252 688 261 690 q 242 676 243 685 q 267 657 235 657 q 260 647 267 651 q 244 643 253 643 q 226 647 235 643 q 211 661 217 650 q 218 699 200 683 q 257 714 236 714 l 485 714 l 485 708 m 500 186 q 554 201 531 183 q 585 241 578 219 q 579 279 592 263 q 526 292 567 296 q 564 320 539 318 q 604 310 589 322 q 609 349 607 331 q 611 390 611 368 q 597 498 611 447 q 556 575 582 549 q 494 594 531 601 q 426 539 463 588 l 426 238 q 463 201 446 211 q 500 186 481 190 m 238 596 q 185 580 207 597 q 156 540 163 563 q 163 501 150 518 q 215 489 175 485 q 179 462 204 464 q 139 472 154 460 q 132 433 135 451 q 131 392 129 414 q 146 285 132 335 q 185 209 160 235 q 244 190 210 183 q 315 244 278 196 l 315 542 q 275 579 293 568 q 238 596 257 592 z "},"":{"ha":640,"x_min":10,"x_max":639,"o":"m 618 97 l 618 68 q 597 40 608 60 q 580 -1 586 21 q 574 -42 574 -24 q 586 -67 574 -61 q 602 -68 596 -71 q 612 -58 608 -65 q 614 -41 615 -51 q 607 -22 613 -31 q 634 -48 629 -29 q 631 -83 639 -67 q 606 -108 624 -100 q 565 -104 589 -117 q 547 -85 550 -99 q 545 -53 544 -71 q 548 -16 546 -35 q 546 18 550 3 q 528 44 542 33 q 483 54 514 54 l 492 54 l 67 54 q 28 69 46 54 q 21 107 10 85 q 35 121 26 117 q 53 125 44 125 q 69 121 63 125 q 76 111 76 117 q 51 92 44 111 q 63 81 53 83 q 85 81 72 78 q 109 95 97 85 q 126 124 121 106 l 126 643 q 109 672 121 663 q 85 685 97 682 q 63 685 72 689 q 51 675 53 682 q 76 654 44 656 q 69 644 76 647 q 53 640 63 640 q 35 644 44 640 q 21 660 26 649 q 18 681 15 672 q 28 697 21 690 q 45 708 35 704 q 67 711 56 711 l 294 711 l 294 710 q 254 676 271 703 q 238 613 238 649 l 238 90 l 436 90 l 436 657 q 420 685 436 672 q 378 704 404 697 l 378 710 l 604 711 l 604 706 q 563 686 579 699 q 547 658 547 674 l 547 97 l 618 97 z "},"":{"ha":601,"x_min":-19,"x_max":590,"o":"m 422 615 q 414 663 422 642 q 394 681 406 675 q 373 689 383 688 q 355 688 363 690 q 346 678 347 685 q 349 663 344 668 q 371 657 354 658 q 365 647 371 651 q 349 643 358 643 q 331 647 340 643 q 317 663 322 651 q 322 700 304 686 q 361 714 339 714 l 590 714 l 590 713 q 560 694 571 707 q 542 665 549 682 q 535 626 536 647 q 533 581 533 604 l 533 110 q 549 82 533 94 q 590 63 565 69 l 590 57 l 533 57 l 422 58 l 364 58 l 364 64 q 406 83 390 71 q 422 111 422 96 l 422 368 q 370 335 399 347 q 313 321 342 324 q 208 339 250 317 q 142 398 167 361 q 107 481 117 435 q 99 569 97 526 l 97 644 q 80 673 92 663 q 56 687 68 683 q 33 688 43 690 q 22 676 24 685 q 47 657 15 657 q 40 647 47 651 q 24 643 33 643 q 6 647 15 643 q -8 661 -3 650 q -1 699 -19 683 q 38 714 17 714 l 265 713 l 265 707 q 224 688 240 700 q 208 660 208 675 l 207 543 q 210 480 207 514 q 224 418 213 446 q 256 372 235 390 q 313 353 276 353 q 377 372 349 354 q 422 415 406 389 l 422 615 z "},"":{"ha":950,"x_min":8,"x_max":949,"o":"m 65 56 q 26 71 44 56 q 19 108 8 86 q 34 122 25 118 q 52 126 43 126 q 68 122 61 126 q 75 113 75 118 q 50 93 43 113 q 61 82 51 85 q 83 83 71 79 q 108 97 96 86 q 125 125 119 107 l 125 644 q 108 674 119 664 q 83 687 96 683 q 61 687 71 690 q 50 676 51 683 q 75 656 43 657 q 68 645 75 649 q 52 642 61 642 q 34 646 43 642 q 19 661 25 650 q 17 683 14 674 q 26 699 19 692 q 44 709 33 706 q 65 713 54 713 l 293 713 l 293 711 q 253 677 269 704 q 236 614 236 650 l 236 93 l 435 93 l 435 664 q 419 692 435 679 q 376 711 403 704 l 604 711 l 604 710 q 564 676 581 703 q 547 613 547 649 l 547 90 l 746 90 l 746 657 q 730 685 746 672 q 688 704 714 697 l 688 710 l 914 711 l 914 706 q 873 686 889 699 q 857 658 857 674 l 857 97 l 928 97 l 928 68 q 907 40 918 60 q 890 -1 896 21 q 883 -42 883 -24 q 896 -67 883 -61 q 912 -68 906 -71 q 922 -58 918 -65 q 924 -41 925 -51 q 917 -22 922 -31 q 944 -48 939 -29 q 941 -83 949 -67 q 916 -108 933 -100 q 875 -104 899 -117 q 857 -85 860 -99 q 855 -53 854 -71 q 858 -16 856 -35 q 856 18 860 3 q 838 44 851 33 q 793 54 824 54 l 801 54 l 65 56 z "}}}
